TwilioSansMono-Bold.ufo
<glyph name="quotesingle" format="2">
	<unicode hex="0027"/>
	<advance width="600"/>
	<outline>
		<contour>
			<point x="250" y="475" type="line"/>
			<point x="350" y="475" type="line"/>
			<point x="378" y="750" type="line"/>
			<point x="222" y="750" type="line"/>
		</contour>
	</outline>
</glyph>
<glyph name="parenleft" format="2">
	<unicode hex="0028"/>
	<advance width="600"/>
	<outline>
		<contour>
			<point x="471" y="-168" type="curve"/>
			<point x="513" y="-50" type="line"/>
			<point x="335" y="13"/>
			<point x="279" y="128"/>
			<point x="279" y="314" type="curve" smooth="yes"/>
			<point x="279" y="498"/>
			<point x="333" y="624"/>
			<point x="513" y="679" type="curve"/>
			<point x="471" y="798" type="line"/>
			<point x="236" y="719"/>
			<point x="144" y="565"/>
			<point x="144" y="316" type="curve" smooth="yes"/>
			<point x="144" y="65"/>
			<point x="229" y="-88"/>
		</contour>
	</outline>
</glyph>
<glyph name="parenright" format="2">
	<unicode hex="0029"/>
	<advance width="600"/>
	<outline>
		<contour>
			<point x="87" y="-50" type="curve"/>
			<point x="130" y="-168" type="line"/>
			<point x="371" y="-88"/>
			<point x="456" y="66"/>
			<point x="456" y="316" type="curve" smooth="yes"/>
			<point x="456" y="563"/>
			<point x="365" y="719"/>
			<point x="130" y="798" type="curve"/>
			<point x="87" y="679" type="line"/>
			<point x="267" y="624"/>
			<point x="321" y="497"/>
			<point x="321" y="314" type="curve" smooth="yes"/>
			<point x="321" y="132"/>
			<point x="268" y="14"/>
		</contour>
	</outline>
</glyph>
<glyph name="comma" format="2">
	<unicode hex="002C"/>
	<advance width="600"/>
	<outline>
		<contour>
			<point x="233" y="169" type="line"/>
			<point x="184" y="-175" type="line"/>
			<point x="288" y="-175" type="line"/>
			<point x="423" y="169" type="line"/>
		</contour>
	</outline>
</glyph>
<glyph name="period" format="2">
	<unicode hex="002E"/>
	<advance width="600"/>
	<outline>
		<contour>
			<point x="300" y="-12" type="curve" smooth="yes"/>
			<point x="368" y="-12"/>
			<point x="403" y="14"/>
			<point x="403" y="82" type="curve" smooth="yes"/>
			<point x="403" y="149"/>
			<point x="368" y="174"/>
			<point x="300" y="174" type="curve" smooth="yes"/>
			<point x="232" y="174"/>
			<point x="197" y="149"/>
			<point x="197" y="82" type="curve" smooth="yes"/>
			<point x="197" y="14"/>
			<point x="232" y="-12"/>
		</contour>
	</outline>
</glyph>
<glyph name="slash" format="2">
	<unicode hex="002F"/>
	<advance width="600"/>
	<outline>
		<contour>
			<point x="401" y="792" type="line"/>
			<point x="54" y="-163" type="line"/>
			<point x="198" y="-163" type="line"/>
			<point x="546" y="792" type="line"/>
		</contour>
	</outline>
</glyph>
<glyph name="zero" format="2">
	<unicode hex="0030"/>
	<advance width="600"/>
	<outline>
		<contour>
			<point x="300" y="-14" type="curve" smooth="yes"/>
			<point x="465" y="-14"/>
			<point x="557" y="103"/>
			<point x="557" y="335" type="curve" smooth="yes"/>
			<point x="557" y="349" type="line" smooth="yes"/>
			<point x="557" y="580"/>
			<point x="465" y="698"/>
			<point x="300" y="698" type="curve" smooth="yes"/>
			<point x="135" y="698"/>
			<point x="43" y="580"/>
			<point x="43" y="349" type="curve" smooth="yes"/>
			<point x="43" y="335" type="line" smooth="yes"/>
			<point x="43" y="103"/>
			<point x="135" y="-14"/>
		</contour>
		<contour>
			<point x="300" y="107" type="curve" smooth="yes"/>
			<point x="222" y="107"/>
			<point x="179" y="164"/>
			<point x="179" y="338" type="curve" smooth="yes"/>
			<point x="179" y="345" type="line" smooth="yes"/>
			<point x="179" y="520"/>
			<point x="222" y="577"/>
			<point x="300" y="577" type="curve" smooth="yes"/>
			<point x="377" y="577"/>
			<point x="421" y="520"/>
			<point x="421" y="345" type="curve" smooth="yes"/>
			<point x="421" y="338" type="line" smooth="yes"/>
			<point x="421" y="164"/>
			<point x="377" y="107"/>
		</contour>
		<contour>
			<point x="300" y="258" type="curve" smooth="yes"/>
			<point x="343" y="258"/>
			<point x="367" y="281"/>
			<point x="367" y="342" type="curve" smooth="yes"/>
			<point x="367" y="404"/>
			<point x="343" y="427"/>
			<point x="300" y="427" type="curve" smooth="yes"/>
			<point x="257" y="427"/>
			<point x="233" y="403"/>
			<point x="233" y="342" type="curve" smooth="yes"/>
			<point x="233" y="281"/>
			<point x="257" y="258"/>
		</contour>
	</outline>
</glyph>
<glyph name="two" format="2">
	<unicode hex="0032"/>
	<advance width="600"/>
	<outline>
		<contour>
			<point x="61" y="0" type="line"/>
			<point x="536" y="0" type="line"/>
			<point x="536" y="131" type="line"/>
			<point x="277" y="131" type="line"/>
			<point x="331" y="170" type="line" smooth="yes"/>
			<point x="443" y="250"/>
			<point x="525" y="334"/>
			<point x="525" y="472" type="curve" smooth="yes"/>
			<point x="525" y="599"/>
			<point x="459" y="698"/>
			<point x="292" y="698" type="curve" smooth="yes"/>
			<point x="194" y="698"/>
			<point x="115" y="663"/>
			<point x="63" y="622" type="curve"/>
			<point x="63" y="485" type="line"/>
			<point x="124" y="538"/>
			<point x="189" y="572"/>
			<point x="260" y="572" type="curve" smooth="yes"/>
			<point x="339" y="572"/>
			<point x="372" y="527"/>
			<point x="372" y="458" type="curve" smooth="yes"/>
			<point x="372" y="356"/>
			<point x="293" y="292"/>
			<point x="186" y="210" type="curve" smooth="yes"/>
			<point x="61" y="113" type="line"/>
		</contour>
	</outline>
</glyph>
<glyph name="six" format="2">
	<unicode hex="0036"/>
	<advance width="600"/>
	<outline>
		<contour>
			<point x="302" y="-14" type="curve" smooth="yes"/>
			<point x="471" y="-14"/>
			<point x="557" y="96"/>
			<point x="557" y="247" type="curve" smooth="yes"/>
			<point x="557" y="369"/>
			<point x="501" y="452"/>
			<point x="372" y="452" type="curve" smooth="yes"/>
			<point x="299" y="452"/>
			<point x="239" y="419"/>
			<point x="198" y="344" type="curve"/>
			<point x="205" y="498"/>
			<point x="234" y="578"/>
			<point x="367" y="578" type="curve" smooth="yes"/>
			<point x="428" y="578"/>
			<point x="504" y="556"/>
			<point x="541" y="527" type="curve"/>
			<point x="541" y="651" type="line"/>
			<point x="503" y="678"/>
			<point x="420" y="698"/>
			<point x="349" y="698" type="curve" smooth="yes"/>
			<point x="110" y="698"/>
			<point x="40" y="530"/>
			<point x="40" y="321" type="curve" smooth="yes"/>
			<point x="40" y="307" type="line" smooth="yes"/>
			<point x="40" y="112"/>
			<point x="100" y="-14"/>
		</contour>
		<contour>
			<point x="302" y="103" type="curve" smooth="yes"/>
			<point x="236" y="103"/>
			<point x="194" y="145"/>
			<point x="194" y="230" type="curve" smooth="yes"/>
			<point x="194" y="304"/>
			<point x="235" y="348"/>
			<point x="304" y="348" type="curve" smooth="yes"/>
			<point x="371" y="348"/>
			<point x="406" y="311"/>
			<point x="406" y="231" type="curve" smooth="yes"/>
			<point x="406" y="143"/>
			<point x="366" y="103"/>
		</contour>
	</outline>
</glyph>
<glyph name="seven" format="2">
	<unicode hex="0037"/>
	<advance width="600"/>
	<outline>
		<contour>
			<point x="132" y="0" type="line"/>
			<point x="294" y="0" type="line"/>
			<point x="555" y="540" type="line"/>
			<point x="555" y="684" type="line"/>
			<point x="50" y="684" type="line"/>
			<point x="50" y="446" type="line"/>
			<point x="181" y="446" type="line"/>
			<point x="181" y="571" type="line"/>
			<point x="413" y="571" type="line"/>
		</contour>
	</outline>
</glyph>
<glyph name="question" format="2">
	<unicode hex="003F"/>
	<advance width="600"/>
	<outline>
		<contour>
			<point x="204" y="231" type="curve"/>
			<point x="334" y="231" type="line"/>
			<point x="334" y="258" type="line" smooth="yes"/>
			<point x="336" y="347"/>
			<point x="514" y="369"/>
			<point x="514" y="531" type="curve" smooth="yes"/>
			<point x="514" y="625"/>
			<point x="445" y="698"/>
			<point x="299" y="698" type="curve" smooth="yes"/>
			<point x="205" y="698"/>
			<point x="133" y="667"/>
			<point x="93" y="643" type="curve"/>
			<point x="93" y="515" type="line"/>
			<point x="135" y="544"/>
			<point x="196" y="572"/>
			<point x="266" y="572" type="curve" smooth="yes"/>
			<point x="337" y="572"/>
			<point x="366" y="541"/>
			<point x="366" y="504" type="curve" smooth="yes"/>
			<point x="366" y="414"/>
			<point x="199" y="403"/>
			<point x="199" y="267" type="curve" smooth="yes"/>
			<point x="199" y="253"/>
			<point x="200" y="244"/>
		</contour>
		<contour>
			<point x="269" y="-12" type="curve" smooth="yes"/>
			<point x="331" y="-12"/>
			<point x="363" y="11"/>
			<point x="363" y="73" type="curve" smooth="yes"/>
			<point x="363" y="133"/>
			<point x="332" y="157"/>
			<point x="269" y="157" type="curve" smooth="yes"/>
			<point x="205" y="157"/>
			<point x="174" y="133"/>
			<point x="174" y="73" type="curve" smooth="yes"/>
			<point x="174" y="11"/>
			<point x="206" y="-12"/>
		</contour>
	</outline>
</glyph>
<glyph name="at" format="2">
	<unicode hex="0040"/>
	<advance width="600"/>
	<outline>
		<contour>
			<point x="373" y="-135" type="curve" smooth="yes"/>
			<point x="455" y="-135"/>
			<point x="516" y="-113"/>
			<point x="555" y="-91" type="curve"/>
			<point x="555" y="10" type="line"/>
			<point x="510" y="-14"/>
			<point x="455" y="-29"/>
			<point x="376" y="-29" type="curve" smooth="yes"/>
			<point x="201" y="-29"/>
			<point x="146" y="92"/>
			<point x="146" y="277" type="curve" smooth="yes"/>
			<point x="146" y="284" type="line" smooth="yes"/>
			<point x="146" y="492"/>
			<point x="194" y="592"/>
			<point x="315" y="592" type="curve" smooth="yes"/>
			<point x="407" y="592"/>
			<point x="439" y="546"/>
			<point x="439" y="452" type="curve" smooth="yes"/>
			<point x="439" y="400" type="line"/>
			<point x="422" y="455"/>
			<point x="385" y="491"/>
			<point x="333" y="491" type="curve" smooth="yes"/>
			<point x="253" y="491"/>
			<point x="195" y="416"/>
			<point x="195" y="274" type="curve" smooth="yes"/>
			<point x="195" y="143"/>
			<point x="241" y="61"/>
			<point x="329" y="61" type="curve" smooth="yes"/>
			<point x="386" y="61"/>
			<point x="422" y="102"/>
			<point x="439" y="159" type="curve"/>
			<point x="439" y="66" type="line"/>
			<point x="555" y="66" type="line"/>
			<point x="555" y="460" type="line" smooth="yes"/>
			<point x="555" y="621"/>
			<point x="487" y="698"/>
			<point x="320" y="698" type="curve" smooth="yes"/>
			<point x="125" y="698"/>
			<point x="30" y="551"/>
			<point x="30" y="288" type="curve" smooth="yes"/>
			<point x="30" y="274" type="line" smooth="yes"/>
			<point x="30" y="-4"/>
			<point x="145" y="-135"/>
		</contour>
		<contour>
			<point x="376" y="156" type="curve" smooth="yes"/>
			<point x="333" y="156"/>
			<point x="311" y="194"/>
			<point x="311" y="276" type="curve" smooth="yes"/>
			<point x="311" y="359"/>
			<point x="333" y="397"/>
			<point x="376" y="397" type="curve" smooth="yes"/>
			<point x="416" y="397"/>
			<point x="442" y="353"/>
			<point x="442" y="273" type="curve" smooth="yes"/>
			<point x="442" y="188"/>
			<point x="417" y="156"/>
		</contour>
	</outline>
</glyph>
<glyph name="B" format="2">
	<unicode hex="0042"/>
	<advance width="600"/>
	<outline>
		<contour>
			<point x="352" y="686" type="curve" smooth="yes"/>
			<point x="60" y="686" type="line"/>
			<point x="60" y="0" type="line"/>
			<point x="347" y="0" type="line" smooth="yes"/>
			<point x="487" y="0"/>
			<point x="567" y="82"/>
			<point x="567" y="189" type="curve" smooth="yes"/>
			<point x="567" y="286"/>
			<point x="513" y="339"/>
			<point x="407" y="354" type="curve"/>
			<point x="497" y="371"/>
			<point x="556" y="426"/>
			<point x="556" y="515" type="curve" smooth="yes"/>
			<point x="556" y="622"/>
			<point x="489" y="686"/>
		</contour>
		<contour>
			<point x="315" y="572" type="line" smooth="yes"/>
			<point x="380" y="572"/>
			<point x="405" y="539"/>
			<point x="405" y="489" type="curve" smooth="yes"/>
			<point x="405" y="438"/>
			<point x="375" y="401"/>
			<point x="315" y="401" type="curve" smooth="yes"/>
			<point x="208" y="401" type="line"/>
			<point x="208" y="572" type="line"/>
		</contour>
		<contour>
			<point x="312" y="290" type="line" smooth="yes"/>
			<point x="381" y="290"/>
			<point x="411" y="256"/>
			<point x="411" y="206" type="curve" smooth="yes"/>
			<point x="411" y="156"/>
			<point x="387" y="117"/>
			<point x="313" y="117" type="curve" smooth="yes"/>
			<point x="208" y="117" type="line"/>
			<point x="208" y="290" type="line"/>
		</contour>
	</outline>
	<anchor name="top" x="299" y="684"/>
	<anchor name="bottom" x="314" y="0"/>
</glyph>
<glyph name="C" format="2">
	<unicode hex="0043"/>
	<advance width="600"/>
	<outline>
		<contour>
			<point x="381" y="-12" type="curve" smooth="yes"/>
			<point x="449" y="-12"/>
			<point x="503" y="1"/>
			<point x="547" y="28" type="curve"/>
			<point x="547" y="147" type="line"/>
			<point x="502" y="121"/>
			<point x="446" y="113"/>
			<point x="400" y="113" type="curve" smooth="yes"/>
			<point x="280" y="113"/>
			<point x="202" y="182"/>
			<point x="202" y="339" type="curve" smooth="yes"/>
			<point x="202" y="346" type="line" smooth="yes"/>
			<point x="202" y="503"/>
			<point x="279" y="572"/>
			<point x="408" y="572" type="curve" smooth="yes"/>
			<point x="461" y="572"/>
			<point x="504" y="562"/>
			<point x="546" y="541" type="curve"/>
			<point x="546" y="666" type="line"/>
			<point x="506" y="684"/>
			<point x="453" y="696"/>
			<point x="383" y="696" type="curve" smooth="yes"/>
			<point x="189" y="696"/>
			<point x="47" y="574"/>
			<point x="47" y="350" type="curve" smooth="yes"/>
			<point x="47" y="336" type="line" smooth="yes"/>
			<point x="47" y="109"/>
			<point x="172" y="-12"/>
		</contour>
	</outline>
	<anchor name="top" x="372" y="684"/>
	<anchor name="bottom" x="361" y="0"/>
</glyph>
<glyph name="E" format="2">
	<unicode hex="0045"/>
	<advance width="600"/>
	<outline>
		<contour>
			<point x="74" y="684" type="line"/>
			<point x="74" y="0" type="line"/>
			<point x="546" y="0" type="line"/>
			<point x="546" y="122" type="line"/>
			<point x="223" y="122" type="line"/>
			<point x="223" y="282" type="line"/>
			<point x="502" y="282" type="line"/>
			<point x="502" y="403" type="line"/>
			<point x="223" y="403" type="line"/>
			<point x="223" y="563" type="line"/>
			<point x="541" y="563" type="line"/>
			<point x="541" y="684" type="line"/>
		</contour>
	</outline>
	<anchor name="ogonek" x="546" y="0"/>
	<anchor name="bottom" x="313" y="0"/>
	<anchor name="top" x="308" y="684"/>
</glyph>
<glyph name="F" format="2">
	<unicode hex="0046"/>
	<advance width="600"/>
	<outline>
		<contour>
			<point x="80" y="0" type="line"/>
			<point x="229" y="0" type="line"/>
			<point x="229" y="269" type="line"/>
			<point x="511" y="269" type="line"/>
			<point x="511" y="390" type="line"/>
			<point x="229" y="390" type="line"/>
			<point x="229" y="563" type="line"/>
			<point x="551" y="563" type="line"/>
			<point x="551" y="684" type="line"/>
			<point x="80" y="684" type="line"/>
		</contour>
	</outline>
	<anchor name="ogonek" x="571" y="0"/>
	<anchor name="bottom" x="330" y="0"/>
	<anchor name="top" x="321" y="684"/>
</glyph>
<glyph name="G" format="2">
	<unicode hex="0047"/>
	<advance width="600"/>
	<outline>
		<contour>
			<point x="303" y="-14" type="curve" smooth="yes"/>
			<point x="457" y="-14"/>
			<point x="567" y="84"/>
			<point x="567" y="298" type="curve" smooth="yes"/>
			<point x="567" y="398" type="line"/>
			<point x="288" y="398" type="line"/>
			<point x="288" y="280" type="line"/>
			<point x="417" y="280" type="line"/>
			<point x="417" y="274" type="line" smooth="yes"/>
			<point x="417" y="158"/>
			<point x="374" y="107"/>
			<point x="306" y="107" type="curve" smooth="yes"/>
			<point x="225" y="107"/>
			<point x="181" y="164"/>
			<point x="181" y="332" type="curve" smooth="yes"/>
			<point x="181" y="339" type="line" smooth="yes"/>
			<point x="181" y="504"/>
			<point x="224" y="577"/>
			<point x="347" y="577" type="curve" smooth="yes"/>
			<point x="412" y="577"/>
			<point x="474" y="556"/>
			<point x="523" y="522" type="curve"/>
			<point x="523" y="651" type="line"/>
			<point x="482" y="677"/>
			<point x="412" y="698"/>
			<point x="333" y="698" type="curve" smooth="yes"/>
			<point x="125" y="698"/>
			<point x="28" y="564"/>
			<point x="28" y="342" type="curve" smooth="yes"/>
			<point x="28" y="328" type="line" smooth="yes"/>
			<point x="28" y="97"/>
			<point x="123" y="-14"/>
		</contour>
	</outline>
	<anchor name="top" x="320" y="684"/>
	<anchor name="bottom" x="304" y="0"/>
</glyph>
<glyph name="K" format="2">
	<unicode hex="004B"/>
	<advance width="600"/>
	<outline>
		<contour>
			<point x="57" y="0" type="line"/>
			<point x="206" y="0" type="line"/>
			<point x="206" y="185" type="line"/>
			<point x="281" y="298" type="line"/>
			<point x="420" y="0" type="line"/>
			<point x="588" y="0" type="line"/>
			<point x="398" y="401" type="line"/>
			<point x="572" y="684" type="line"/>
			<point x="403" y="684" type="line"/>
			<point x="206" y="352" type="line"/>
			<point x="206" y="684" type="line"/>
			<point x="57" y="684" type="line"/>
		</contour>
	</outline>
	<anchor name="top" x="314" y="684"/>
	<anchor name="bottom" x="314" y="0"/>
</glyph>
<glyph name="L" format="2">
	<unicode hex="004C"/>
	<advance width="600"/>
	<outline>
		<contour>
			<point x="84" y="0" type="line"/>
			<point x="554" y="0" type="line"/>
			<point x="554" y="136" type="line"/>
			<point x="234" y="136" type="line"/>
			<point x="234" y="684" type="line"/>
			<point x="84" y="684" type="line"/>
		</contour>
	</outline>
	<anchor name="center" x="161" y="340"/>
	<anchor name="caron" x="340" y="684"/>
	<anchor name="top" x="159" y="684"/>
	<anchor name="bottom" x="325" y="0"/>
</glyph>
<glyph name="N" format="2">
	<unicode hex="004E"/>
	<advance width="600"/>
	<outline>
		<contour>
			<point x="56" y="0" type="line"/>
			<point x="188" y="0" type="line"/>
			<point x="188" y="255" type="line" smooth="yes"/>
			<point x="188" y="343"/>
			<point x="177" y="420"/>
			<point x="164" y="511" type="curve"/>
			<point x="172" y="511" type="line"/>
			<point x="365" y="0" type="line"/>
			<point x="544" y="0" type="line"/>
			<point x="544" y="684" type="line"/>
			<point x="412" y="684" type="line"/>
			<point x="412" y="429" type="line" smooth="yes"/>
			<point x="412" y="328"/>
			<point x="421" y="265"/>
			<point x="437" y="173" type="curve"/>
			<point x="428" y="173" type="line"/>
			<point x="235" y="684" type="line"/>
			<point x="56" y="684" type="line"/>
		</contour>
	</outline>
	<anchor name="top" x="318" y="684"/>
	<anchor name="bottom" x="272" y="0"/>
</glyph>
<glyph name="P" format="2">
	<unicode hex="0050"/>
	<advance width="600"/>
	<outline>
		<contour>
			<point x="66" y="0" type="line"/>
			<point x="215" y="0" type="line"/>
			<point x="215" y="202" type="line"/>
			<point x="341" y="202" type="line" smooth="yes"/>
			<point x="488" y="202"/>
			<point x="578" y="298"/>
			<point x="578" y="447" type="curve" smooth="yes"/>
			<point x="578" y="594"/>
			<point x="487" y="684"/>
			<point x="341" y="684" type="curve" smooth="yes"/>
			<point x="66" y="684" type="line"/>
		</contour>
		<contour>
			<point x="314" y="564" type="line" smooth="yes"/>
			<point x="394" y="564"/>
			<point x="428" y="516"/>
			<point x="428" y="446" type="curve" smooth="yes"/>
			<point x="428" y="374"/>
			<point x="394" y="322"/>
			<point x="314" y="322" type="curve" smooth="yes"/>
			<point x="215" y="322" type="line"/>
			<point x="215" y="564" type="line"/>
		</contour>
	</outline>
	<anchor name="top" x="333" y="684"/>
	<anchor name="bottom" x="179" y="0"/>
</glyph>
<glyph name="Q" format="2">
	<unicode hex="0051"/>
	<advance width="600"/>
	<outline>
		<contour>
			<point x="355" y="-82" type="curve" smooth="yes"/>
			<point x="486" y="-124" type="line"/>
			<point x="545" y="-9" type="line"/>
			<point x="386" y="36" type="line"/>
			<point x="514" y="70"/>
			<point x="557" y="198"/>
			<point x="557" y="352" type="curve" smooth="yes"/>
			<point x="557" y="367" type="line" smooth="yes"/>
			<point x="557" y="581"/>
			<point x="465" y="698"/>
			<point x="300" y="698" type="curve" smooth="yes"/>
			<point x="135" y="698"/>
			<point x="43" y="581"/>
			<point x="43" y="349" type="curve" smooth="yes"/>
			<point x="43" y="335" type="line" smooth="yes"/>
			<point x="43" y="102"/>
			<point x="124" y="-10"/>
		</contour>
		<contour>
			<point x="300" y="107" type="curve" smooth="yes"/>
			<point x="233" y="107"/>
			<point x="195" y="167"/>
			<point x="195" y="338" type="curve" smooth="yes"/>
			<point x="195" y="347" type="line" smooth="yes"/>
			<point x="195" y="520"/>
			<point x="233" y="577"/>
			<point x="300" y="577" type="curve" smooth="yes"/>
			<point x="367" y="577"/>
			<point x="405" y="519"/>
			<point x="405" y="350" type="curve" smooth="yes"/>
			<point x="405" y="340" type="line" smooth="yes"/>
			<point x="405" y="172"/>
			<point x="365" y="107"/>
		</contour>
	</outline>
	<anchor name="top" x="280" y="684"/>
	<anchor name="bottom" x="288" y="0"/>
</glyph>
<glyph name="R" format="2">
	<unicode hex="0052"/>
	<advance width="600"/>
	<outline>
		<contour>
			<point x="59" y="0" type="line"/>
			<point x="208" y="0" type="line"/>
			<point x="208" y="238" type="line"/>
			<point x="289" y="238" type="line" smooth="yes"/>
			<point x="341" y="238"/>
			<point x="363" y="219"/>
			<point x="375" y="168" type="curve" smooth="yes"/>
			<point x="415" y="0" type="line"/>
			<point x="576" y="0" type="line"/>
			<point x="520" y="202" type="line" smooth="yes"/>
			<point x="504" y="263"/>
			<point x="469" y="293"/>
			<point x="410" y="302" type="curve"/>
			<point x="502" y="317"/>
			<point x="561" y="384"/>
			<point x="561" y="484" type="curve" smooth="yes"/>
			<point x="561" y="602"/>
			<point x="489" y="684"/>
			<point x="342" y="684" type="curve" smooth="yes"/>
			<point x="59" y="684" type="line"/>
		</contour>
		<contour>
			<point x="308" y="566" type="line" smooth="yes"/>
			<point x="380" y="566"/>
			<point x="411" y="523"/>
			<point x="411" y="463" type="curve" smooth="yes"/>
			<point x="411" y="400"/>
			<point x="380" y="355"/>
			<point x="308" y="355" type="curve" smooth="yes"/>
			<point x="208" y="355" type="line"/>
			<point x="208" y="566" type="line"/>
		</contour>
	</outline>
	<anchor name="top" x="288" y="684"/>
	<anchor name="bottom" x="314" y="0"/>
</glyph>
<glyph name="S" format="2">
	<unicode hex="0053"/>
	<advance width="600"/>
	<outline>
		<contour>
			<point x="306" y="-14" type="curve" smooth="yes"/>
			<point x="455" y="-14"/>
			<point x="555" y="62"/>
			<point x="555" y="214" type="curve" smooth="yes"/>
			<point x="555" y="360"/>
			<point x="446" y="390"/>
			<point x="317" y="414" type="curve" smooth="yes"/>
			<point x="237" y="428"/>
			<point x="196" y="444"/>
			<point x="196" y="498" type="curve" smooth="yes"/>
			<point x="196" y="553"/>
			<point x="239" y="579"/>
			<point x="299" y="579" type="curve" smooth="yes"/>
			<point x="382" y="579"/>
			<point x="475" y="551"/>
			<point x="536" y="510" type="curve"/>
			<point x="536" y="641" type="line"/>
			<point x="484" y="673"/>
			<point x="392" y="698"/>
			<point x="302" y="698" type="curve" smooth="yes"/>
			<point x="151" y="698"/>
			<point x="47" y="621"/>
			<point x="47" y="478" type="curve" smooth="yes"/>
			<point x="47" y="326"/>
			<point x="146" y="298"/>
			<point x="283" y="274" type="curve" smooth="yes"/>
			<point x="357" y="261"/>
			<point x="406" y="248"/>
			<point x="406" y="190" type="curve" smooth="yes"/>
			<point x="406" y="135"/>
			<point x="366" y="108"/>
			<point x="304" y="108" type="curve" smooth="yes"/>
			<point x="227" y="108"/>
			<point x="137" y="136"/>
			<point x="57" y="193" type="curve"/>
			<point x="57" y="55" type="line"/>
			<point x="117" y="18"/>
			<point x="195" y="-14"/>
		</contour>
	</outline>
	<anchor name="top" x="308" y="684"/>
	<anchor name="bottom" x="307" y="0"/>
</glyph>
<glyph name="T" format="2">
	<unicode hex="0054"/>
	<advance width="600"/>
	<outline>
		<contour>
			<point x="224" y="0" type="line"/>
			<point x="374" y="0" type="line"/>
			<point x="374" y="556" type="line"/>
			<point x="570" y="556" type="line"/>
			<point x="570" y="684" type="line"/>
			<point x="30" y="684" type="line"/>
			<point x="30" y="556" type="line"/>
			<point x="224" y="556" type="line"/>
		</contour>
	</outline>
	<anchor name="center" x="299" y="339"/>
	<anchor name="bottom" x="299" y="0"/>
	<anchor name="top" x="300" y="684"/>
</glyph>
<glyph name="V" format="2">
	<unicode hex="0056"/>
	<advance width="600"/>
	<outline>
		<contour>
			<point x="191" y="-1" type="line"/>
			<point x="408" y="-1" type="line"/>
			<point x="586" y="684" type="line"/>
			<point x="432" y="684" type="line"/>
			<point x="300" y="132" type="line"/>
			<point x="168" y="684" type="line"/>
			<point x="14" y="684" type="line"/>
		</contour>
	</outline>
	<anchor name="overlap" x="313" y="684"/>
	<anchor name="ogonek" x="607" y="0"/>
	<anchor name="top" x="313" y="684"/>
	<anchor name="bottom" x="317" y="0"/>
</glyph>
<glyph name="X" format="2">
	<unicode hex="0058"/>
	<advance width="600"/>
	<outline>
		<contour>
			<point x="14" y="0" type="line"/>
			<point x="181" y="0" type="line"/>
			<point x="298" y="249" type="line"/>
			<point x="420" y="0" type="line"/>
			<point x="586" y="0" type="line"/>
			<point x="398" y="359" type="line"/>
			<point x="573" y="684" type="line"/>
			<point x="406" y="684" type="line"/>
			<point x="300" y="469" type="line"/>
			<point x="192" y="684" type="line"/>
			<point x="27" y="684" type="line"/>
			<point x="203" y="361" type="line"/>
		</contour>
	</outline>
	<anchor name="top" x="317" y="684"/>
	<anchor name="bottom" x="323" y="0"/>
</glyph>
<glyph name="Y" format="2">
	<unicode hex="0059"/>
	<advance width="600"/>
	<outline>
		<contour>
			<point x="220" y="0" type="line"/>
			<point x="372" y="0" type="line"/>
			<point x="372" y="233" type="line"/>
			<point x="587" y="684" type="line"/>
			<point x="425" y="684" type="line"/>
			<point x="300" y="397" type="line"/>
			<point x="176" y="684" type="line"/>
			<point x="13" y="684" type="line"/>
			<point x="220" y="236" type="line"/>
		</contour>
	</outline>
	<anchor name="top" x="301" y="684"/>
	<anchor name="bottom" x="313" y="0"/>
</glyph>
<glyph name="bracketleft" format="2">
	<unicode hex="005B"/>
	<advance width="600"/>
	<outline>
		<contour>
			<point x="502" y="-57" type="line"/>
			<point x="304" y="-57" type="line"/>
			<point x="304" y="686" type="line"/>
			<point x="502" y="686" type="line"/>
			<point x="502" y="792" type="line"/>
			<point x="168" y="792" type="line"/>
			<point x="168" y="-163" type="line"/>
			<point x="502" y="-163" type="line"/>
		</contour>
	</outline>
</glyph>
<glyph name="bracketright" format="2">
	<unicode hex="005D"/>
	<advance width="600"/>
	<outline>
		<contour>
			<point x="98" y="-163" type="line"/>
			<point x="432" y="-163" type="line"/>
			<point x="432" y="792" type="line"/>
			<point x="98" y="792" type="line"/>
			<point x="98" y="686" type="line"/>
			<point x="296" y="686" type="line"/>
			<point x="296" y="-57" type="line"/>
			<point x="98" y="-57" type="line"/>
		</contour>
	</outline>
</glyph>
<glyph name="asciicircum" format="2">
	<unicode hex="005E"/>
	<advance width="600"/>
	<outline>
		<contour>
			<point x="59" y="233" type="line"/>
			<point x="186" y="233" type="line"/>
			<point x="300" y="474" type="line"/>
			<point x="413" y="233" type="line"/>
			<point x="541" y="233" type="line"/>
			<point x="365" y="584" type="line"/>
			<point x="232" y="584" type="line"/>
		</contour>
	</outline>
</glyph>
<glyph name="grave" format="2">
	<unicode hex="0060"/>
	<advance width="600"/>
	<outline>
		<contour>
			<point x="173" y="750" type="line"/>
			<point x="278" y="600" type="line"/>
			<point x="389" y="600" type="line"/>
			<point x="333" y="750" type="line"/>
		</contour>
	</outline>
	<anchor name="_top" x="331" y="523"/>
</glyph>
<glyph name="c" format="2">
	<unicode hex="0063"/>
	<advance width="600"/>
	<outline>
		<contour>
			<point x="365" y="-12" type="curve" smooth="yes"/>
			<point x="437" y="-12"/>
			<point x="487" y="4"/>
			<point x="517" y="22" type="curve"/>
			<point x="517" y="133" type="line"/>
			<point x="487" y="118"/>
			<point x="442" y="104"/>
			<point x="391" y="104" type="curve" smooth="yes"/>
			<point x="293" y="104"/>
			<point x="231" y="155"/>
			<point x="231" y="259" type="curve" smooth="yes"/>
			<point x="231" y="266" type="line" smooth="yes"/>
			<point x="231" y="369"/>
			<point x="291" y="419"/>
			<point x="393" y="419" type="curve" smooth="yes"/>
			<point x="439" y="419"/>
			<point x="485" y="409"/>
			<point x="517" y="390" type="curve"/>
			<point x="517" y="504" type="line"/>
			<point x="485" y="521"/>
			<point x="431" y="535"/>
			<point x="370" y="535" type="curve" smooth="yes"/>
			<point x="194" y="535"/>
			<point x="81" y="430"/>
			<point x="81" y="268" type="curve" smooth="yes"/>
			<point x="81" y="255" type="line" smooth="yes"/>
			<point x="81" y="90"/>
			<point x="182" y="-12"/>
		</contour>
	</outline>
	<anchor name="top" x="369" y="523"/>
	<anchor name="bottom" x="352" y="0"/>
</glyph>
<glyph name="j" format="2">
	<unicode hex="006A"/>
	<advance width="600"/>
	<outline>
		<contour>
			<point x="404" y="606" type="curve" smooth="yes"/>
			<point x="470" y="606"/>
			<point x="495" y="628"/>
			<point x="495" y="679" type="curve" smooth="yes"/>
			<point x="495" y="729"/>
			<point x="468" y="753"/>
			<point x="404" y="753" type="curve" smooth="yes"/>
			<point x="343" y="753"/>
			<point x="315" y="730"/>
			<point x="315" y="679" type="curve" smooth="yes"/>
			<point x="315" y="628"/>
			<point x="340" y="606"/>
		</contour>
		<contour>
			<point x="221" y="-204" type="curve" smooth="yes"/>
			<point x="363" y="-204"/>
			<point x="479" y="-158"/>
			<point x="479" y="18" type="curve" smooth="yes"/>
			<point x="479" y="523" type="line"/>
			<point x="75" y="523" type="line"/>
			<point x="75" y="408" type="line"/>
			<point x="332" y="408" type="line"/>
			<point x="332" y="31" type="line" smooth="yes"/>
			<point x="332" y="-57"/>
			<point x="290" y="-85"/>
			<point x="195" y="-85" type="curve" smooth="yes"/>
			<point x="147" y="-85"/>
			<point x="103" y="-77"/>
			<point x="75" y="-67" type="curve"/>
			<point x="75" y="-181" type="line"/>
			<point x="108" y="-195"/>
			<point x="167" y="-204"/>
		</contour>
	</outline>
</glyph>
<glyph name="l" format="2">
	<unicode hex="006C"/>
	<advance width="600"/>
	<outline>
		<contour>
			<point x="64" y="0" type="line"/>
			<point x="547" y="0" type="line"/>
			<point x="547" y="115" type="line"/>
			<point x="385" y="115" type="line"/>
			<point x="385" y="750" type="line"/>
			<point x="65" y="750" type="line"/>
			<point x="65" y="635" type="line"/>
			<point x="237" y="635" type="line"/>
			<point x="237" y="115" type="line"/>
			<point x="64" y="115" type="line"/>
		</contour>
	</outline>
	<anchor name="center" x="309" y="371"/>
	<anchor name="caron" x="472" y="750"/>
	<anchor name="top" x="311" y="733"/>
	<anchor name="bottom" x="311" y="0"/>
</glyph>
<glyph name="m" format="2">
	<unicode hex="006D"/>
	<advance width="600"/>
	<outline>
		<contour>
			<point x="38" y="0" type="line"/>
			<point x="159" y="0" type="line"/>
			<point x="159" y="356" type="line" smooth="yes"/>
			<point x="159" y="376"/>
			<point x="164" y="393"/>
			<point x="173" y="405" type="curve" smooth="yes"/>
			<point x="180" y="415"/>
			<point x="191" y="421"/>
			<point x="206" y="421" type="curve" smooth="yes"/>
			<point x="233" y="421"/>
			<point x="245" y="401"/>
			<point x="245" y="365" type="curve" smooth="yes"/>
			<point x="245" y="0" type="line"/>
			<point x="356" y="0" type="line"/>
			<point x="356" y="355" type="line"/>
			<point x="356" y="375"/>
			<point x="359" y="393"/>
			<point x="369" y="406" type="curve" smooth="yes"/>
			<point x="377" y="415"/>
			<point x="386" y="421"/>
			<point x="401" y="421" type="curve" smooth="yes"/>
			<point x="431" y="421"/>
			<point x="441" y="401"/>
			<point x="441" y="359" type="curve" smooth="yes"/>
			<point x="441" y="0" type="line"/>
			<point x="562" y="0" type="line"/>
			<point x="562" y="377" type="line" smooth="yes"/>
			<point x="562" y="457"/>
			<point x="550" y="537"/>
			<point x="464" y="537" type="curve" smooth="yes"/>
			<point x="414" y="537"/>
			<point x="378" y="504"/>
			<point x="356" y="438" type="curve"/>
			<point x="351" y="494"/>
			<point x="318" y="537"/>
			<point x="262" y="537" type="curve" smooth="yes"/>
			<point x="204" y="537"/>
			<point x="177" y="497"/>
			<point x="155" y="433" type="curve"/>
			<point x="155" y="523" type="line"/>
			<point x="38" y="523" type="line"/>
		</contour>
	</outline>
	<anchor name="top" x="339" y="523"/>
	<anchor name="bottom" x="297" y="0"/>
</glyph>
<glyph name="s" format="2">
	<unicode hex="0073"/>
	<advance width="600"/>
	<outline>
		<contour>
			<point x="295" y="-14" type="curve" smooth="yes"/>
			<point x="449" y="-14"/>
			<point x="526" y="57"/>
			<point x="526" y="169" type="curve" smooth="yes"/>
			<point x="526" y="283"/>
			<point x="434" y="307"/>
			<point x="315" y="327" type="curve" smooth="yes"/>
			<point x="251" y="338"/>
			<point x="215" y="346"/>
			<point x="215" y="383" type="curve" smooth="yes"/>
			<point x="215" y="414"/>
			<point x="241" y="432"/>
			<point x="298" y="432" type="curve" smooth="yes"/>
			<point x="373" y="432"/>
			<point x="456" y="409"/>
			<point x="516" y="373" type="curve"/>
			<point x="516" y="490" type="line"/>
			<point x="461" y="518"/>
			<point x="392" y="537"/>
			<point x="298" y="537" type="curve" smooth="yes"/>
			<point x="166" y="537"/>
			<point x="74" y="475"/>
			<point x="74" y="362" type="curve" smooth="yes"/>
			<point x="74" y="246"/>
			<point x="151" y="218"/>
			<point x="285" y="198" type="curve" smooth="yes"/>
			<point x="352" y="188"/>
			<point x="385" y="180"/>
			<point x="385" y="145" type="curve" smooth="yes"/>
			<point x="385" y="111"/>
			<point x="356" y="93"/>
			<point x="299" y="93" type="curve" smooth="yes"/>
			<point x="232" y="93"/>
			<point x="145" y="113"/>
			<point x="84" y="153" type="curve"/>
			<point x="84" y="39" type="line"/>
			<point x="131" y="8"/>
			<point x="217" y="-14"/>
		</contour>
	</outline>
	<anchor name="top" x="310" y="523"/>
	<anchor name="bottom" x="303" y="0"/>
</glyph>
<glyph name="v" format="2">
	<unicode hex="0076"/>
	<advance width="600"/>
	<outline>
		<contour>
			<point x="37" y="523" type="line"/>
			<point x="198" y="0" type="line"/>
			<point x="401" y="0" type="line"/>
			<point x="563" y="523" type="line"/>
			<point x="411" y="523" type="line"/>
			<point x="303" y="119" type="line"/>
			<point x="191" y="523" type="line"/>
		</contour>
	</outline>
</glyph>
<glyph name="w" format="2">
	<unicode hex="0077"/>
	<advance width="600"/>
	<outline>
		<contour>
			<point x="81" y="0" type="line"/>
			<point x="253" y="0" type="line"/>
			<point x="295" y="377" type="line"/>
			<point x="305" y="377" type="line"/>
			<point x="346" y="0" type="line"/>
			<point x="518" y="0" type="line"/>
			<point x="582" y="523" type="line"/>
			<point x="457" y="523" type="line"/>
			<point x="422" y="124" type="line"/>
			<point x="414" y="124" type="line"/>
			<point x="367" y="523" type="line"/>
			<point x="232" y="523" type="line"/>
			<point x="185" y="124" type="line"/>
			<point x="177" y="124" type="line"/>
			<point x="143" y="523" type="line"/>
			<point x="18" y="523" type="line"/>
		</contour>
	</outline>
	<anchor name="top" x="300" y="523"/>
	<anchor name="bottom" x="269" y="2"/>
</glyph>
<glyph name="braceleft" format="2">
	<unicode hex="007B"/>
	<advance width="600"/>
	<outline>
		<contour>
			<point x="97" y="252" type="line"/>
			<point x="178" y="252" type="line" smooth="yes"/>
			<point x="229" y="252"/>
			<point x="249" y="218"/>
			<point x="249" y="191" type="curve" smooth="yes"/>
			<point x="249" y="127"/>
			<point x="151" y="72"/>
			<point x="151" y="-22" type="curve" smooth="yes"/>
			<point x="151" y="-100"/>
			<point x="211" y="-163"/>
			<point x="324" y="-163" type="curve" smooth="yes"/>
			<point x="506" y="-163" type="line"/>
			<point x="506" y="-57" type="line"/>
			<point x="378" y="-57" type="line" smooth="yes"/>
			<point x="325" y="-57"/>
			<point x="301" y="-36"/>
			<point x="301" y="1" type="curve" smooth="yes"/>
			<point x="301" y="60"/>
			<point x="398" y="112"/>
			<point x="398" y="196" type="curve" smooth="yes"/>
			<point x="398" y="252"/>
			<point x="346" y="301"/>
			<point x="271" y="313" type="curve"/>
			<point x="346" y="325"/>
			<point x="398" y="374"/>
			<point x="398" y="430" type="curve" smooth="yes"/>
			<point x="398" y="515"/>
			<point x="301" y="567"/>
			<point x="301" y="629" type="curve" smooth="yes"/>
			<point x="301" y="669"/>
			<point x="327" y="686"/>
			<point x="373" y="686" type="curve" smooth="yes"/>
			<point x="506" y="686" type="line"/>
			<point x="506" y="792" type="line"/>
			<point x="324" y="792" type="line" smooth="yes"/>
			<point x="212" y="792"/>
			<point x="151" y="726"/>
			<point x="151" y="651" type="curve" smooth="yes"/>
			<point x="151" y="556"/>
			<point x="249" y="500"/>
			<point x="249" y="436" type="curve" smooth="yes"/>
			<point x="249" y="408"/>
			<point x="229" y="375"/>
			<point x="178" y="375" type="curve" smooth="yes"/>
			<point x="97" y="375" type="line"/>
		</contour>
	</outline>
</glyph>
<glyph name="braceright" format="2">
	<unicode hex="007D"/>
	<advance width="600"/>
	<outline>
		<contour>
			<point x="94" y="-163" type="line"/>
			<point x="276" y="-163" type="line" smooth="yes"/>
			<point x="389" y="-163"/>
			<point x="449" y="-99"/>
			<point x="449" y="-22" type="curve" smooth="yes"/>
			<point x="449" y="72"/>
			<point x="351" y="127"/>
			<point x="351" y="191" type="curve" smooth="yes"/>
			<point x="351" y="218"/>
			<point x="371" y="252"/>
			<point x="422" y="252" type="curve" smooth="yes"/>
			<point x="503" y="252" type="line"/>
			<point x="503" y="375" type="line"/>
			<point x="422" y="375" type="line" smooth="yes"/>
			<point x="371" y="375"/>
			<point x="351" y="408"/>
			<point x="351" y="436" type="curve" smooth="yes"/>
			<point x="351" y="500"/>
			<point x="449" y="556"/>
			<point x="449" y="651" type="curve" smooth="yes"/>
			<point x="449" y="727"/>
			<point x="388" y="792"/>
			<point x="276" y="792" type="curve" smooth="yes"/>
			<point x="94" y="792" type="line"/>
			<point x="94" y="686" type="line"/>
			<point x="228" y="686" type="line" smooth="yes"/>
			<point x="273" y="686"/>
			<point x="300" y="669"/>
			<point x="300" y="629" type="curve" smooth="yes"/>
			<point x="300" y="567"/>
			<point x="202" y="515"/>
			<point x="202" y="430" type="curve" smooth="yes"/>
			<point x="202" y="373"/>
			<point x="254" y="325"/>
			<point x="329" y="313" type="curve"/>
			<point x="254" y="301"/>
			<point x="202" y="252"/>
			<point x="202" y="196" type="curve" smooth="yes"/>
			<point x="202" y="112"/>
			<point x="300" y="60"/>
			<point x="300" y="1" type="curve" smooth="yes"/>
			<point x="300" y="-36"/>
			<point x="274" y="-57"/>
			<point x="222" y="-57" type="curve" smooth="yes"/>
			<point x="94" y="-57" type="line"/>
		</contour>
	</outline>
</glyph>
<glyph name="asciitilde" format="2">
	<unicode hex="007E"/>
	<advance width="600"/>
	<outline>
		<contour>
			<point x="49" y="185" type="curve"/>
			<point x="160" y="185" type="line"/>
			<point x="160" y="253"/>
			<point x="169" y="294"/>
			<point x="209" y="294" type="curve" smooth="yes"/>
			<point x="266" y="294"/>
			<point x="304" y="181"/>
			<point x="406" y="181" type="curve" smooth="yes"/>
			<point x="498" y="181"/>
			<point x="551" y="243"/>
			<point x="551" y="417" type="curve"/>
			<point x="440" y="416" type="line"/>
			<point x="440" y="346"/>
			<point x="429" y="314"/>
			<point x="394" y="314" type="curve" smooth="yes"/>
			<point x="338" y="314"/>
			<point x="291" y="424"/>
			<point x="188" y="424" type="curve" smooth="yes"/>
			<point x="92" y="424"/>
			<point x="49" y="347"/>
		</contour>
	</outline>
</glyph>
<glyph name="yen" format="2">
	<unicode hex="00A5"/>
	<advance width="600"/>
	<outline>
		<contour>
			<point x="64" y="152" type="line"/>
			<point x="220" y="152" type="line"/>
			<point x="220" y="0" type="line"/>
			<point x="372" y="0" type="line"/>
			<point x="372" y="152" type="line"/>
			<point x="528" y="152" type="line"/>
			<point x="528" y="238" type="line"/>
			<point x="374" y="238" type="line"/>
			<point x="402" y="296" type="line"/>
			<point x="528" y="296" type="line"/>
			<point x="528" y="382" type="line"/>
			<point x="443" y="382" type="line"/>
			<point x="587" y="684" type="line"/>
			<point x="425" y="684" type="line"/>
			<point x="300" y="397" type="line"/>
			<point x="176" y="684" type="line"/>
			<point x="13" y="684" type="line"/>
			<point x="153" y="382" type="line"/>
			<point x="64" y="382" type="line"/>
			<point x="64" y="296" type="line"/>
			<point x="192" y="296" type="line"/>
			<point x="219" y="238" type="line"/>
			<point x="64" y="238" type="line"/>
		</contour>
	</outline>
</glyph>
<glyph name="section" format="2">
	<unicode hex="00A7"/>
	<advance width="600"/>
	<outline>
		<contour>
			<point x="310" y="-85" type="curve" smooth="yes"/>
			<point x="432" y="-85"/>
			<point x="510" y="-19"/>
			<point x="510" y="94" type="curve" smooth="yes"/>
			<point x="510" y="151"/>
			<point x="488" y="194"/>
			<point x="426" y="224" type="curve"/>
			<point x="491" y="242"/>
			<point x="530" y="278"/>
			<point x="530" y="340" type="curve" smooth="yes"/>
			<point x="530" y="430"/>
			<point x="440" y="456"/>
			<point x="324" y="473" type="curve" smooth="yes"/>
			<point x="255" y="484"/>
			<point x="215" y="497"/>
			<point x="215" y="538" type="curve" smooth="yes"/>
			<point x="215" y="575"/>
			<point x="241" y="599"/>
			<point x="304" y="599" type="curve" smooth="yes"/>
			<point x="370" y="599"/>
			<point x="445" y="581"/>
			<point x="499" y="552" type="curve"/>
			<point x="499" y="655" type="line"/>
			<point x="458" y="679"/>
			<point x="388" y="698"/>
			<point x="300" y="698" type="curve" smooth="yes"/>
			<point x="180" y="698"/>
			<point x="90" y="635"/>
			<point x="90" y="521" type="curve" smooth="yes"/>
			<point x="90" y="461"/>
			<point x="114" y="416"/>
			<point x="178" y="387" type="curve"/>
			<point x="108" y="364"/>
			<point x="70" y="325"/>
			<point x="70" y="269" type="curve" smooth="yes"/>
			<point x="70" y="170"/>
			<point x="167" y="155"/>
			<point x="278" y="139" type="curve" smooth="yes"/>
			<point x="344" y="130"/>
			<point x="384" y="120"/>
			<point x="384" y="77" type="curve" smooth="yes"/>
			<point x="384" y="41"/>
			<point x="358" y="16"/>
			<point x="301" y="16" type="curve" smooth="yes"/>
			<point x="244" y="16"/>
			<point x="163" y="35"/>
			<point x="96" y="71" type="curve"/>
			<point x="96" y="-30" type="line"/>
			<point x="147" y="-59"/>
			<point x="212" y="-85"/>
		</contour>
		<contour>
			<point x="336" y="247" type="curve" smooth="yes"/>
			<point x="273" y="251"/>
			<point x="178" y="265"/>
			<point x="178" y="316" type="curve" smooth="yes"/>
			<point x="178" y="354"/>
			<point x="216" y="369"/>
			<point x="263" y="365" type="curve" smooth="yes"/>
			<point x="328" y="362"/>
			<point x="422" y="346"/>
			<point x="422" y="296" type="curve" smooth="yes"/>
			<point x="422" y="258"/>
			<point x="384" y="243"/>
		</contour>
	</outline>
</glyph>
<glyph name="dieresis" format="2">
	<unicode hex="00A8"/>
	<advance width="600"/>
	<outline>
		<contour>
			<point x="408" y="608" type="curve" smooth="yes"/>
			<point x="467" y="608"/>
			<point x="487" y="630"/>
			<point x="487" y="676" type="curve" smooth="yes"/>
			<point x="487" y="722"/>
			<point x="467" y="745"/>
			<point x="408" y="745" type="curve" smooth="yes"/>
			<point x="350" y="745"/>
			<point x="330" y="722"/>
			<point x="330" y="676" type="curve" smooth="yes"/>
			<point x="330" y="630"/>
			<point x="350" y="608"/>
		</contour>
		<contour>
			<point x="192" y="608" type="curve" smooth="yes"/>
			<point x="251" y="608"/>
			<point x="270" y="630"/>
			<point x="270" y="676" type="curve" smooth="yes"/>
			<point x="270" y="722"/>
			<point x="251" y="745"/>
			<point x="192" y="745" type="curve" smooth="yes"/>
			<point x="133" y="745"/>
			<point x="113" y="722"/>
			<point x="113" y="676" type="curve" smooth="yes"/>
			<point x="113" y="630"/>
			<point x="133" y="608"/>
		</contour>
	</outline>
	<anchor name="_top" x="300" y="523"/>
</glyph>
<glyph name="copyright" format="2">
	<unicode hex="00A9"/>
	<advance width="600"/>
	<outline>
		<contour>
			<point x="300" y="103" type="curve" smooth="yes"/>
			<point x="446" y="103"/>
			<point x="564" y="197"/>
			<point x="564" y="374" type="curve" smooth="yes"/>
			<point x="564" y="387" type="line" smooth="yes"/>
			<point x="564" y="561"/>
			<point x="445" y="657"/>
			<point x="300" y="657" type="curve" smooth="yes"/>
			<point x="155" y="657"/>
			<point x="36" y="561"/>
			<point x="36" y="386" type="curve" smooth="yes"/>
			<point x="36" y="372" type="line" smooth="yes"/>
			<point x="36" y="197"/>
			<point x="154" y="103"/>
		</contour>
		<contour>
			<point x="300" y="166" type="curve" smooth="yes"/>
			<point x="177" y="166"/>
			<point x="102" y="243"/>
			<point x="102" y="376" type="curve" smooth="yes"/>
			<point x="102" y="383" type="line" smooth="yes"/>
			<point x="102" y="519"/>
			<point x="179" y="593"/>
			<point x="300" y="593" type="curve" smooth="yes"/>
			<point x="421" y="593"/>
			<point x="498" y="518"/>
			<point x="498" y="384" type="curve" smooth="yes"/>
			<point x="498" y="376" type="line" smooth="yes"/>
			<point x="498" y="241"/>
			<point x="423" y="166"/>
		</contour>
		<contour>
			<point x="321" y="244" type="curve" smooth="yes"/>
			<point x="348" y="244"/>
			<point x="368" y="249"/>
			<point x="380" y="256" type="curve"/>
			<point x="380" y="308" type="line"/>
			<point x="368" y="304"/>
			<point x="350" y="300"/>
			<point x="332" y="300" type="curve" smooth="yes"/>
			<point x="290" y="300"/>
			<point x="258" y="327"/>
			<point x="258" y="381" type="curve" smooth="yes"/>
			<point x="258" y="437"/>
			<point x="290" y="463"/>
			<point x="332" y="463" type="curve" smooth="yes"/>
			<point x="351" y="463"/>
			<point x="369" y="459"/>
			<point x="380" y="455" type="curve"/>
			<point x="380" y="508" type="line"/>
			<point x="368" y="513"/>
			<point x="347" y="517"/>
			<point x="320" y="517" type="curve" smooth="yes"/>
			<point x="243" y="517"/>
			<point x="188" y="468"/>
			<point x="188" y="381" type="curve" smooth="yes"/>
			<point x="188" y="296"/>
			<point x="238" y="244"/>
		</contour>
	</outline>
</glyph>
<glyph name="ordfeminine" format="2">
	<unicode hex="00AA"/>
	<advance width="600"/>
	<outline>
		<contour>
			<point x="222" y="224" type="curve" smooth="yes"/>
			<point x="298" y="224"/>
			<point x="345" y="268"/>
			<point x="371" y="324" type="curve"/>
			<point x="371" y="235" type="line"/>
			<point x="489" y="235" type="line"/>
			<point x="489" y="531" type="line" smooth="yes"/>
			<point x="489" y="644"/>
			<point x="414" y="696"/>
			<point x="288" y="696" type="curve" smooth="yes"/>
			<point x="201" y="696"/>
			<point x="138" y="671"/>
			<point x="106" y="650" type="curve"/>
			<point x="106" y="549" type="line"/>
			<point x="155" y="584"/>
			<point x="216" y="603"/>
			<point x="274" y="603" type="curve" smooth="yes"/>
			<point x="335" y="603"/>
			<point x="366" y="576"/>
			<point x="366" y="521" type="curve" smooth="yes"/>
			<point x="366" y="514" type="line"/>
			<point x="301" y="505" type="line" smooth="yes"/>
			<point x="155" y="485"/>
			<point x="93" y="430"/>
			<point x="93" y="346" type="curve" smooth="yes"/>
			<point x="93" y="268"/>
			<point x="145" y="224"/>
		</contour>
		<contour>
			<point x="276" y="308" type="curve" smooth="yes"/>
			<point x="240" y="308"/>
			<point x="211" y="326"/>
			<point x="211" y="364" type="curve" smooth="yes"/>
			<point x="211" y="404"/>
			<point x="239" y="428"/>
			<point x="304" y="437" type="curve" smooth="yes"/>
			<point x="366" y="446" type="line"/>
			<point x="366" y="398" type="line" smooth="yes"/>
			<point x="366" y="337"/>
			<point x="320" y="308"/>
		</contour>
	</outline>
	<anchor name="ogonek" x="464" y="235"/>
	<anchor name="top" x="273" y="685"/>
	<anchor name="right" x="472" y="235"/>
	<anchor name="bottom" x="274" y="233"/>
</glyph>
<glyph name="mu" format="2">
	<unicode hex="00B5"/>
	<advance width="600"/>
	<outline>
		<contour>
			<point x="531" y="523" type="line"/>
			<point x="384" y="523" type="line"/>
			<point x="384" y="209" type="line" smooth="yes"/>
			<point x="384" y="185"/>
			<point x="380" y="163"/>
			<point x="368" y="146" type="curve" smooth="yes"/>
			<point x="353" y="121"/>
			<point x="328" y="104"/>
			<point x="292" y="104" type="curve" smooth="yes"/>
			<point x="236" y="104"/>
			<point x="211" y="141"/>
			<point x="211" y="206" type="curve" smooth="yes"/>
			<point x="211" y="523" type="line"/>
			<point x="64" y="523" type="line"/>
			<point x="64" y="-190" type="line"/>
			<point x="211" y="-190" type="line"/>
			<point x="211" y="-14" type="line"/>
			<point x="219" y="-14" type="line" smooth="yes"/>
			<point x="296" y="-14"/>
			<point x="351" y="36"/>
			<point x="391" y="108" type="curve"/>
			<point x="391" y="0" type="line"/>
			<point x="531" y="0" type="line"/>
		</contour>
	</outline>
	<anchor name="ogonek" x="543" y="0"/>
	<anchor name="bottom" x="310" y="0"/>
	<anchor name="top" x="298" y="540"/>
</glyph>
<glyph name="cedilla" format="2">
	<unicode hex="00B8"/>
	<advance width="600"/>
	<outline>
		<contour>
			<point x="278" y="-230" type="curve" smooth="yes"/>
			<point x="359" y="-230"/>
			<point x="406" y="-192"/>
			<point x="406" y="-125" type="curve" smooth="yes"/>
			<point x="406" y="-78"/>
			<point x="376" y="-47"/>
			<point x="316" y="-44" type="curve"/>
			<point x="338" y="0" type="line"/>
			<point x="263" y="0" type="line"/>
			<point x="222" y="-94" type="line"/>
			<point x="229" y="-92"/>
			<point x="243" y="-91"/>
			<point x="255" y="-91" type="curve" smooth="yes"/>
			<point x="289" y="-91"/>
			<point x="311" y="-99"/>
			<point x="311" y="-125" type="curve" smooth="yes"/>
			<point x="311" y="-149"/>
			<point x="293" y="-160"/>
			<point x="256" y="-160" type="curve" smooth="yes"/>
			<point x="237" y="-160"/>
			<point x="213" y="-156"/>
			<point x="188" y="-145" type="curve"/>
			<point x="188" y="-212" type="line"/>
			<point x="208" y="-222"/>
			<point x="244" y="-230"/>
		</contour>
	</outline>
	<anchor name="_bottom" x="301" y="0"/>
</glyph>
<glyph name="questiondown" format="2">
	<unicode hex="00BF"/>
	<advance width="600"/>
	<outline>
		<contour>
			<point x="331" y="535" type="curve" smooth="yes"/>
			<point x="269" y="535"/>
			<point x="237" y="512"/>
			<point x="237" y="450" type="curve" smooth="yes"/>
			<point x="237" y="390"/>
			<point x="268" y="366"/>
			<point x="331" y="366" type="curve" smooth="yes"/>
			<point x="395" y="366"/>
			<point x="426" y="390"/>
			<point x="426" y="450" type="curve" smooth="yes"/>
			<point x="426" y="512"/>
			<point x="394" y="535"/>
		</contour>
		<contour>
			<point x="396" y="292" type="curve"/>
			<point x="266" y="292" type="line"/>
			<point x="266" y="265" type="line" smooth="yes"/>
			<point x="264" y="176"/>
			<point x="86" y="154"/>
			<point x="86" y="-8" type="curve" smooth="yes"/>
			<point x="86" y="-102"/>
			<point x="155" y="-175"/>
			<point x="301" y="-175" type="curve" smooth="yes"/>
			<point x="395" y="-175"/>
			<point x="467" y="-144"/>
			<point x="507" y="-120" type="curve"/>
			<point x="507" y="8" type="line"/>
			<point x="465" y="-21"/>
			<point x="404" y="-49"/>
			<point x="334" y="-49" type="curve" smooth="yes"/>
			<point x="263" y="-49"/>
			<point x="234" y="-18"/>
			<point x="234" y="19" type="curve" smooth="yes"/>
			<point x="234" y="109"/>
			<point x="401" y="120"/>
			<point x="401" y="256" type="curve" smooth="yes"/>
			<point x="401" y="270"/>
			<point x="400" y="279"/>
		</contour>
	</outline>
</glyph>
<glyph name="Eth" format="2">
	<unicode hex="00D0"/>
	<advance width="600"/>
	<outline>
		<contour>
			<point x="55" y="0" type="line"/>
			<point x="299" y="0" type="line" smooth="yes"/>
			<point x="473" y="0"/>
			<point x="569" y="105"/>
			<point x="569" y="335" type="curve" smooth="yes"/>
			<point x="569" y="349" type="line" smooth="yes"/>
			<point x="569" y="580"/>
			<point x="468" y="684"/>
			<point x="294" y="684" type="curve" smooth="yes"/>
			<point x="55" y="684" type="line"/>
			<point x="55" y="388" type="line"/>
			<point x="1" y="388" type="line"/>
			<point x="1" y="292" type="line"/>
			<point x="55" y="292" type="line"/>
		</contour>
		<contour>
			<point x="273" y="563" type="line" smooth="yes"/>
			<point x="370" y="563"/>
			<point x="414" y="501"/>
			<point x="414" y="349" type="curve" smooth="yes"/>
			<point x="414" y="336" type="line" smooth="yes"/>
			<point x="414" y="184"/>
			<point x="376" y="122"/>
			<point x="277" y="122" type="curve" smooth="yes"/>
			<point x="204" y="122" type="line"/>
			<point x="204" y="292" type="line"/>
			<point x="318" y="292" type="line"/>
			<point x="318" y="388" type="line"/>
			<point x="204" y="388" type="line"/>
			<point x="204" y="563" type="line"/>
		</contour>
	</outline>
</glyph>
<glyph name="Thorn" format="2">
	<unicode hex="00DE"/>
	<advance width="600"/>
	<outline>
		<contour>
			<point x="66" y="684" type="line"/>
			<point x="66" y="0" type="line"/>
			<point x="215" y="0" type="line"/>
			<point x="215" y="114" type="line"/>
			<point x="341" y="114" type="line" smooth="yes"/>
			<point x="488" y="114"/>
			<point x="578" y="210"/>
			<point x="578" y="359" type="curve" smooth="yes"/>
			<point x="578" y="505"/>
			<point x="487" y="596"/>
			<point x="341" y="596" type="curve" smooth="yes"/>
			<point x="215" y="596" type="line"/>
			<point x="215" y="684" type="line"/>
		</contour>
		<contour>
			<point x="314" y="476" type="line" smooth="yes"/>
			<point x="394" y="476"/>
			<point x="428" y="428"/>
			<point x="428" y="357" type="curve" smooth="yes"/>
			<point x="428" y="285"/>
			<point x="394" y="234"/>
			<point x="314" y="234" type="curve" smooth="yes"/>
			<point x="215" y="234" type="line"/>
			<point x="215" y="476" type="line"/>
		</contour>
	</outline>
</glyph>
<glyph name="divide" format="2">
	<unicode hex="00F7"/>
	<advance width="600"/>
	<outline>
		<contour>
			<point x="300" y="430" type="curve" smooth="yes"/>
			<point x="363" y="430"/>
			<point x="397" y="449"/>
			<point x="397" y="500" type="curve" smooth="yes"/>
			<point x="397" y="552"/>
			<point x="363" y="571"/>
			<point x="300" y="571" type="curve" smooth="yes"/>
			<point x="236" y="571"/>
			<point x="203" y="552"/>
			<point x="203" y="500" type="curve" smooth="yes"/>
			<point x="203" y="449"/>
			<point x="236" y="430"/>
		</contour>
		<contour>
			<point x="65" y="234" type="line"/>
			<point x="535" y="234" type="line"/>
			<point x="535" y="356" type="line"/>
			<point x="65" y="356" type="line"/>
		</contour>
		<contour>
			<point x="299" y="18" type="curve" smooth="yes"/>
			<point x="362" y="18"/>
			<point x="396" y="37"/>
			<point x="396" y="89" type="curve" smooth="yes"/>
			<point x="396" y="141"/>
			<point x="362" y="159"/>
			<point x="299" y="159" type="curve" smooth="yes"/>
			<point x="236" y="159"/>
			<point x="203" y="141"/>
			<point x="203" y="89" type="curve" smooth="yes"/>
			<point x="203" y="37"/>
			<point x="236" y="18"/>
		</contour>
	</outline>
</glyph>
<glyph name="dcaron" format="2">
	<unicode hex="010F"/>
	<advance width="600"/>
	<outline>
		<contour>
			<point x="212" y="-13" type="curve" smooth="yes"/>
			<point x="282" y="-13"/>
			<point x="339" y="34"/>
			<point x="376" y="108" type="curve"/>
			<point x="376" y="0" type="line"/>
			<point x="506" y="0" type="line"/>
			<point x="506" y="750" type="line"/>
			<point x="369" y="750" type="line"/>
			<point x="369" y="429" type="line"/>
			<point x="339" y="491"/>
			<point x="291" y="537"/>
			<point x="220" y="537" type="curve" smooth="yes"/>
			<point x="116" y="537"/>
			<point x="44" y="437"/>
			<point x="44" y="267" type="curve" smooth="yes"/>
			<point x="44" y="255" type="line" smooth="yes"/>
			<point x="44" y="92"/>
			<point x="98" y="-13"/>
		</contour>
		<contour>
			<point x="554" y="560" type="line"/>
			<point x="625" y="560" type="line"/>
			<point x="688" y="750" type="line"/>
			<point x="563" y="750" type="line"/>
		</contour>
		<contour>
			<point x="276" y="98" type="curve" smooth="yes"/>
			<point x="219" y="98"/>
			<point x="184" y="144"/>
			<point x="184" y="257" type="curve" smooth="yes"/>
			<point x="184" y="264" type="line" smooth="yes"/>
			<point x="184" y="373"/>
			<point x="219" y="424"/>
			<point x="278" y="424" type="curve" smooth="yes"/>
			<point x="336" y="424"/>
			<point x="375" y="373"/>
			<point x="375" y="263" type="curve" smooth="yes"/>
			<point x="375" y="259" type="line" smooth="yes"/>
			<point x="375" y="144"/>
			<point x="334" y="98"/>
		</contour>
	</outline>
</glyph>
<glyph name="dcroat" format="2">
	<unicode hex="0111"/>
	<advance width="600"/>
	<outline>
		<contour>
			<point x="227" y="-14" type="curve" smooth="yes"/>
			<point x="305" y="-14"/>
			<point x="361" y="34"/>
			<point x="397" y="105" type="curve"/>
			<point x="397" y="0" type="line"/>
			<point x="538" y="0" type="line"/>
			<point x="538" y="589" type="line"/>
			<point x="593" y="589" type="line"/>
			<point x="593" y="670" type="line"/>
			<point x="538" y="670" type="line"/>
			<point x="538" y="750" type="line"/>
			<point x="391" y="750" type="line"/>
			<point x="391" y="670" type="line"/>
			<point x="243" y="670" type="line"/>
			<point x="243" y="589" type="line"/>
			<point x="391" y="589" type="line"/>
			<point x="391" y="429" type="line"/>
			<point x="357" y="495"/>
			<point x="311" y="537"/>
			<point x="238" y="537" type="curve" smooth="yes"/>
			<point x="130" y="537"/>
			<point x="45" y="440"/>
			<point x="45" y="268" type="curve" smooth="yes"/>
			<point x="45" y="258" type="line" smooth="yes"/>
			<point x="45" y="85"/>
			<point x="110" y="-14"/>
		</contour>
		<contour>
			<point x="295" y="100" type="curve" smooth="yes"/>
			<point x="232" y="100"/>
			<point x="195" y="149"/>
			<point x="195" y="258" type="curve" smooth="yes"/>
			<point x="195" y="264" type="line" smooth="yes"/>
			<point x="195" y="372"/>
			<point x="232" y="422"/>
			<point x="296" y="422" type="curve" smooth="yes"/>
			<point x="361" y="422"/>
			<point x="399" y="370"/>
			<point x="399" y="264" type="curve" smooth="yes"/>
			<point x="399" y="258" type="line" smooth="yes"/>
			<point x="399" y="152"/>
			<point x="358" y="100"/>
		</contour>
	</outline>
</glyph>
<glyph name="eogonek" format="2">
	<unicode hex="0119"/>
	<advance width="600"/>
	<outline>
		<contour>
			<point x="391" y="-203" type="curve" smooth="yes"/>
			<point x="424" y="-203"/>
			<point x="450" y="-198"/>
			<point x="466" y="-192" type="curve"/>
			<point x="466" y="-103" type="line"/>
			<point x="461" y="-105"/>
			<point x="449" y="-106"/>
			<point x="434" y="-106" type="curve" smooth="yes"/>
			<point x="405" y="-106"/>
			<point x="383" y="-96"/>
			<point x="383" y="-68" type="curve" smooth="yes"/>
			<point x="383" y="-41"/>
			<point x="403" y="-16"/>
			<point x="457" y="0" type="curve"/>
			<point x="456" y="0" type="line"/>
			<point x="482" y="7"/>
			<point x="505" y="15"/>
			<point x="525" y="26" type="curve"/>
			<point x="525" y="135" type="line"/>
			<point x="480" y="115"/>
			<point x="426" y="103"/>
			<point x="372" y="103" type="curve" smooth="yes"/>
			<point x="271" y="103"/>
			<point x="206" y="145"/>
			<point x="199" y="223" type="curve"/>
			<point x="547" y="223" type="line"/>
			<point x="547" y="282" type="line" smooth="yes"/>
			<point x="547" y="449"/>
			<point x="456" y="537"/>
			<point x="305" y="537" type="curve" smooth="yes"/>
			<point x="160" y="537"/>
			<point x="53" y="434"/>
			<point x="53" y="269" type="curve" smooth="yes"/>
			<point x="53" y="255" type="line" smooth="yes"/>
			<point x="53" y="78"/>
			<point x="160" y="-12"/>
			<point x="333" y="-14" type="curve"/>
			<point x="291" y="-37"/>
			<point x="267" y="-72"/>
			<point x="267" y="-112" type="curve" smooth="yes"/>
			<point x="267" y="-171"/>
			<point x="307" y="-203"/>
		</contour>
		<contour>
			<point x="305" y="434" type="curve" smooth="yes"/>
			<point x="364" y="434"/>
			<point x="402" y="392"/>
			<point x="407" y="312" type="curve"/>
			<point x="197" y="312" type="line"/>
			<point x="202" y="384"/>
			<point x="241" y="434"/>
		</contour>
	</outline>
</glyph>
<glyph name="dotlessi" format="2">
	<unicode hex="0131"/>
	<advance width="600"/>
	<outline>
		<contour>
			<point x="73" y="0" type="line"/>
			<point x="557" y="0" type="line"/>
			<point x="557" y="115" type="line"/>
			<point x="395" y="115" type="line"/>
			<point x="395" y="523" type="line"/>
			<point x="74" y="523" type="line"/>
			<point x="74" y="408" type="line"/>
			<point x="247" y="408" type="line"/>
			<point x="247" y="115" type="line"/>
			<point x="73" y="115" type="line"/>
		</contour>
	</outline>
	<anchor name="ogonek" x="557" y="0"/>
	<anchor name="top" x="321" y="523"/>
</glyph>
<glyph name="IJ" format="2">
	<unicode hex="0132"/>
	<advance width="600"/>
	<outline>
		<contour>
			<point x="259" y="-12" type="curve" smooth="yes"/>
			<point x="410" y="-12"/>
			<point x="523" y="54"/>
			<point x="523" y="231" type="curve" smooth="yes"/>
			<point x="523" y="684" type="line"/>
			<point x="376" y="684" type="line"/>
			<point x="376" y="252" type="line" smooth="yes"/>
			<point x="376" y="154"/>
			<point x="329" y="112"/>
			<point x="237" y="112" type="curve" smooth="yes"/>
			<point x="181" y="112"/>
			<point x="119" y="126"/>
			<point x="76" y="145" type="curve"/>
			<point x="76" y="22" type="line"/>
			<point x="122" y="1"/>
			<point x="175" y="-12"/>
		</contour>
		<contour>
			<point x="77" y="223" type="line"/>
			<point x="221" y="223" type="line"/>
			<point x="221" y="684" type="line"/>
			<point x="77" y="684" type="line"/>
		</contour>
	</outline>
</glyph>
<glyph name="Ldot" format="2">
	<unicode hex="013F"/>
	<advance width="600"/>
	<outline>
		<contour>
			<point x="84" y="0" type="line"/>
			<point x="554" y="0" type="line"/>
			<point x="554" y="136" type="line"/>
			<point x="234" y="136" type="line"/>
			<point x="234" y="684" type="line"/>
			<point x="84" y="684" type="line"/>
		</contour>
		<contour>
			<point x="458" y="318" type="curve" smooth="yes"/>
			<point x="518" y="318"/>
			<point x="551" y="346"/>
			<point x="551" y="422" type="curve" smooth="yes"/>
			<point x="551" y="498"/>
			<point x="518" y="526"/>
			<point x="458" y="526" type="curve" smooth="yes"/>
			<point x="398" y="526"/>
			<point x="366" y="498"/>
			<point x="366" y="422" type="curve" smooth="yes"/>
			<point x="366" y="346"/>
			<point x="398" y="318"/>
		</contour>
	</outline>
</glyph>
<glyph name="Lslash" format="2">
	<unicode hex="0141"/>
	<advance width="600"/>
	<outline>
		<contour>
			<point x="84" y="0" type="line"/>
			<point x="554" y="0" type="line"/>
			<point x="554" y="136" type="line"/>
			<point x="234" y="136" type="line"/>
			<point x="234" y="321" type="line"/>
			<point x="403" y="386" type="line"/>
			<point x="403" y="488" type="line"/>
			<point x="234" y="423" type="line"/>
			<point x="234" y="684" type="line"/>
			<point x="84" y="684" type="line"/>
			<point x="84" y="365" type="line"/>
			<point x="8" y="336" type="line"/>
			<point x="8" y="234" type="line"/>
			<point x="84" y="263" type="line"/>
		</contour>
	</outline>
</glyph>
<glyph name="lslash" format="2">
	<unicode hex="0142"/>
	<advance width="600"/>
	<outline>
		<contour>
			<point x="64" y="0" type="line"/>
			<point x="547" y="0" type="line"/>
			<point x="547" y="115" type="line"/>
			<point x="385" y="115" type="line"/>
			<point x="385" y="353" type="line"/>
			<point x="530" y="407" type="line"/>
			<point x="530" y="508" type="line"/>
			<point x="385" y="454" type="line"/>
			<point x="385" y="750" type="line"/>
			<point x="65" y="750" type="line"/>
			<point x="65" y="635" type="line"/>
			<point x="237" y="635" type="line"/>
			<point x="237" y="398" type="line"/>
			<point x="89" y="343" type="line"/>
			<point x="89" y="242" type="line"/>
			<point x="237" y="297" type="line"/>
			<point x="237" y="115" type="line"/>
			<point x="64" y="115" type="line"/>
		</contour>
	</outline>
</glyph>
<glyph name="OE" format="2">
	<unicode hex="0152"/>
	<advance width="600"/>
	<outline>
		<contour>
			<point x="179" y="-13" type="curve" smooth="yes"/>
			<point x="231" y="-13"/>
			<point x="268" y="20"/>
			<point x="294" y="96" type="curve"/>
			<point x="295" y="0" type="line"/>
			<point x="576" y="0" type="line"/>
			<point x="576" y="119" type="line"/>
			<point x="421" y="119" type="line"/>
			<point x="421" y="283" type="line"/>
			<point x="545" y="283" type="line"/>
			<point x="545" y="401" type="line"/>
			<point x="421" y="401" type="line"/>
			<point x="421" y="566" type="line"/>
			<point x="573" y="566" type="line"/>
			<point x="573" y="684" type="line"/>
			<point x="260" y="684" type="line" smooth="yes"/>
			<point x="95" y="684"/>
			<point x="28" y="554"/>
			<point x="28" y="322" type="curve" smooth="yes"/>
			<point x="28" y="308" type="line" smooth="yes"/>
			<point x="28" y="93"/>
			<point x="74" y="-13"/>
		</contour>
		<contour>
			<point x="231" y="110" type="curve" smooth="yes"/>
			<point x="180" y="110"/>
			<point x="161" y="162"/>
			<point x="161" y="312" type="curve" smooth="yes"/>
			<point x="161" y="319" type="line" smooth="yes"/>
			<point x="161" y="475"/>
			<point x="178" y="566"/>
			<point x="266" y="566" type="curve" smooth="yes"/>
			<point x="291" y="566" type="line"/>
			<point x="291" y="214" type="line" smooth="yes"/>
			<point x="291" y="146"/>
			<point x="271" y="110"/>
		</contour>
	</outline>
</glyph>
<glyph name="scedilla" format="2">
	<unicode hex="015F"/>
	<advance width="600"/>
	<outline>
		<contour>
			<point x="280" y="-230" type="curve" smooth="yes"/>
			<point x="361" y="-230"/>
			<point x="408" y="-192"/>
			<point x="408" y="-125" type="curve" smooth="yes"/>
			<point x="408" y="-78"/>
			<point x="378" y="-47"/>
			<point x="318" y="-44" type="curve"/>
			<point x="334" y="-12" type="line"/>
			<point x="462" y="-1"/>
			<point x="526" y="67"/>
			<point x="526" y="169" type="curve" smooth="yes"/>
			<point x="526" y="283"/>
			<point x="434" y="307"/>
			<point x="315" y="327" type="curve" smooth="yes"/>
			<point x="251" y="338"/>
			<point x="215" y="346"/>
			<point x="215" y="383" type="curve" smooth="yes"/>
			<point x="215" y="414"/>
			<point x="241" y="432"/>
			<point x="298" y="432" type="curve" smooth="yes"/>
			<point x="373" y="432"/>
			<point x="456" y="409"/>
			<point x="516" y="373" type="curve"/>
			<point x="516" y="490" type="line"/>
			<point x="461" y="518"/>
			<point x="392" y="537"/>
			<point x="298" y="537" type="curve" smooth="yes"/>
			<point x="166" y="537"/>
			<point x="74" y="475"/>
			<point x="74" y="362" type="curve" smooth="yes"/>
			<point x="74" y="246"/>
			<point x="151" y="218"/>
			<point x="285" y="198" type="curve" smooth="yes"/>
			<point x="352" y="188"/>
			<point x="385" y="180"/>
			<point x="385" y="145" type="curve" smooth="yes"/>
			<point x="385" y="111"/>
			<point x="356" y="93"/>
			<point x="299" y="93" type="curve" smooth="yes"/>
			<point x="232" y="93"/>
			<point x="145" y="113"/>
			<point x="84" y="153" type="curve"/>
			<point x="84" y="39" type="line"/>
			<point x="124" y="13"/>
			<point x="192" y="-7"/>
			<point x="260" y="-13" type="curve"/>
			<point x="224" y="-94" type="line"/>
			<point x="231" y="-92"/>
			<point x="245" y="-91"/>
			<point x="257" y="-91" type="curve" smooth="yes"/>
			<point x="291" y="-91"/>
			<point x="313" y="-99"/>
			<point x="313" y="-125" type="curve" smooth="yes"/>
			<point x="313" y="-149"/>
			<point x="295" y="-160"/>
			<point x="258" y="-160" type="curve" smooth="yes"/>
			<point x="239" y="-160"/>
			<point x="215" y="-156"/>
			<point x="190" y="-145" type="curve"/>
			<point x="190" y="-212" type="line"/>
			<point x="210" y="-222"/>
			<point x="246" y="-230"/>
		</contour>
	</outline>
</glyph>
<glyph name="Uogonek" format="2">
	<unicode hex="0172"/>
	<advance width="600"/>
	<outline>
		<contour>
			<point x="332" y="-203" type="curve" smooth="yes"/>
			<point x="365" y="-203"/>
			<point x="391" y="-198"/>
			<point x="407" y="-192" type="curve"/>
			<point x="407" y="-103" type="line"/>
			<point x="402" y="-105"/>
			<point x="390" y="-106"/>
			<point x="375" y="-106" type="curve" smooth="yes"/>
			<point x="346" y="-106"/>
			<point x="324" y="-96"/>
			<point x="324" y="-68" type="curve" smooth="yes"/>
			<point x="324" y="-41"/>
			<point x="344" y="-16"/>
			<point x="398" y="0" type="curve"/>
			<point x="398" y="0" type="line"/>
			<point x="496" y="30"/>
			<point x="545" y="110"/>
			<point x="545" y="237" type="curve" smooth="yes"/>
			<point x="545" y="684" type="line"/>
			<point x="396" y="684" type="line"/>
			<point x="396" y="237" type="line" smooth="yes"/>
			<point x="396" y="157"/>
			<point x="364" y="111"/>
			<point x="300" y="111" type="curve" smooth="yes"/>
			<point x="236" y="111"/>
			<point x="204" y="157"/>
			<point x="204" y="237" type="curve" smooth="yes"/>
			<point x="204" y="684" type="line"/>
			<point x="55" y="684" type="line"/>
			<point x="55" y="237" type="line" smooth="yes"/>
			<point x="55" y="77"/>
			<point x="126" y="-7"/>
			<point x="275" y="-14" type="curve"/>
			<point x="232" y="-37"/>
			<point x="208" y="-72"/>
			<point x="208" y="-112" type="curve" smooth="yes"/>
			<point x="208" y="-171"/>
			<point x="248" y="-203"/>
		</contour>
	</outline>
</glyph>
<glyph name="circumflex" format="2">
	<unicode hex="02C6"/>
	<advance width="600"/>
	<outline>
		<contour>
			<point x="110" y="600" type="line"/>
			<point x="237" y="600" type="line"/>
			<point x="299" y="690" type="line"/>
			<point x="360" y="600" type="line"/>
			<point x="490" y="600" type="line"/>
			<point x="379" y="750" type="line"/>
			<point x="221" y="750" type="line"/>
		</contour>
	</outline>
	<anchor name="_top" x="300" y="523"/>
</glyph>
<glyph name="caron" format="2">
	<unicode hex="02C7"/>
	<advance width="600"/>
	<outline>
		<contour>
			<point x="490" y="750" type="line"/>
			<point x="362" y="750" type="line"/>
			<point x="301" y="660" type="line"/>
			<point x="239" y="750" type="line"/>
			<point x="110" y="750" type="line"/>
			<point x="222" y="600" type="line"/>
			<point x="380" y="600" type="line"/>
		</contour>
	</outline>
	<anchor name="_top" x="302" y="523"/>
</glyph>
<glyph name="ring" format="2">
	<unicode hex="02DA"/>
	<advance width="600"/>
	<outline>
		<contour>
			<point x="300" y="589" type="curve" smooth="yes"/>
			<point x="384" y="589"/>
			<point x="437" y="631"/>
			<point x="437" y="715" type="curve" smooth="yes"/>
			<point x="437" y="799"/>
			<point x="383" y="840"/>
			<point x="301" y="840" type="curve" smooth="yes"/>
			<point x="219" y="840"/>
			<point x="163" y="800"/>
			<point x="163" y="714" type="curve" smooth="yes"/>
			<point x="163" y="629"/>
			<point x="216" y="589"/>
		</contour>
		<contour>
			<point x="300" y="653" type="curve" smooth="yes"/>
			<point x="260" y="653"/>
			<point x="239" y="675"/>
			<point x="239" y="714" type="curve" smooth="yes"/>
			<point x="239" y="754"/>
			<point x="261" y="776"/>
			<point x="301" y="776" type="curve" smooth="yes"/>
			<point x="340" y="776"/>
			<point x="361" y="754"/>
			<point x="361" y="714" type="curve" smooth="yes"/>
			<point x="361" y="675"/>
			<point x="339" y="653"/>
		</contour>
	</outline>
	<anchor name="_top" x="300" y="523"/>
</glyph>
<glyph name="tilde" format="2">
	<unicode hex="02DC"/>
	<advance width="600"/>
	<outline>
		<contour>
			<point x="113" y="606" type="curve"/>
			<point x="211" y="606" type="line"/>
			<point x="211" y="641"/>
			<point x="220" y="661"/>
			<point x="244" y="661" type="curve" smooth="yes"/>
			<point x="282" y="661"/>
			<point x="303" y="602"/>
			<point x="375" y="602" type="curve" smooth="yes"/>
			<point x="437" y="602"/>
			<point x="486" y="638"/>
			<point x="486" y="745" type="curve"/>
			<point x="387" y="745" type="line"/>
			<point x="387" y="710"/>
			<point x="378" y="693"/>
			<point x="356" y="693" type="curve" smooth="yes"/>
			<point x="321" y="693"/>
			<point x="290" y="749"/>
			<point x="222" y="749" type="curve" smooth="yes"/>
			<point x="158" y="749"/>
			<point x="113" y="705"/>
		</contour>
	</outline>
	<anchor name="_top" x="300" y="523"/>
</glyph>
<glyph name="quoteleft" format="2">
	<unicode hex="2018"/>
	<advance width="600"/>
	<outline>
		<contour>
			<point x="355" y="445" type="line"/>
			<point x="400" y="750" type="line"/>
			<point x="304" y="750" type="line"/>
			<point x="188" y="445" type="line"/>
		</contour>
	</outline>
</glyph>
<glyph name="quotesinglbase" format="2">
	<unicode hex="201A"/>
	<advance width="600"/>
	<outline>
		<contour>
			<point x="245" y="158" type="line"/>
			<point x="200" y="-147" type="line"/>
			<point x="296" y="-147" type="line"/>
			<point x="412" y="158" type="line"/>
		</contour>
	</outline>
</glyph>
<glyph name="dagger" format="2">
	<unicode hex="2020"/>
	<advance width="600"/>
	<outline>
		<contour>
			<point x="57" y="570" type="line"/>
			<point x="57" y="439" type="line"/>
			<point x="228" y="439" type="line"/>
			<point x="228" y="-143" type="line"/>
			<point x="371" y="-143" type="line"/>
			<point x="371" y="439" type="line"/>
			<point x="543" y="439" type="line"/>
			<point x="543" y="570" type="line"/>
			<point x="371" y="570" type="line"/>
			<point x="371" y="765" type="line"/>
			<point x="228" y="765" type="line"/>
			<point x="228" y="570" type="line"/>
		</contour>
	</outline>
</glyph>
<glyph name="daggerdbl" format="2">
	<unicode hex="2021"/>
	<advance width="600"/>
	<outline>
		<contour>
			<point x="57" y="221" type="line"/>
			<point x="57" y="95" type="line"/>
			<point x="229" y="95" type="line"/>
			<point x="229" y="-143" type="line"/>
			<point x="372" y="-143" type="line"/>
			<point x="372" y="95" type="line"/>
			<point x="543" y="95" type="line"/>
			<point x="543" y="221" type="line"/>
			<point x="372" y="221" type="line"/>
			<point x="372" y="462" type="line"/>
			<point x="543" y="462" type="line"/>
			<point x="543" y="588" type="line"/>
			<point x="372" y="588" type="line"/>
			<point x="372" y="765" type="line"/>
			<point x="229" y="765" type="line"/>
			<point x="229" y="588" type="line"/>
			<point x="57" y="588" type="line"/>
			<point x="57" y="462" type="line"/>
			<point x="229" y="462" type="line"/>
			<point x="229" y="221" type="line"/>
		</contour>
	</outline>
</glyph>
<glyph name="bullet" format="2">
	<unicode hex="2022"/>
	<advance width="600"/>
	<outline>
		<contour>
			<point x="300" y="132" type="curve" smooth="yes"/>
			<point x="396" y="132"/>
			<point x="447" y="175"/>
			<point x="447" y="287" type="curve" smooth="yes"/>
			<point x="447" y="398"/>
			<point x="396" y="441"/>
			<point x="300" y="441" type="curve" smooth="yes"/>
			<point x="203" y="441"/>
			<point x="153" y="398"/>
			<point x="153" y="287" type="curve" smooth="yes"/>
			<point x="153" y="175"/>
			<point x="203" y="132"/>
		</contour>
	</outline>
</glyph>
<glyph name="ellipsis" format="2">
	<unicode hex="2026"/>
	<advance width="600"/>
	<outline>
		<contour>
			<point x="105" y="-12" type="curve" smooth="yes"/>
			<point x="149" y="-12"/>
			<point x="173" y="11"/>
			<point x="173" y="78" type="curve" smooth="yes"/>
			<point x="173" y="146"/>
			<point x="149" y="168"/>
			<point x="105" y="168" type="curve" smooth="yes"/>
			<point x="59" y="168"/>
			<point x="35" y="146"/>
			<point x="35" y="78" type="curve" smooth="yes"/>
			<point x="35" y="11"/>
			<point x="59" y="-12"/>
		</contour>
		<contour>
			<point x="299" y="-12" type="curve" smooth="yes"/>
			<point x="345" y="-12"/>
			<point x="369" y="13"/>
			<point x="369" y="78" type="curve" smooth="yes"/>
			<point x="369" y="144"/>
			<point x="345" y="168"/>
			<point x="299" y="168" type="curve" smooth="yes"/>
			<point x="254" y="168"/>
			<point x="231" y="144"/>
			<point x="231" y="78" type="curve" smooth="yes"/>
			<point x="231" y="13"/>
			<point x="254" y="-12"/>
		</contour>
		<contour>
			<point x="496" y="-12" type="curve" smooth="yes"/>
			<point x="540" y="-12"/>
			<point x="565" y="13"/>
			<point x="565" y="78" type="curve" smooth="yes"/>
			<point x="565" y="144"/>
			<point x="540" y="168"/>
			<point x="496" y="168" type="curve" smooth="yes"/>
			<point x="451" y="168"/>
			<point x="426" y="144"/>
			<point x="426" y="78" type="curve" smooth="yes"/>
			<point x="426" y="13"/>
			<point x="451" y="-12"/>
		</contour>
	</outline>
</glyph>
<glyph name="guilsinglright" format="2">
	<unicode hex="203A"/>
	<advance width="600"/>
	<outline>
		<contour>
			<point x="115" y="77" type="line"/>
			<point x="295" y="77" type="line"/>
			<point x="497" y="287" type="line"/>
			<point x="293" y="497" type="line"/>
			<point x="115" y="497" type="line"/>
			<point x="318" y="290" type="line"/>
		</contour>
	</outline>
</glyph>
<glyph name="Euro" format="2">
	<unicode hex="20AC"/>
	<advance width="600"/>
	<outline>
		<contour>
			<point x="21" y="228" type="line"/>
			<point x="101" y="228" type="line"/>
			<point x="132" y="70"/>
			<point x="234" y="-12"/>
			<point x="391" y="-12" type="curve" smooth="yes"/>
			<point x="465" y="-12"/>
			<point x="520" y="3"/>
			<point x="559" y="28" type="curve"/>
			<point x="559" y="148" type="line"/>
			<point x="521" y="126"/>
			<point x="474" y="115"/>
			<point x="425" y="115" type="curve" smooth="yes"/>
			<point x="342" y="115"/>
			<point x="285" y="150"/>
			<point x="259" y="228" type="curve"/>
			<point x="468" y="228" type="line"/>
			<point x="468" y="313" type="line"/>
			<point x="245" y="313" type="line"/>
			<point x="244" y="322"/>
			<point x="244" y="331"/>
			<point x="244" y="341" type="curve" smooth="yes"/>
			<point x="244" y="348" type="line" smooth="yes"/>
			<point x="244" y="357"/>
			<point x="244" y="365"/>
			<point x="245" y="373" type="curve"/>
			<point x="468" y="373" type="line"/>
			<point x="468" y="459" type="line"/>
			<point x="260" y="459" type="line"/>
			<point x="287" y="536"/>
			<point x="347" y="573"/>
			<point x="431" y="572" type="curve" smooth="yes"/>
			<point x="482" y="572"/>
			<point x="525" y="560"/>
			<point x="558" y="541" type="curve"/>
			<point x="558" y="664" type="line"/>
			<point x="521" y="682"/>
			<point x="463" y="695"/>
			<point x="408" y="695" type="curve" smooth="yes"/>
			<point x="248" y="695"/>
			<point x="136" y="612"/>
			<point x="102" y="459" type="curve"/>
			<point x="21" y="459" type="line"/>
			<point x="21" y="373" type="line"/>
			<point x="91" y="373" type="line"/>
			<point x="91" y="313" type="line"/>
			<point x="21" y="313" type="line"/>
		</contour>
	</outline>
</glyph>
<glyph name="ohm" format="2">
	<unicode hex="2126"/>
	<advance width="600"/>
	<outline>
		<contour>
			<point x="37" y="0" type="line"/>
			<point x="278" y="0" type="line"/>
			<point x="278" y="124" type="line"/>
			<point x="219" y="199"/>
			<point x="192" y="266"/>
			<point x="192" y="389" type="curve" smooth="yes"/>
			<point x="192" y="396" type="line" smooth="yes"/>
			<point x="192" y="533"/>
			<point x="234" y="577"/>
			<point x="301" y="577" type="curve" smooth="yes"/>
			<point x="367" y="577"/>
			<point x="407" y="533"/>
			<point x="407" y="396" type="curve" smooth="yes"/>
			<point x="407" y="389" type="line" smooth="yes"/>
			<point x="407" y="267"/>
			<point x="379" y="198"/>
			<point x="321" y="124" type="curve"/>
			<point x="321" y="0" type="line"/>
			<point x="562" y="0" type="line"/>
			<point x="562" y="122" type="line"/>
			<point x="462" y="122" type="line"/>
			<point x="518" y="186"/>
			<point x="559" y="276"/>
			<point x="559" y="390" type="curve" smooth="yes"/>
			<point x="559" y="404" type="line" smooth="yes"/>
			<point x="559" y="597"/>
			<point x="466" y="698"/>
			<point x="301" y="698" type="curve" smooth="yes"/>
			<point x="137" y="698"/>
			<point x="41" y="598"/>
			<point x="41" y="404" type="curve" smooth="yes"/>
			<point x="41" y="390" type="line" smooth="yes"/>
			<point x="41" y="273"/>
			<point x="75" y="188"/>
			<point x="135" y="122" type="curve"/>
			<point x="37" y="122" type="line"/>
		</contour>
	</outline>
</glyph>
<glyph name="arrowleft" format="2">
	<unicode hex="2190"/>
	<advance width="600"/>
	<outline>
		<contour>
			<point x="384" y="122" type="line"/>
			<point x="214" y="289" type="line"/>
			<point x="570" y="289" type="line"/>
			<point x="570" y="407" type="line"/>
			<point x="214" y="407" type="line"/>
			<point x="383" y="573" type="line"/>
			<point x="236" y="573" type="line"/>
			<point x="11" y="348" type="line"/>
			<point x="237" y="122" type="line"/>
		</contour>
	</outline>
</glyph>
<glyph name="uni2196" format="2">
	<unicode hex="2196"/>
	<advance width="600"/>
	<outline>
		<contour>
			<point x="504" y="65" type="line"/>
			<point x="587" y="149" type="line"/>
			<point x="227" y="507" type="line"/>
			<point x="473" y="506" type="line"/>
			<point x="369" y="610" type="line"/>
			<point x="43" y="610" type="line"/>
			<point x="43" y="281" type="line"/>
			<point x="145" y="178" type="line"/>
			<point x="144" y="424" type="line"/>
		</contour>
	</outline>
</glyph>
<glyph name="uni2197" format="2">
	<unicode hex="2197"/>
	<advance width="600"/>
	<outline>
		<contour>
			<point x="96" y="65" type="line"/>
			<point x="455" y="425" type="line"/>
			<point x="453" y="180" type="line"/>
			<point x="557" y="283" type="line"/>
			<point x="557" y="610" type="line"/>
			<point x="228" y="610" type="line"/>
			<point x="126" y="507" type="line"/>
			<point x="373" y="510" type="line"/>
			<point x="13" y="149" type="line"/>
		</contour>
	</outline>
</glyph>
<glyph name="uni2198" format="2">
	<unicode hex="2198"/>
	<advance width="600"/>
	<outline>
		<contour>
			<point x="231" y="65" type="line"/>
			<point x="557" y="65" type="line"/>
			<point x="557" y="394" type="line"/>
			<point x="455" y="497" type="line"/>
			<point x="456" y="251" type="line"/>
			<point x="96" y="610" type="line"/>
			<point x="13" y="526" type="line"/>
			<point x="373" y="168" type="line"/>
			<point x="127" y="169" type="line"/>
		</contour>
	</outline>
</glyph>
<glyph name="partialdiff" format="2">
	<unicode hex="2202"/>
	<advance width="600"/>
	<outline>
		<contour>
			<point x="292" y="-13" type="curve" smooth="yes"/>
			<point x="445" y="-13"/>
			<point x="554" y="89"/>
			<point x="554" y="292" type="curve" smooth="yes"/>
			<point x="554" y="306" type="line" smooth="yes"/>
			<point x="554" y="495"/>
			<point x="466" y="606"/>
			<point x="359" y="684" type="curve"/>
			<point x="142" y="684" type="line"/>
			<point x="274" y="604"/>
			<point x="349" y="533"/>
			<point x="388" y="419" type="curve"/>
			<point x="344" y="477"/>
			<point x="297" y="506"/>
			<point x="231" y="506" type="curve" smooth="yes"/>
			<point x="117" y="506"/>
			<point x="46" y="400"/>
			<point x="46" y="262" type="curve" smooth="yes"/>
			<point x="46" y="248" type="line" smooth="yes"/>
			<point x="46" y="73"/>
			<point x="141" y="-13"/>
		</contour>
		<contour>
			<point x="299" y="101" type="curve" smooth="yes"/>
			<point x="234" y="101"/>
			<point x="196" y="147"/>
			<point x="196" y="249" type="curve" smooth="yes"/>
			<point x="196" y="256" type="line" smooth="yes"/>
			<point x="196" y="363"/>
			<point x="238" y="406"/>
			<point x="301" y="406" type="curve" smooth="yes"/>
			<point x="362" y="406"/>
			<point x="404" y="366"/>
			<point x="404" y="260" type="curve" smooth="yes"/>
			<point x="404" y="253" type="line" smooth="yes"/>
			<point x="404" y="148"/>
			<point x="364" y="101"/>
		</contour>
	</outline>
</glyph>
<glyph name="product" format="2">
	<unicode hex="220F"/>
	<advance width="600"/>
	<outline>
		<contour>
			<point x="62" y="0" type="line"/>
			<point x="205" y="0" type="line"/>
			<point x="205" y="561" type="line"/>
			<point x="395" y="561" type="line"/>
			<point x="395" y="0" type="line"/>
			<point x="538" y="0" type="line"/>
			<point x="538" y="684" type="line"/>
			<point x="62" y="684" type="line"/>
		</contour>
	</outline>
</glyph>
<glyph name="minus" format="2">
	<unicode hex="2212"/>
	<advance width="600"/>
	<outline>
		<contour>
			<point x="65" y="234" type="line"/>
			<point x="535" y="234" type="line"/>
			<point x="535" y="356" type="line"/>
			<point x="65" y="356" type="line"/>
		</contour>
	</outline>
</glyph>
<glyph name="infinity" format="2">
	<unicode hex="221E"/>
	<advance width="600"/>
	<outline>
		<contour>
			<point x="167" y="592" type="curve" smooth="yes"/>
			<point x="67" y="592"/>
			<point x="20" y="507"/>
			<point x="20" y="334" type="curve" smooth="yes"/>
			<point x="20" y="162"/>
			<point x="66" y="75"/>
			<point x="166" y="75" type="curve" smooth="yes"/>
			<point x="243" y="75"/>
			<point x="284" y="136"/>
			<point x="300" y="206" type="curve"/>
			<point x="316" y="137"/>
			<point x="354" y="74"/>
			<point x="434" y="74" type="curve" smooth="yes"/>
			<point x="535" y="74"/>
			<point x="580" y="160"/>
			<point x="580" y="332" type="curve" smooth="yes"/>
			<point x="580" y="503"/>
			<point x="535" y="591"/>
			<point x="434" y="591" type="curve" smooth="yes"/>
			<point x="360" y="591"/>
			<point x="318" y="537"/>
			<point x="301" y="463" type="curve"/>
			<point x="285" y="530"/>
			<point x="244" y="592"/>
		</contour>
		<contour>
			<point x="413" y="186" type="curve" smooth="yes"/>
			<point x="374" y="186"/>
			<point x="357" y="225"/>
			<point x="357" y="333" type="curve" smooth="yes"/>
			<point x="357" y="441"/>
			<point x="374" y="481"/>
			<point x="413" y="481" type="curve" smooth="yes"/>
			<point x="454" y="481"/>
			<point x="472" y="441"/>
			<point x="472" y="333" type="curve" smooth="yes"/>
			<point x="472" y="224"/>
			<point x="454" y="186"/>
		</contour>
		<contour>
			<point x="187" y="187" type="curve" smooth="yes"/>
			<point x="146" y="187"/>
			<point x="128" y="228"/>
			<point x="128" y="333" type="curve" smooth="yes"/>
			<point x="128" y="441"/>
			<point x="147" y="480"/>
			<point x="187" y="480" type="curve" smooth="yes"/>
			<point x="226" y="480"/>
			<point x="244" y="441"/>
			<point x="244" y="333" type="curve" smooth="yes"/>
			<point x="244" y="227"/>
			<point x="226" y="187"/>
		</contour>
	</outline>
</glyph>
<glyph name="approxequal" format="2">
	<unicode hex="2248"/>
	<advance width="600"/>
	<outline>
		<contour>
			<point x="171" y="373" type="curve" smooth="yes"/>
			<point x="241" y="373"/>
			<point x="332" y="317"/>
			<point x="430" y="317" type="curve" smooth="yes"/>
			<point x="474" y="317"/>
			<point x="518" y="333"/>
			<point x="535" y="358" type="curve"/>
			<point x="535" y="489" type="line"/>
			<point x="504" y="449"/>
			<point x="465" y="439"/>
			<point x="422" y="441" type="curve" smooth="yes"/>
			<point x="363" y="443"/>
			<point x="253" y="497"/>
			<point x="170" y="497" type="curve" smooth="yes"/>
			<point x="128" y="497"/>
			<point x="82" y="482"/>
			<point x="65" y="457" type="curve"/>
			<point x="65" y="325" type="line"/>
			<point x="90" y="358"/>
			<point x="132" y="373"/>
		</contour>
		<contour>
			<point x="171" y="145" type="curve" smooth="yes"/>
			<point x="241" y="145"/>
			<point x="332" y="89"/>
			<point x="430" y="89" type="curve" smooth="yes"/>
			<point x="475" y="89"/>
			<point x="518" y="105"/>
			<point x="535" y="130" type="curve"/>
			<point x="535" y="261" type="line"/>
			<point x="505" y="225"/>
			<point x="468" y="211"/>
			<point x="422" y="213" type="curve" smooth="yes"/>
			<point x="370" y="215"/>
			<point x="251" y="269"/>
			<point x="167" y="269" type="curve" smooth="yes"/>
			<point x="125" y="269"/>
			<point x="82" y="253"/>
			<point x="65" y="229" type="curve"/>
			<point x="65" y="97" type="line"/>
			<point x="90" y="130"/>
			<point x="134" y="145"/>
		</contour>
	</outline>
</glyph>
<glyph name="greaterequal" format="2">
	<unicode hex="2265"/>
	<advance width="600"/>
	<outline>
		<contour>
			<point x="65" y="163" type="line"/>
			<point x="535" y="336" type="line"/>
			<point x="535" y="498" type="line"/>
			<point x="65" y="674" type="line"/>
			<point x="65" y="539" type="line"/>
			<point x="419" y="419" type="line"/>
			<point x="65" y="296" type="line"/>
		</contour>
		<contour>
			<point x="65" y="0" type="line"/>
			<point x="535" y="0" type="line"/>
			<point x="535" y="122" type="line"/>
			<point x="65" y="122" type="line"/>
		</contour>
	</outline>
</glyph>
<glyph name="anglebracketleft" format="2">
	<unicode hex="3008"/>
	<advance width="600"/>
	<outline>
		<contour>
			<point x="388" y="-163" type="line"/>
			<point x="545" y="-163" type="line"/>
			<point x="271" y="318" type="line"/>
			<point x="551" y="792" type="line"/>
			<point x="393" y="792" type="line"/>
			<point x="116" y="316" type="line"/>
		</contour>
	</outline>
</glyph>
<glyph name="anglebracketright" format="2">
	<unicode hex="3009"/>
	<advance width="600"/>
	<outline>
		<contour>
			<point x="49" y="-163" type="line"/>
			<point x="207" y="-163" type="line"/>
			<point x="484" y="314" type="line"/>
			<point x="212" y="792" type="line"/>
			<point x="55" y="792" type="line"/>
			<point x="329" y="315" type="line"/>
		</contour>
	</outline>
</glyph>
<glyph name="commaaccent" format="2">
	<unicode hex="F6C3"/>
	<advance width="600"/>
	<outline>
		<contour>
			<point x="232" y="-283" type="curve"/>
			<point x="321" y="-283" type="line"/>
			<point x="345" y="-260"/>
			<point x="382" y="-202"/>
			<point x="382" y="-135" type="curve" smooth="yes"/>
			<point x="382" y="-81"/>
			<point x="361" y="-53"/>
			<point x="299" y="-53" type="curve" smooth="yes"/>
			<point x="246" y="-53"/>
			<point x="217" y="-73"/>
			<point x="217" y="-125" type="curve" smooth="yes"/>
			<point x="217" y="-166"/>
			<point x="234" y="-185"/>
			<point x="276" y="-189" type="curve"/>
			<point x="267" y="-223"/>
			<point x="252" y="-254"/>
		</contour>
	</outline>
	<anchor name="_bottom" x="299" y="0"/>
	<anchor name="anchor" x="296" y="0"/>
</glyph>
<glyph name="Anocross" format="2">
	<advance width="600"/>
	<outline>
		<contour>
			<point x="10" y="0" type="line"/>
			<point x="163" y="0" type="line"/>
			<point x="299" y="579" type="line"/>
			<point x="436" y="0" type="line"/>
			<point x="590" y="0" type="line"/>
			<point x="406" y="686" type="line"/>
			<point x="194" y="686" type="line"/>
		</contour>
	</outline>
	<anchor name="ogonek" x="589" y="0"/>
	<anchor name="bottom" x="340" y="0"/>
	<anchor name="top" x="300" y="684"/>
</glyph>
<glyph name="Lslashcomb" format="2">
	<advance width="600"/>
	<outline>
		<contour>
			<point x="19" y="402" type="line"/>
			<point x="19" y="300" type="line"/>
			<point x="414" y="452" type="line"/>
			<point x="414" y="554" type="line"/>
		</contour>
	</outline>
	<anchor name="_center" x="172" y="406"/>
</glyph>
<glyph name="acute.cap" format="2">
	<advance width="600"/>
	<outline>
		<contour>
			<point x="194" y="744" type="line"/>
			<point x="304" y="744" type="line"/>
			<point x="405" y="884" type="line"/>
			<point x="247" y="884" type="line"/>
		</contour>
	</outline>
	<anchor name="_top" x="249" y="684"/>
</glyph>
<glyph name="ampersand_ampersand_ampersand.rem" format="2">
	<advance width="600"/>
	<outline>
		<contour>
			<point x="-835" y="-14" type="curve" smooth="yes"/>
			<point x="-746" y="-14"/>
			<point x="-666" y="14"/>
			<point x="-607" y="71" type="curve"/>
			<point x="-570" y="17"/>
			<point x="-503" y="-14"/>
			<point x="-414" y="-14" type="curve" smooth="yes"/>
			<point x="-323" y="-14"/>
			<point x="-242" y="15"/>
			<point x="-181" y="74" type="curve"/>
			<point x="-146" y="19"/>
			<point x="-80" y="-14"/>
			<point x="9" y="-14" type="curve" smooth="yes"/>
			<point x="99" y="-14"/>
			<point x="172" y="16"/>
			<point x="229" y="67" type="curve"/>
			<point x="294" y="0" type="line"/>
			<point x="459" y="0" type="line"/>
			<point x="306" y="162" type="line"/>
			<point x="347" y="230"/>
			<point x="374" y="314"/>
			<point x="387" y="404" type="curve"/>
			<point x="265" y="404" type="line"/>
			<point x="257" y="347"/>
			<point x="243" y="295"/>
			<point x="223" y="249" type="curve"/>
			<point x="87" y="394" type="line" smooth="yes"/>
			<point x="51" y="432"/>
			<point x="33" y="463"/>
			<point x="33" y="502" type="curve" smooth="yes"/>
			<point x="33" y="550"/>
			<point x="67" y="580"/>
			<point x="126" y="580" type="curve" smooth="yes"/>
			<point x="174" y="580"/>
			<point x="218" y="560"/>
			<point x="252" y="541" type="curve"/>
			<point x="252" y="666" type="line"/>
			<point x="221" y="682"/>
			<point x="170" y="698"/>
			<point x="114" y="698" type="curve" smooth="yes"/>
			<point x="-32" y="698"/>
			<point x="-103" y="612"/>
			<point x="-103" y="508" type="curve" smooth="yes"/>
			<point x="-103" y="468"/>
			<point x="-94" y="435"/>
			<point x="-79" y="405" type="curve"/>
			<point x="-137" y="371"/>
			<point x="-181" y="321"/>
			<point x="-200" y="256" type="curve"/>
			<point x="-338" y="394" type="line" smooth="yes"/>
			<point x="-376" y="432"/>
			<point x="-392" y="463"/>
			<point x="-392" y="502" type="curve" smooth="yes"/>
			<point x="-392" y="550"/>
			<point x="-358" y="580"/>
			<point x="-298" y="580" type="curve" smooth="yes"/>
			<point x="-252" y="580"/>
			<point x="-209" y="561"/>
			<point x="-176" y="543" type="curve"/>
			<point x="-176" y="667" type="line"/>
			<point x="-206" y="683"/>
			<point x="-254" y="698"/>
			<point x="-310" y="698" type="curve" smooth="yes"/>
			<point x="-457" y="698"/>
			<point x="-528" y="612"/>
			<point x="-528" y="508" type="curve" smooth="yes"/>
			<point x="-528" y="468"/>
			<point x="-521" y="434"/>
			<point x="-505" y="403" type="curve"/>
			<point x="-563" y="371"/>
			<point x="-607" y="324"/>
			<point x="-627" y="261" type="curve"/>
			<point x="-760" y="394" type="line" smooth="yes"/>
			<point x="-797" y="431"/>
			<point x="-815" y="463"/>
			<point x="-815" y="502" type="curve" smooth="yes"/>
			<point x="-815" y="550"/>
			<point x="-780" y="580"/>
			<point x="-721" y="580" type="curve" smooth="yes"/>
			<point x="-674" y="580"/>
			<point x="-632" y="561"/>
			<point x="-599" y="543" type="curve"/>
			<point x="-599" y="667" type="line"/>
			<point x="-629" y="683"/>
			<point x="-677" y="698"/>
			<point x="-733" y="698" type="curve" smooth="yes"/>
			<point x="-879" y="698"/>
			<point x="-951" y="612"/>
			<point x="-951" y="508" type="curve" smooth="yes"/>
			<point x="-951" y="468"/>
			<point x="-943" y="433"/>
			<point x="-927" y="402" type="curve"/>
			<point x="-1001" y="358"/>
			<point x="-1052" y="285"/>
			<point x="-1052" y="183" type="curve" smooth="yes"/>
			<point x="-1052" y="61"/>
			<point x="-969" y="-14"/>
		</contour>
		<contour>
			<point x="-83" y="202" type="curve" smooth="yes"/>
			<point x="-83" y="254"/>
			<point x="-53" y="295"/>
			<point x="-14" y="319" type="curve"/>
			<point x="153" y="145" type="line"/>
			<point x="121" y="115"/>
			<point x="81" y="98"/>
			<point x="34" y="98" type="curve" smooth="yes"/>
			<point x="-38" y="98"/>
			<point x="-83" y="140"/>
		</contour>
		<contour>
			<point x="-504" y="203" type="curve" smooth="yes"/>
			<point x="-504" y="257"/>
			<point x="-476" y="294"/>
			<point x="-438" y="317" type="curve"/>
			<point x="-263" y="153" type="line"/>
			<point x="-296" y="118"/>
			<point x="-340" y="98"/>
			<point x="-390" y="98" type="curve" smooth="yes"/>
			<point x="-460" y="98"/>
			<point x="-504" y="138"/>
		</contour>
		<contour>
			<point x="-924" y="203" type="curve" smooth="yes"/>
			<point x="-924" y="257"/>
			<point x="-896" y="294"/>
			<point x="-859" y="317" type="curve"/>
			<point x="-684" y="153" type="line"/>
			<point x="-717" y="118"/>
			<point x="-761" y="98"/>
			<point x="-811" y="98" type="curve" smooth="yes"/>
			<point x="-880" y="98"/>
			<point x="-924" y="138"/>
		</contour>
	</outline>
</glyph>
<glyph name="asciicircum_equal.cLig" format="2">
	<advance width="600"/>
	<outline>
		<contour>
			<point x="-463" y="337" type="line"/>
			<point x="-336" y="337" type="line"/>
			<point x="-222" y="578" type="line"/>
			<point x="-109" y="337" type="line"/>
			<point x="19" y="337" type="line"/>
			<point x="16" y="343" type="line"/>
			<point x="429" y="343" type="line"/>
			<point x="429" y="465" type="line"/>
			<point x="-41" y="465" type="line"/>
			<point x="-41" y="457" type="line"/>
			<point x="-157" y="688" type="line"/>
			<point x="-290" y="688" type="line"/>
		</contour>
		<contour>
			<point x="-41" y="120" type="line"/>
			<point x="429" y="120" type="line"/>
			<point x="429" y="242" type="line"/>
			<point x="-41" y="242" type="line"/>
		</contour>
	</outline>
</glyph>
<glyph name="asciitilde_asciitilde.cLig" format="2">
	<advance width="600"/>
	<outline>
		<contour>
			<point x="-103" y="188" type="curve"/>
			<point x="18" y="188"/>
			<point x="22" y="310"/>
			<point x="99" y="310" type="curve"/>
			<point x="170" y="310"/>
			<point x="186" y="188"/>
			<point x="312" y="188" type="curve"/>
			<point x="414" y="188"/>
			<point x="481" y="271"/>
			<point x="500" y="435" type="curve"/>
			<point x="385" y="435" type="line"/>
			<point x="372" y="364"/>
			<point x="351" y="321"/>
			<point x="305" y="321" type="curve"/>
			<point x="231" y="321"/>
			<point x="229" y="441"/>
			<point x="100" y="441" type="curve"/>
			<point x="-32" y="441"/>
			<point x="-29" y="322"/>
			<point x="-102" y="321" type="curve"/>
			<point x="-168" y="322"/>
			<point x="-183" y="441"/>
			<point x="-303" y="441" type="curve"/>
			<point x="-414" y="441"/>
			<point x="-481" y="360"/>
			<point x="-500" y="195" type="curve"/>
			<point x="-385" y="195" type="line"/>
			<point x="-373" y="268"/>
			<point x="-352" y="310"/>
			<point x="-301" y="310" type="curve"/>
			<point x="-232" y="310"/>
			<point x="-218" y="188"/>
		</contour>
	</outline>
</glyph>
<glyph name="asciitilde_asciitilde_greater.cLig" format="2">
	<advance width="600"/>
	<outline>
		<contour>
			<point x="77" y="628" type="line"/>
			<point x="301" y="379" type="line"/>
			<point x="-1" y="379" type="line"/>
			<point x="-33" y="424"/>
			<point x="-74" y="443"/>
			<point x="-115" y="443" type="curve" smooth="yes"/>
			<point x="-230" y="443"/>
			<point x="-240" y="318"/>
			<point x="-315" y="318" type="curve" smooth="yes"/>
			<point x="-388" y="318"/>
			<point x="-406" y="441"/>
			<point x="-515" y="441" type="curve" smooth="yes"/>
			<point x="-625" y="441"/>
			<point x="-641" y="317"/>
			<point x="-712" y="317" type="curve"/>
			<point x="-785" y="317"/>
			<point x="-803" y="441"/>
			<point x="-921" y="441" type="curve" smooth="yes"/>
			<point x="-1020" y="441"/>
			<point x="-1096" y="358"/>
			<point x="-1117" y="198" type="curve"/>
			<point x="-1000" y="198" type="line"/>
			<point x="-990" y="262"/>
			<point x="-962" y="305"/>
			<point x="-913" y="305" type="curve" smooth="yes"/>
			<point x="-844" y="305"/>
			<point x="-825" y="184"/>
			<point x="-713" y="184" type="curve"/>
			<point x="-598" y="184"/>
			<point x="-591" y="304"/>
			<point x="-516" y="304" type="curve" smooth="yes"/>
			<point x="-442" y="304"/>
			<point x="-434" y="184"/>
			<point x="-317" y="184" type="curve" smooth="yes"/>
			<point x="-205" y="184"/>
			<point x="-199" y="310"/>
			<point x="-125" y="310" type="curve" smooth="yes"/>
			<point x="-89" y="310"/>
			<point x="-70" y="288"/>
			<point x="-50" y="247" type="curve"/>
			<point x="302" y="247" type="line"/>
			<point x="80" y="-1" type="line"/>
			<point x="249" y="-1" type="line"/>
			<point x="519" y="313" type="line"/>
			<point x="246" y="628" type="line"/>
		</contour>
	</outline>
</glyph>
<glyph name="asciitilde_at.cLig" format="2">
	<advance width="600"/>
	<outline>
		<contour>
			<point x="378" y="-18" type="curve"/>
			<point x="498" y="-18"/>
			<point x="557" y="82"/>
			<point x="557" y="288" type="curve" smooth="yes"/>
			<point x="557" y="302" type="line" smooth="yes"/>
			<point x="557" y="559"/>
			<point x="453" y="698"/>
			<point x="206" y="698" type="curve" smooth="yes"/>
			<point x="-36" y="698"/>
			<point x="-141" y="587"/>
			<point x="-183" y="382" type="curve" smooth="yes"/>
			<point x="-194" y="332"/>
			<point x="-206" y="308"/>
			<point x="-238" y="308" type="curve" smooth="yes"/>
			<point x="-289" y="308"/>
			<point x="-318" y="419"/>
			<point x="-425" y="419" type="curve" smooth="yes"/>
			<point x="-524" y="419"/>
			<point x="-566" y="347"/>
			<point x="-566" y="184" type="curve"/>
			<point x="-455" y="184" type="line"/>
			<point x="-455" y="252"/>
			<point x="-445" y="290"/>
			<point x="-408" y="289" type="curve" smooth="yes"/>
			<point x="-357" y="290"/>
			<point x="-319" y="176"/>
			<point x="-219" y="176" type="curve" smooth="yes"/>
			<point x="-133" y="176"/>
			<point x="-92" y="226"/>
			<point x="-73" y="337" type="curve" smooth="yes"/>
			<point x="-44" y="510"/>
			<point x="34" y="588"/>
			<point x="199" y="588" type="curve" smooth="yes"/>
			<point x="374" y="588"/>
			<point x="438" y="490"/>
			<point x="438" y="320" type="curve" smooth="yes"/>
			<point x="438" y="280" type="line" smooth="yes"/>
			<point x="438" y="116"/>
			<point x="417" y="82"/>
			<point x="387" y="82" type="curve" smooth="yes"/>
			<point x="361" y="82"/>
			<point x="351" y="101"/>
			<point x="351" y="158" type="curve"/>
			<point x="351" y="481" type="line"/>
			<point x="239" y="481" type="line"/>
			<point x="239" y="398" type="line"/>
			<point x="220" y="453"/>
			<point x="189" y="492"/>
			<point x="126" y="492" type="curve" smooth="yes"/>
			<point x="46" y="491"/>
			<point x="-10" y="416"/>
			<point x="-10" y="268" type="curve" smooth="yes"/>
			<point x="-10" y="142"/>
			<point x="36" y="62"/>
			<point x="127" y="61" type="curve" smooth="yes"/>
			<point x="193" y="61"/>
			<point x="225" y="106"/>
			<point x="241" y="165" type="curve"/>
			<point x="241" y="131" type="line" smooth="yes"/>
			<point x="240" y="24"/>
			<point x="299" y="-18"/>
		</contour>
		<contour>
			<point x="170" y="159" type="curve" smooth="yes"/>
			<point x="129" y="159"/>
			<point x="107" y="195"/>
			<point x="107" y="277" type="curve" smooth="yes"/>
			<point x="107" y="358"/>
			<point x="129" y="393"/>
			<point x="172" y="393" type="curve" smooth="yes"/>
			<point x="213" y="393"/>
			<point x="239" y="352"/>
			<point x="239" y="274" type="curve" smooth="yes"/>
			<point x="239" y="189"/>
			<point x="212" y="159"/>
		</contour>
	</outline>
</glyph>
<glyph name="asciitilde_equal.cLig.x" format="2">
	<advance width="600"/>
	<outline>
		<contour>
			<point x="-320" y="307" type="line"/>
			<point x="-279" y="365"/>
			<point x="-218" y="391"/>
			<point x="-156" y="391" type="curve" smooth="yes"/>
			<point x="-51" y="391"/>
			<point x="22" y="303"/>
			<point x="160" y="303" type="curve" smooth="yes"/>
			<point x="231" y="303"/>
			<point x="289" y="332"/>
			<point x="320" y="377" type="curve"/>
			<point x="320" y="512" type="line"/>
			<point x="268" y="444"/>
			<point x="220" y="427"/>
			<point x="153" y="428" type="curve" smooth="yes"/>
			<point x="55" y="430"/>
			<point x="-32" y="516"/>
			<point x="-157" y="516" type="curve" smooth="yes"/>
			<point x="-224" y="516"/>
			<point x="-290" y="488"/>
			<point x="-320" y="443" type="curve"/>
		</contour>
		<contour>
			<point x="-320" y="114" type="line"/>
			<point x="320" y="114" type="line"/>
			<point x="320" y="238" type="line"/>
			<point x="-320" y="238" type="line"/>
		</contour>
	</outline>
</glyph>
<glyph name="asterisk_greater.cLig" format="2">
	<advance width="600"/>
	<outline>
		<contour>
			<point x="51" y="-12" type="line"/>
			<point x="500" y="233" type="line"/>
			<point x="500" y="396" type="line"/>
			<point x="51" y="640" type="line"/>
			<point x="51" y="497" type="line"/>
			<point x="397" y="313" type="line"/>
			<point x="51" y="131" type="line"/>
		</contour>
		<contour>
			<point x="-70" y="138" type="line"/>
			<point x="-2" y="255" type="line"/>
			<point x="-188" y="320" type="line"/>
			<point x="-4" y="384" type="line"/>
			<point x="-71" y="501" type="line"/>
			<point x="-220" y="373" type="line"/>
			<point x="-183" y="566" type="line"/>
			<point x="-319" y="566" type="line"/>
			<point x="-282" y="375" type="line"/>
			<point x="-429" y="502" type="line"/>
			<point x="-497" y="384" type="line"/>
			<point x="-313" y="320" type="line"/>
			<point x="-498" y="256" type="line"/>
			<point x="-431" y="138" type="line"/>
			<point x="-282" y="266" type="line"/>
			<point x="-319" y="74" type="line"/>
			<point x="-183" y="74" type="line"/>
			<point x="-220" y="267" type="line"/>
		</contour>
	</outline>
</glyph>
<glyph name="backslash_backslash_backslash.rem" format="2">
	<advance width="600"/>
	<outline>
		<contour>
			<point x="-699" y="-163" type="line"/>
			<point x="-554" y="-163" type="line"/>
			<point x="-901" y="792" type="line"/>
			<point x="-1046" y="792" type="line"/>
		</contour>
		<contour>
			<point x="-199" y="-163" type="line"/>
			<point x="-54" y="-163" type="line"/>
			<point x="-401" y="792" type="line"/>
			<point x="-546" y="792" type="line"/>
		</contour>
		<contour>
			<point x="301" y="-163" type="line"/>
			<point x="446" y="-163" type="line"/>
			<point x="99" y="792" type="line"/>
			<point x="-46" y="792" type="line"/>
		</contour>
	</outline>
</glyph>
<glyph name="bar_bar_bar.cLig" format="2">
	<advance width="600"/>
	<outline>
		<contour>
			<point x="132" y="792" type="line"/>
			<point x="132" y="-163" type="line"/>
			<point x="268" y="-163" type="line"/>
			<point x="268" y="792" type="line"/>
		</contour>
		<contour>
			<point x="-868" y="792" type="line"/>
			<point x="-868" y="-163" type="line"/>
			<point x="-732" y="-163" type="line"/>
			<point x="-732" y="792" type="line"/>
		</contour>
		<contour>
			<point x="-368" y="792" type="line"/>
			<point x="-368" y="-163" type="line"/>
			<point x="-232" y="-163" type="line"/>
			<point x="-232" y="792" type="line"/>
		</contour>
	</outline>
</glyph>
<glyph name="bar_bar_hyphen.med" format="2">
	<advance width="600"/>
	<outline>
		<contour>
			<point x="121" y="-55" type="line"/>
			<point x="259" y="-55" type="line"/>
			<point x="259" y="248" type="line"/>
			<point x="600" y="248" type="line"/>
			<point x="600" y="380" type="line"/>
			<point x="259" y="380" type="line"/>
			<point x="259" y="684" type="line"/>
			<point x="121" y="684" type="line"/>
		</contour>
		<contour>
			<point x="-600" y="248" type="line"/>
			<point x="-259" y="248" type="line"/>
			<point x="-259" y="-55" type="line"/>
			<point x="-121" y="-55" type="line"/>
			<point x="-121" y="684" type="line"/>
			<point x="-259" y="684" type="line"/>
			<point x="-259" y="380" type="line"/>
			<point x="-600" y="380" type="line"/>
		</contour>
	</outline>
</glyph>
<glyph name="bar_equal.init" format="2">
	<advance width="600"/>
	<outline>
		<contour>
			<point x="121" y="684" type="line"/>
			<point x="121" y="-55" type="line"/>
			<point x="259" y="-55" type="line"/>
			<point x="259" y="141" type="line"/>
			<point x="600" y="141" type="line"/>
			<point x="600" y="264" type="line"/>
			<point x="259" y="264" type="line"/>
			<point x="259" y="365" type="line"/>
			<point x="600" y="365" type="line"/>
			<point x="600" y="488" type="line"/>
			<point x="259" y="488" type="line"/>
			<point x="259" y="684" type="line"/>
		</contour>
	</outline>
</glyph>
<glyph name="bar_equal.rem" format="2">
	<advance width="600"/>
	<outline>
		<contour>
			<point x="-380" y="684" type="line"/>
			<point x="-380" y="-55" type="line"/>
			<point x="-243" y="-55" type="line"/>
			<point x="-243" y="141" type="line"/>
			<point x="440" y="141" type="line"/>
			<point x="440" y="264" type="line"/>
			<point x="-243" y="264" type="line"/>
			<point x="-243" y="365" type="line"/>
			<point x="440" y="365" type="line"/>
			<point x="440" y="488" type="line"/>
			<point x="-243" y="488" type="line"/>
			<point x="-243" y="684" type="line"/>
		</contour>
	</outline>
</glyph>
<glyph name="bar_hyphen.rem" format="2">
	<advance width="600"/>
	<outline>
		<contour>
			<point x="-243" y="-56" type="line"/>
			<point x="-243" y="248" type="line"/>
			<point x="440" y="248" type="line"/>
			<point x="440" y="380" type="line"/>
			<point x="-243" y="380" type="line"/>
			<point x="-243" y="684" type="line"/>
			<point x="-380" y="684" type="line"/>
			<point x="-380" y="-56" type="line"/>
		</contour>
	</outline>
</glyph>
<glyph name="bar_hyphen_greater.rem" format="2">
	<advance width="600"/>
	<outline>
		<contour>
			<point x="-1040" y="0" type="line"/>
			<point x="-902" y="0" type="line"/>
			<point x="-902" y="248" type="line"/>
			<point x="246" y="248" type="line"/>
			<point x="25" y="0" type="line"/>
			<point x="193" y="0" type="line"/>
			<point x="463" y="314" type="line"/>
			<point x="190" y="629" type="line"/>
			<point x="21" y="629" type="line"/>
			<point x="245" y="380" type="line"/>
			<point x="-902" y="380" type="line"/>
			<point x="-902" y="629" type="line"/>
			<point x="-1040" y="629" type="line"/>
		</contour>
	</outline>
</glyph>
<glyph name="bar_underscore.med" format="2">
	<advance width="600"/>
	<outline>
		<contour>
			<point x="0" y="-74" type="line"/>
			<point x="0" y="-184" type="line"/>
			<point x="600" y="-184" type="line"/>
			<point x="600" y="-74" type="line"/>
			<point x="368" y="-74" type="line"/>
			<point x="368" y="792" type="line"/>
			<point x="232" y="792" type="line"/>
			<point x="232" y="-74" type="line"/>
		</contour>
	</outline>
</glyph>
<glyph name="braceleft_bar.cLig" format="2">
	<advance width="600"/>
	<outline>
		<contour>
			<point x="-197" y="-163" type="curve" smooth="yes"/>
			<point x="69" y="-163" type="line"/>
			<point x="69" y="-57" type="line"/>
			<point x="-143" y="-57" type="line" smooth="yes"/>
			<point x="-195" y="-57"/>
			<point x="-220" y="-35"/>
			<point x="-220" y="1" type="curve" smooth="yes"/>
			<point x="-220" y="62"/>
			<point x="-142" y="122"/>
			<point x="-142" y="202" type="curve" smooth="yes"/>
			<point x="-142" y="255"/>
			<point x="-194" y="302"/>
			<point x="-269" y="313" type="curve"/>
			<point x="-193" y="325"/>
			<point x="-142" y="374"/>
			<point x="-142" y="430" type="curve" smooth="yes"/>
			<point x="-142" y="508"/>
			<point x="-220" y="567"/>
			<point x="-220" y="629" type="curve" smooth="yes"/>
			<point x="-220" y="668"/>
			<point x="-193" y="686"/>
			<point x="-148" y="686" type="curve" smooth="yes"/>
			<point x="69" y="686" type="line"/>
			<point x="69" y="792" type="line"/>
			<point x="-197" y="792" type="line" smooth="yes"/>
			<point x="-309" y="792"/>
			<point x="-371" y="726"/>
			<point x="-371" y="651" type="curve" smooth="yes"/>
			<point x="-371" y="556"/>
			<point x="-292" y="500"/>
			<point x="-292" y="436" type="curve" smooth="yes"/>
			<point x="-292" y="408"/>
			<point x="-312" y="375"/>
			<point x="-363" y="375" type="curve" smooth="yes"/>
			<point x="-445" y="375" type="line"/>
			<point x="-445" y="252" type="line"/>
			<point x="-363" y="252" type="line" smooth="yes"/>
			<point x="-312" y="252"/>
			<point x="-292" y="218"/>
			<point x="-292" y="190" type="curve" smooth="yes"/>
			<point x="-292" y="128"/>
			<point x="-371" y="71"/>
			<point x="-371" y="-23" type="curve" smooth="yes"/>
			<point x="-371" y="-99"/>
			<point x="-310" y="-163"/>
		</contour>
		<contour>
			<point x="240" y="792" type="line"/>
			<point x="240" y="-163" type="line"/>
			<point x="376" y="-163" type="line"/>
			<point x="376" y="792" type="line"/>
		</contour>
	</outline>
</glyph>
<glyph name="braceleft_braceleft.cLig" format="2">
	<advance width="600"/>
	<outline>
		<contour>
			<point x="-6" y="-163" type="line"/>
			<point x="-6" y="-57" type="line"/>
			<point x="-144" y="-57" type="line" smooth="yes"/>
			<point x="-196" y="-57"/>
			<point x="-221" y="-30"/>
			<point x="-221" y="5" type="curve"/>
			<point x="-221" y="78"/>
			<point x="-136" y="119"/>
			<point x="-136" y="208" type="curve" smooth="yes"/>
			<point x="-136" y="262"/>
			<point x="-187" y="304"/>
			<point x="-263" y="315" type="curve"/>
			<point x="-184" y="327"/>
			<point x="-135" y="372"/>
			<point x="-135" y="427" type="curve" smooth="yes"/>
			<point x="-135" y="512"/>
			<point x="-221" y="559"/>
			<point x="-221" y="621" type="curve" smooth="yes"/>
			<point x="-221" y="660"/>
			<point x="-195" y="684"/>
			<point x="-139" y="684" type="curve" smooth="yes"/>
			<point x="181" y="684" type="line"/>
			<point x="120" y="668"/>
			<point x="98" y="629"/>
			<point x="98" y="592" type="curve" smooth="yes"/>
			<point x="98" y="520"/>
			<point x="177" y="482"/>
			<point x="177" y="428" type="curve" smooth="yes"/>
			<point x="177" y="401"/>
			<point x="158" y="374"/>
			<point x="107" y="374" type="curve" smooth="yes"/>
			<point x="21" y="374" type="line"/>
			<point x="21" y="253" type="line"/>
			<point x="107" y="253" type="line" smooth="yes"/>
			<point x="169" y="253"/>
			<point x="185" y="221"/>
			<point x="185" y="193" type="curve" smooth="yes"/>
			<point x="185" y="120"/>
			<point x="99" y="73"/>
			<point x="99" y="-18" type="curve"/>
			<point x="99" y="-99"/>
			<point x="153" y="-163"/>
			<point x="272" y="-163" type="curve" smooth="yes"/>
			<point x="468" y="-163" type="line"/>
			<point x="468" y="-57" type="line"/>
			<point x="327" y="-57" type="line" smooth="yes"/>
			<point x="275" y="-57"/>
			<point x="250" y="-35"/>
			<point x="250" y="4" type="curve"/>
			<point x="250" y="67"/>
			<point x="333" y="115"/>
			<point x="333" y="201" type="curve" smooth="yes"/>
			<point x="333" y="260"/>
			<point x="283" y="302"/>
			<point x="211" y="315" type="curve"/>
			<point x="280" y="330"/>
			<point x="335" y="369"/>
			<point x="335" y="427" type="curve" smooth="yes"/>
			<point x="335" y="511"/>
			<point x="249" y="559"/>
			<point x="249" y="621" type="curve" smooth="yes"/>
			<point x="249" y="660"/>
			<point x="278" y="684"/>
			<point x="335" y="684" type="curve" smooth="yes"/>
			<point x="491" y="684" type="line"/>
			<point x="491" y="791" type="line"/>
			<point x="-199" y="791" type="line" smooth="yes"/>
			<point x="-311" y="791"/>
			<point x="-372" y="719"/>
			<point x="-372" y="644" type="curve" smooth="yes"/>
			<point x="-372" y="548"/>
			<point x="-287" y="499"/>
			<point x="-287" y="435" type="curve" smooth="yes"/>
			<point x="-287" y="407"/>
			<point x="-306" y="374"/>
			<point x="-357" y="374" type="curve" smooth="yes"/>
			<point x="-444" y="374" type="line"/>
			<point x="-444" y="253" type="line"/>
			<point x="-357" y="253" type="line" smooth="yes"/>
			<point x="-306" y="253"/>
			<point x="-287" y="221"/>
			<point x="-287" y="193" type="curve" smooth="yes"/>
			<point x="-287" y="125"/>
			<point x="-372" y="82"/>
			<point x="-372" y="-18" type="curve"/>
			<point x="-372" y="-100"/>
			<point x="-312" y="-163"/>
			<point x="-199" y="-163" type="curve" smooth="yes"/>
		</contour>
	</outline>
</glyph>
<glyph name="braceleft_hyphen.rem" format="2">
	<advance width="600"/>
	<outline>
		<contour>
			<point x="5" y="792" type="line"/>
			<point x="-178" y="792" type="line" smooth="yes"/>
			<point x="-289" y="792"/>
			<point x="-348" y="735"/>
			<point x="-348" y="658" type="curve" smooth="yes"/>
			<point x="-348" y="568"/>
			<point x="-259" y="508"/>
			<point x="-259" y="446" type="curve" smooth="yes"/>
			<point x="-259" y="411"/>
			<point x="-279" y="377"/>
			<point x="-342" y="377" type="curve" smooth="yes"/>
			<point x="-422" y="377" type="line"/>
			<point x="-422" y="254" type="line"/>
			<point x="-342" y="254" type="line" smooth="yes"/>
			<point x="-279" y="254"/>
			<point x="-259" y="223"/>
			<point x="-259" y="192" type="curve" smooth="yes"/>
			<point x="-259" y="127"/>
			<point x="-348" y="65"/>
			<point x="-348" y="-28" type="curve" smooth="yes"/>
			<point x="-348" y="-105"/>
			<point x="-287" y="-163"/>
			<point x="-178" y="-163" type="curve" smooth="yes"/>
			<point x="5" y="-163" type="line"/>
			<point x="5" y="-57" type="line"/>
			<point x="-127" y="-57" type="line" smooth="yes"/>
			<point x="-171" y="-57"/>
			<point x="-197" y="-40"/>
			<point x="-197" y="-5" type="curve" smooth="yes"/>
			<point x="-197" y="50"/>
			<point x="-110" y="101"/>
			<point x="-110" y="169" type="curve" smooth="yes"/>
			<point x="-110" y="213"/>
			<point x="-146" y="239"/>
			<point x="-200" y="253" type="curve"/>
			<point x="440" y="253" type="line"/>
			<point x="440" y="377" type="line"/>
			<point x="-195" y="377" type="line"/>
			<point x="-144" y="394"/>
			<point x="-110" y="421"/>
			<point x="-110" y="465" type="curve" smooth="yes"/>
			<point x="-110" y="533"/>
			<point x="-197" y="578"/>
			<point x="-197" y="634" type="curve" smooth="yes"/>
			<point x="-197" y="666"/>
			<point x="-173" y="686"/>
			<point x="-121" y="686" type="curve" smooth="yes"/>
			<point x="5" y="686" type="line"/>
		</contour>
	</outline>
</glyph>
<glyph name="braceleft_numbersign.cLig" format="2">
	<advance width="600"/>
	<outline>
		<contour>
			<point x="-503" y="252" type="line"/>
			<point x="-422" y="252" type="line" smooth="yes"/>
			<point x="-371" y="252"/>
			<point x="-351" y="218"/>
			<point x="-351" y="191" type="curve" smooth="yes"/>
			<point x="-351" y="127"/>
			<point x="-449" y="72"/>
			<point x="-449" y="-22" type="curve" smooth="yes"/>
			<point x="-449" y="-100"/>
			<point x="-389" y="-163"/>
			<point x="-276" y="-163" type="curve" smooth="yes"/>
			<point x="-94" y="-163" type="line"/>
			<point x="-94" y="-57" type="line"/>
			<point x="-222" y="-57" type="line" smooth="yes"/>
			<point x="-275" y="-57"/>
			<point x="-299" y="-36"/>
			<point x="-299" y="1" type="curve" smooth="yes"/>
			<point x="-299" y="60"/>
			<point x="-202" y="112"/>
			<point x="-202" y="196" type="curve" smooth="yes"/>
			<point x="-202" y="252"/>
			<point x="-254" y="301"/>
			<point x="-329" y="313" type="curve"/>
			<point x="-254" y="325"/>
			<point x="-202" y="374"/>
			<point x="-202" y="430" type="curve" smooth="yes"/>
			<point x="-202" y="515"/>
			<point x="-299" y="567"/>
			<point x="-299" y="629" type="curve" smooth="yes"/>
			<point x="-299" y="669"/>
			<point x="-273" y="686"/>
			<point x="-227" y="686" type="curve" smooth="yes"/>
			<point x="-94" y="686" type="line"/>
			<point x="-94" y="792" type="line"/>
			<point x="-276" y="792" type="line" smooth="yes"/>
			<point x="-388" y="792"/>
			<point x="-449" y="726"/>
			<point x="-449" y="651" type="curve" smooth="yes"/>
			<point x="-449" y="556"/>
			<point x="-351" y="500"/>
			<point x="-351" y="436" type="curve" smooth="yes"/>
			<point x="-351" y="408"/>
			<point x="-371" y="375"/>
			<point x="-422" y="375" type="curve" smooth="yes"/>
			<point x="-503" y="375" type="line"/>
		</contour>
		<contour>
			<point x="-88" y="267" type="line"/>
			<point x="-88" y="157" type="line"/>
			<point x="23" y="157" type="line"/>
			<point x="8" y="0" type="line"/>
			<point x="121" y="0" type="line"/>
			<point x="136" y="157" type="line"/>
			<point x="248" y="157" type="line"/>
			<point x="233" y="0" type="line"/>
			<point x="345" y="0" type="line"/>
			<point x="359" y="157" type="line"/>
			<point x="463" y="157" type="line"/>
			<point x="463" y="267" type="line"/>
			<point x="370" y="267" type="line"/>
			<point x="385" y="424" type="line"/>
			<point x="487" y="424" type="line"/>
			<point x="487" y="535" type="line"/>
			<point x="396" y="535" type="line"/>
			<point x="410" y="684" type="line"/>
			<point x="298" y="684" type="line"/>
			<point x="284" y="535" type="line"/>
			<point x="172" y="535" type="line"/>
			<point x="185" y="684" type="line"/>
			<point x="74" y="684" type="line"/>
			<point x="59" y="535" type="line"/>
			<point x="-88" y="535" type="line"/>
			<point x="-88" y="424" type="line"/>
			<point x="49" y="424" type="line"/>
			<point x="34" y="267" type="line"/>
		</contour>
		<contour>
			<point x="146" y="267" type="line"/>
			<point x="161" y="424" type="line"/>
			<point x="273" y="424" type="line"/>
			<point x="258" y="267" type="line"/>
		</contour>
	</outline>
</glyph>
<glyph name="braceright_braceright.cLig" format="2">
	<advance width="600"/>
	<outline>
		<contour>
			<point x="12" y="791" type="line"/>
			<point x="12" y="685" type="line"/>
			<point x="150" y="685" type="line" smooth="yes"/>
			<point x="202" y="685"/>
			<point x="227" y="658"/>
			<point x="227" y="623" type="curve"/>
			<point x="227" y="550"/>
			<point x="142" y="509"/>
			<point x="142" y="420" type="curve" smooth="yes"/>
			<point x="142" y="366"/>
			<point x="193" y="324"/>
			<point x="269" y="313" type="curve"/>
			<point x="190" y="301"/>
			<point x="141" y="256"/>
			<point x="141" y="201" type="curve" smooth="yes"/>
			<point x="141" y="116"/>
			<point x="227" y="69"/>
			<point x="227" y="7" type="curve" smooth="yes"/>
			<point x="227" y="-32"/>
			<point x="201" y="-56"/>
			<point x="145" y="-56" type="curve" smooth="yes"/>
			<point x="-175" y="-56" type="line"/>
			<point x="-114" y="-40"/>
			<point x="-92" y="-1"/>
			<point x="-92" y="36" type="curve" smooth="yes"/>
			<point x="-92" y="108"/>
			<point x="-171" y="146"/>
			<point x="-171" y="200" type="curve" smooth="yes"/>
			<point x="-171" y="227"/>
			<point x="-152" y="254"/>
			<point x="-101" y="254" type="curve" smooth="yes"/>
			<point x="-15" y="254" type="line"/>
			<point x="-15" y="375" type="line"/>
			<point x="-101" y="375" type="line" smooth="yes"/>
			<point x="-163" y="375"/>
			<point x="-179" y="407"/>
			<point x="-179" y="435" type="curve" smooth="yes"/>
			<point x="-179" y="508"/>
			<point x="-93" y="555"/>
			<point x="-93" y="646" type="curve"/>
			<point x="-93" y="727"/>
			<point x="-147" y="791"/>
			<point x="-266" y="791" type="curve" smooth="yes"/>
			<point x="-462" y="791" type="line"/>
			<point x="-462" y="685" type="line"/>
			<point x="-321" y="685" type="line" smooth="yes"/>
			<point x="-269" y="685"/>
			<point x="-244" y="663"/>
			<point x="-244" y="624" type="curve"/>
			<point x="-244" y="561"/>
			<point x="-327" y="513"/>
			<point x="-327" y="427" type="curve" smooth="yes"/>
			<point x="-327" y="368"/>
			<point x="-277" y="326"/>
			<point x="-205" y="313" type="curve"/>
			<point x="-274" y="298"/>
			<point x="-329" y="259"/>
			<point x="-329" y="201" type="curve" smooth="yes"/>
			<point x="-329" y="117"/>
			<point x="-243" y="69"/>
			<point x="-243" y="7" type="curve" smooth="yes"/>
			<point x="-243" y="-32"/>
			<point x="-272" y="-56"/>
			<point x="-329" y="-56" type="curve" smooth="yes"/>
			<point x="-485" y="-56" type="line"/>
			<point x="-485" y="-163" type="line"/>
			<point x="205" y="-163" type="line" smooth="yes"/>
			<point x="317" y="-163"/>
			<point x="378" y="-91"/>
			<point x="378" y="-16" type="curve" smooth="yes"/>
			<point x="378" y="80"/>
			<point x="293" y="129"/>
			<point x="293" y="193" type="curve" smooth="yes"/>
			<point x="293" y="221"/>
			<point x="312" y="254"/>
			<point x="363" y="254" type="curve" smooth="yes"/>
			<point x="450" y="254" type="line"/>
			<point x="450" y="375" type="line"/>
			<point x="363" y="375" type="line" smooth="yes"/>
			<point x="312" y="375"/>
			<point x="293" y="407"/>
			<point x="293" y="435" type="curve" smooth="yes"/>
			<point x="293" y="503"/>
			<point x="378" y="546"/>
			<point x="378" y="646" type="curve"/>
			<point x="378" y="728"/>
			<point x="318" y="791"/>
			<point x="205" y="791" type="curve" smooth="yes"/>
		</contour>
	</outline>
</glyph>
<glyph name="bracketleft_bracketleft.cLig" format="2">
	<advance width="600"/>
	<outline>
		<contour>
			<point x="-395" y="-163" type="line"/>
			<point x="10" y="-163" type="line"/>
			<point x="10" y="-57" type="line"/>
			<point x="-256" y="-57" type="line"/>
			<point x="-256" y="686" type="line"/>
			<point x="10" y="686" type="line"/>
			<point x="10" y="792" type="line"/>
			<point x="-395" y="792" type="line"/>
		</contour>
		<contour>
			<point x="90" y="-163" type="line"/>
			<point x="440" y="-163" type="line"/>
			<point x="440" y="-57" type="line"/>
			<point x="228" y="-57" type="line"/>
			<point x="228" y="686" type="line"/>
			<point x="440" y="686" type="line"/>
			<point x="440" y="792" type="line"/>
			<point x="90" y="792" type="line"/>
		</contour>
	</outline>
</glyph>
<glyph name="bracketleft_bracketleft_numbersign.cLig" format="2">
	<advance width="600"/>
	<outline>
		<contour>
			<point x="-127" y="267" type="line"/>
			<point x="-127" y="157" type="line"/>
			<point x="-16" y="157" type="line"/>
			<point x="-31" y="0" type="line"/>
			<point x="82" y="0" type="line"/>
			<point x="97" y="157" type="line"/>
			<point x="209" y="157" type="line"/>
			<point x="194" y="0" type="line"/>
			<point x="306" y="0" type="line"/>
			<point x="320" y="157" type="line"/>
			<point x="424" y="157" type="line"/>
			<point x="424" y="267" type="line"/>
			<point x="331" y="267" type="line"/>
			<point x="346" y="424" type="line"/>
			<point x="448" y="424" type="line"/>
			<point x="448" y="535" type="line"/>
			<point x="357" y="535" type="line"/>
			<point x="371" y="684" type="line"/>
			<point x="259" y="684" type="line"/>
			<point x="245" y="535" type="line"/>
			<point x="133" y="535" type="line"/>
			<point x="146" y="684" type="line"/>
			<point x="35" y="684" type="line"/>
			<point x="20" y="535" type="line"/>
			<point x="-127" y="535" type="line"/>
			<point x="-127" y="424" type="line"/>
			<point x="10" y="424" type="line"/>
			<point x="-5" y="267" type="line"/>
		</contour>
		<contour>
			<point x="107" y="267" type="line"/>
			<point x="122" y="424" type="line"/>
			<point x="234" y="424" type="line"/>
			<point x="219" y="267" type="line"/>
		</contour>
		<contour>
			<point x="-1011" y="-163" type="line"/>
			<point x="-606" y="-163" type="line"/>
			<point x="-606" y="-57" type="line"/>
			<point x="-872" y="-57" type="line"/>
			<point x="-872" y="686" type="line"/>
			<point x="-606" y="686" type="line"/>
			<point x="-606" y="792" type="line"/>
			<point x="-1011" y="792" type="line"/>
		</contour>
		<contour>
			<point x="-526" y="-163" type="line"/>
			<point x="-176" y="-163" type="line"/>
			<point x="-176" y="-57" type="line"/>
			<point x="-388" y="-57" type="line"/>
			<point x="-388" y="686" type="line"/>
			<point x="-176" y="686" type="line"/>
			<point x="-176" y="792" type="line"/>
			<point x="-526" y="792" type="line"/>
		</contour>
	</outline>
</glyph>
<glyph name="bracketleft_numbersign.cLig" format="2">
	<advance width="600"/>
	<outline>
		<contour>
			<point x="-94" y="267" type="line"/>
			<point x="-94" y="157" type="line"/>
			<point x="17" y="157" type="line"/>
			<point x="2" y="0" type="line"/>
			<point x="115" y="0" type="line"/>
			<point x="130" y="157" type="line"/>
			<point x="242" y="157" type="line"/>
			<point x="227" y="0" type="line"/>
			<point x="339" y="0" type="line"/>
			<point x="353" y="157" type="line"/>
			<point x="457" y="157" type="line"/>
			<point x="457" y="267" type="line"/>
			<point x="364" y="267" type="line"/>
			<point x="379" y="424" type="line"/>
			<point x="481" y="424" type="line"/>
			<point x="481" y="535" type="line"/>
			<point x="390" y="535" type="line"/>
			<point x="404" y="684" type="line"/>
			<point x="292" y="684" type="line"/>
			<point x="278" y="535" type="line"/>
			<point x="166" y="535" type="line"/>
			<point x="179" y="684" type="line"/>
			<point x="68" y="684" type="line"/>
			<point x="53" y="535" type="line"/>
			<point x="-94" y="535" type="line"/>
			<point x="-94" y="424" type="line"/>
			<point x="43" y="424" type="line"/>
			<point x="28" y="267" type="line"/>
		</contour>
		<contour>
			<point x="140" y="267" type="line"/>
			<point x="155" y="424" type="line"/>
			<point x="267" y="424" type="line"/>
			<point x="252" y="267" type="line"/>
		</contour>
		<contour>
			<point x="-98" y="-57" type="line"/>
			<point x="-296" y="-57" type="line"/>
			<point x="-296" y="686" type="line"/>
			<point x="-98" y="686" type="line"/>
			<point x="-98" y="792" type="line"/>
			<point x="-432" y="792" type="line"/>
			<point x="-432" y="-163" type="line"/>
			<point x="-98" y="-163" type="line"/>
		</contour>
	</outline>
</glyph>
<glyph name="bracketright_numbersign.cLig" format="2">
	<advance width="600"/>
	<outline>
		<contour>
			<point x="-496" y="-163" type="line"/>
			<point x="-162" y="-163" type="line"/>
			<point x="-162" y="157" type="line"/>
			<point x="26" y="157" type="line"/>
			<point x="12" y="0" type="line"/>
			<point x="125" y="0" type="line"/>
			<point x="139" y="157" type="line"/>
			<point x="251" y="157" type="line"/>
			<point x="236" y="0" type="line"/>
			<point x="348" y="0" type="line"/>
			<point x="363" y="157" type="line"/>
			<point x="467" y="157" type="line"/>
			<point x="467" y="267" type="line"/>
			<point x="373" y="267" type="line"/>
			<point x="388" y="424" type="line"/>
			<point x="490" y="424" type="line"/>
			<point x="490" y="535" type="line"/>
			<point x="399" y="535" type="line"/>
			<point x="413" y="684" type="line"/>
			<point x="301" y="684" type="line"/>
			<point x="287" y="535" type="line"/>
			<point x="175" y="535" type="line"/>
			<point x="189" y="684" type="line"/>
			<point x="77" y="684" type="line"/>
			<point x="63" y="535" type="line"/>
			<point x="-162" y="535" type="line"/>
			<point x="-162" y="792" type="line"/>
			<point x="-496" y="792" type="line"/>
			<point x="-496" y="686" type="line"/>
			<point x="-298" y="686" type="line"/>
			<point x="-298" y="-57" type="line"/>
			<point x="-496" y="-57" type="line"/>
		</contour>
		<contour>
			<point x="-162" y="267" type="line"/>
			<point x="-162" y="424" type="line"/>
			<point x="52" y="424" type="line"/>
			<point x="37" y="267" type="line"/>
		</contour>
		<contour>
			<point x="150" y="267" type="line"/>
			<point x="164" y="424" type="line"/>
			<point x="276" y="424" type="line"/>
			<point x="261" y="267" type="line"/>
		</contour>
	</outline>
</glyph>
<glyph name="breve.cap" format="2">
	<advance width="600"/>
	<outline>
		<contour>
			<point x="300" y="736" type="curve" smooth="yes"/>
			<point x="406" y="736"/>
			<point x="466" y="778"/>
			<point x="466" y="884" type="curve"/>
			<point x="364" y="884" type="line"/>
			<point x="364" y="832"/>
			<point x="346" y="808"/>
			<point x="300" y="808" type="curve" smooth="yes"/>
			<point x="251" y="808"/>
			<point x="236" y="832"/>
			<point x="236" y="884" type="curve"/>
			<point x="134" y="884" type="line"/>
			<point x="134" y="778"/>
			<point x="189" y="736"/>
		</contour>
	</outline>
	<anchor name="_top" x="300" y="684"/>
</glyph>
<glyph name="caronSlovak" format="2">
	<advance width="600"/>
	<outline>
		<contour>
			<point x="237" y="566" type="line"/>
			<point x="315" y="566" type="line"/>
			<point x="389" y="750" type="line"/>
			<point x="249" y="750" type="line"/>
		</contour>
	</outline>
	<anchor name="_caron" x="249" y="750"/>
</glyph>
<glyph name="colon_colon_colon.cLig" format="2">
	<advance width="600"/>
	<outline>
		<contour>
			<point x="-749" y="-12" type="curve" smooth="yes"/>
			<point x="-681" y="-12"/>
			<point x="-646" y="14"/>
			<point x="-646" y="82" type="curve" smooth="yes"/>
			<point x="-646" y="149"/>
			<point x="-681" y="174"/>
			<point x="-749" y="174" type="curve" smooth="yes"/>
			<point x="-817" y="174"/>
			<point x="-852" y="149"/>
			<point x="-852" y="82" type="curve" smooth="yes"/>
			<point x="-852" y="14"/>
			<point x="-817" y="-12"/>
		</contour>
		<contour>
			<point x="-749" y="343" type="curve" smooth="yes"/>
			<point x="-681" y="343"/>
			<point x="-646" y="369"/>
			<point x="-646" y="437" type="curve" smooth="yes"/>
			<point x="-646" y="504"/>
			<point x="-681" y="529"/>
			<point x="-749" y="529" type="curve" smooth="yes"/>
			<point x="-817" y="529"/>
			<point x="-852" y="504"/>
			<point x="-852" y="437" type="curve" smooth="yes"/>
			<point x="-852" y="369"/>
			<point x="-817" y="343"/>
		</contour>
		<contour>
			<point x="-300" y="-12" type="curve" smooth="yes"/>
			<point x="-232" y="-12"/>
			<point x="-197" y="14"/>
			<point x="-197" y="82" type="curve" smooth="yes"/>
			<point x="-197" y="149"/>
			<point x="-232" y="174"/>
			<point x="-300" y="174" type="curve" smooth="yes"/>
			<point x="-368" y="174"/>
			<point x="-403" y="149"/>
			<point x="-403" y="82" type="curve" smooth="yes"/>
			<point x="-403" y="14"/>
			<point x="-368" y="-12"/>
		</contour>
		<contour>
			<point x="-300" y="343" type="curve" smooth="yes"/>
			<point x="-232" y="343"/>
			<point x="-197" y="369"/>
			<point x="-197" y="437" type="curve" smooth="yes"/>
			<point x="-197" y="504"/>
			<point x="-232" y="529"/>
			<point x="-300" y="529" type="curve" smooth="yes"/>
			<point x="-368" y="529"/>
			<point x="-403" y="504"/>
			<point x="-403" y="437" type="curve" smooth="yes"/>
			<point x="-403" y="369"/>
			<point x="-368" y="343"/>
		</contour>
		<contour>
			<point x="149" y="-12" type="curve" smooth="yes"/>
			<point x="217" y="-12"/>
			<point x="252" y="14"/>
			<point x="252" y="82" type="curve" smooth="yes"/>
			<point x="252" y="149"/>
			<point x="217" y="174"/>
			<point x="149" y="174" type="curve" smooth="yes"/>
			<point x="81" y="174"/>
			<point x="46" y="149"/>
			<point x="46" y="82" type="curve" smooth="yes"/>
			<point x="46" y="14"/>
			<point x="81" y="-12"/>
		</contour>
		<contour>
			<point x="149" y="343" type="curve" smooth="yes"/>
			<point x="217" y="343"/>
			<point x="252" y="369"/>
			<point x="252" y="437" type="curve" smooth="yes"/>
			<point x="252" y="504"/>
			<point x="217" y="529"/>
			<point x="149" y="529" type="curve" smooth="yes"/>
			<point x="81" y="529"/>
			<point x="46" y="504"/>
			<point x="46" y="437" type="curve" smooth="yes"/>
			<point x="46" y="369"/>
			<point x="81" y="343"/>
		</contour>
	</outline>
</glyph>
<glyph name="colon_equal.cLig" format="2">
	<advance width="600"/>
	<outline>
		<contour>
			<point x="-331" y="43" type="curve" smooth="yes"/>
			<point x="-263" y="43"/>
			<point x="-228" y="69"/>
			<point x="-228" y="137" type="curve" smooth="yes"/>
			<point x="-228" y="204"/>
			<point x="-263" y="229"/>
			<point x="-331" y="229" type="curve" smooth="yes"/>
			<point x="-399" y="229"/>
			<point x="-434" y="204"/>
			<point x="-434" y="137" type="curve" smooth="yes"/>
			<point x="-434" y="69"/>
			<point x="-399" y="43"/>
		</contour>
		<contour>
			<point x="-331" y="336" type="curve" smooth="yes"/>
			<point x="-263" y="336"/>
			<point x="-228" y="362"/>
			<point x="-228" y="430" type="curve" smooth="yes"/>
			<point x="-228" y="497"/>
			<point x="-263" y="522"/>
			<point x="-331" y="522" type="curve" smooth="yes"/>
			<point x="-399" y="522"/>
			<point x="-434" y="497"/>
			<point x="-434" y="430" type="curve" smooth="yes"/>
			<point x="-434" y="362"/>
			<point x="-399" y="336"/>
		</contour>
		<contour>
			<point x="-58.773381293" y="343" type="line"/>
			<point x="434.557553973" y="343" type="line"/>
			<point x="434.557553973" y="465" type="line"/>
			<point x="-58.773381293" y="465" type="line"/>
		</contour>
		<contour>
			<point x="-58.773381293" y="120" type="line"/>
			<point x="434.557553973" y="120" type="line"/>
			<point x="434.557553973" y="242" type="line"/>
			<point x="-58.773381293" y="242" type="line"/>
		</contour>
	</outline>
</glyph>
<glyph name="colon_greater.cLig.x" format="2">
	<advance width="600"/>
	<outline>
		<contour>
			<point x="-3" y="-10" type="line"/>
			<point x="447" y="233" type="line"/>
			<point x="447" y="396" type="line"/>
			<point x="-3" y="641" type="line"/>
			<point x="-3" y="496" type="line"/>
			<point x="341" y="314" type="line"/>
			<point x="-3" y="130" type="line"/>
		</contour>
		<contour>
			<point x="-300" y="392" type="curve" smooth="yes"/>
			<point x="-232" y="392"/>
			<point x="-197" y="418"/>
			<point x="-197" y="486" type="curve" smooth="yes"/>
			<point x="-197" y="553"/>
			<point x="-232" y="578"/>
			<point x="-300" y="578" type="curve" smooth="yes"/>
			<point x="-368" y="578"/>
			<point x="-403" y="553"/>
			<point x="-403" y="486" type="curve" smooth="yes"/>
			<point x="-403" y="418"/>
			<point x="-368" y="392"/>
		</contour>
		<contour>
			<point x="-300" y="37" type="curve" smooth="yes"/>
			<point x="-232" y="37"/>
			<point x="-197" y="63"/>
			<point x="-197" y="131" type="curve" smooth="yes"/>
			<point x="-197" y="198"/>
			<point x="-232" y="223"/>
			<point x="-300" y="223" type="curve" smooth="yes"/>
			<point x="-368" y="223"/>
			<point x="-403" y="198"/>
			<point x="-403" y="131" type="curve" smooth="yes"/>
			<point x="-403" y="63"/>
			<point x="-368" y="37"/>
		</contour>
	</outline>
</glyph>
<glyph name="dollar_greater.cLig" format="2">
	<advance width="600"/>
	<outline>
		<contour>
			<point x="-401" y="-93" type="line"/>
			<point x="-304" y="-93" type="line"/>
			<point x="-291" y="-11" type="line"/>
			<point x="-273" y="-11" type="line" smooth="yes"/>
			<point x="-122" y="-11"/>
			<point x="-23" y="65"/>
			<point x="-23" y="217" type="curve" smooth="yes"/>
			<point x="-23" y="344"/>
			<point x="-116" y="384"/>
			<point x="-232" y="406" type="curve"/>
			<point x="-204" y="573" type="line"/>
			<point x="-130" y="561"/>
			<point x="-54" y="528"/>
			<point x="73" y="470" type="curve" smooth="yes"/>
			<point x="408" y="315" type="line"/>
			<point x="87" y="168" type="line"/>
			<point x="87" y="27" type="line"/>
			<point x="520" y="233" type="line"/>
			<point x="520" y="396" type="line"/>
			<point x="130" y="582" type="line" smooth="yes"/>
			<point x="44" y="624"/>
			<point x="-68" y="668"/>
			<point x="-173" y="686" type="curve"/>
			<point x="-158" y="774" type="line"/>
			<point x="-255" y="774" type="line"/>
			<point x="-268" y="695" type="line"/>
			<point x="-269" y="695" type="line" smooth="yes"/>
			<point x="-427" y="695"/>
			<point x="-537" y="620"/>
			<point x="-537" y="477" type="curve" smooth="yes"/>
			<point x="-537" y="341"/>
			<point x="-451" y="305"/>
			<point x="-327" y="281" type="curve"/>
			<point x="-355" y="118" type="line"/>
			<point x="-413" y="131"/>
			<point x="-473" y="156"/>
			<point x="-527" y="195" type="curve"/>
			<point x="-527" y="61" type="line"/>
			<point x="-487" y="34"/>
			<point x="-441" y="13"/>
			<point x="-386" y="1" type="curve"/>
		</contour>
		<contour>
			<point x="-392" y="495" type="curve" smooth="yes"/>
			<point x="-392" y="551"/>
			<point x="-348" y="576"/>
			<point x="-277" y="578" type="curve"/>
			<point x="-303" y="419" type="line"/>
			<point x="-359" y="430"/>
			<point x="-392" y="447"/>
		</contour>
		<contour>
			<point x="-169" y="193" type="curve" smooth="yes"/>
			<point x="-169" y="136"/>
			<point x="-208" y="109"/>
			<point x="-272" y="109" type="curve" smooth="yes"/>
			<point x="-283" y="109" type="line"/>
			<point x="-256" y="268" type="line"/>
			<point x="-201" y="256"/>
			<point x="-169" y="238"/>
		</contour>
	</outline>
</glyph>
<glyph name="dotaccent.cap" format="2">
	<advance width="600"/>
	<outline>
		<contour>
			<point x="300" y="745" type="curve" smooth="yes"/>
			<point x="365" y="745"/>
			<point x="386" y="770"/>
			<point x="386" y="816" type="curve" smooth="yes"/>
			<point x="386" y="862"/>
			<point x="364" y="886"/>
			<point x="300" y="886" type="curve" smooth="yes"/>
			<point x="236" y="886"/>
			<point x="214" y="863"/>
			<point x="214" y="816" type="curve" smooth="yes"/>
			<point x="214" y="770"/>
			<point x="236" y="745"/>
		</contour>
	</outline>
	<anchor name="_top" x="300" y="684"/>
</glyph>
<glyph name="dotbelow" format="2">
	<advance width="600"/>
	<outline>
		<contour>
			<point x="300" y="-203" type="curve" smooth="yes"/>
			<point x="358" y="-203"/>
			<point x="386" y="-179"/>
			<point x="386" y="-123" type="curve" smooth="yes"/>
			<point x="386" y="-67"/>
			<point x="359" y="-43"/>
			<point x="300" y="-43" type="curve" smooth="yes"/>
			<point x="241" y="-43"/>
			<point x="213" y="-67"/>
			<point x="213" y="-123" type="curve" smooth="yes"/>
			<point x="213" y="-179"/>
			<point x="243" y="-203"/>
		</contour>
	</outline>
	<anchor name="bottom" x="301" y="0"/>
</glyph>
<glyph name="eight.den" format="2">
	<advance width="600"/>
	<outline>
		<contour>
			<point x="299" y="-8" type="curve" smooth="yes"/>
			<point x="402" y="-8"/>
			<point x="468" y="31"/>
			<point x="468" y="109" type="curve" smooth="yes"/>
			<point x="468" y="170"/>
			<point x="428" y="197"/>
			<point x="382" y="209" type="curve"/>
			<point x="427" y="220"/>
			<point x="459" y="255"/>
			<point x="459" y="305" type="curve" smooth="yes"/>
			<point x="459" y="382"/>
			<point x="395" y="418"/>
			<point x="300" y="418" type="curve" smooth="yes"/>
			<point x="205" y="418"/>
			<point x="140" y="382"/>
			<point x="140" y="305" type="curve" smooth="yes"/>
			<point x="140" y="253"/>
			<point x="175" y="220"/>
			<point x="219" y="210" type="curve"/>
			<point x="171" y="198"/>
			<point x="132" y="169"/>
			<point x="132" y="109" type="curve" smooth="yes"/>
			<point x="132" y="31"/>
			<point x="196" y="-8"/>
		</contour>
		<contour>
			<point x="299" y="242" type="curve" smooth="yes"/>
			<point x="261" y="242"/>
			<point x="235" y="257"/>
			<point x="235" y="295" type="curve" smooth="yes"/>
			<point x="235" y="333"/>
			<point x="262" y="349"/>
			<point x="300" y="349" type="curve" smooth="yes"/>
			<point x="338" y="349"/>
			<point x="364" y="333"/>
			<point x="364" y="295" type="curve" smooth="yes"/>
			<point x="364" y="257"/>
			<point x="337" y="242"/>
		</contour>
		<contour>
			<point x="300" y="64" type="curve" smooth="yes"/>
			<point x="260" y="64"/>
			<point x="233" y="81"/>
			<point x="233" y="122" type="curve" smooth="yes"/>
			<point x="233" y="161"/>
			<point x="260" y="177"/>
			<point x="301" y="177" type="curve" smooth="yes"/>
			<point x="340" y="177"/>
			<point x="368" y="162"/>
			<point x="368" y="122" type="curve" smooth="yes"/>
			<point x="368" y="82"/>
			<point x="340" y="64"/>
		</contour>
	</outline>
</glyph>
<glyph name="eight.numr" format="2">
	<advance width="600"/>
	<outline>
		<contour>
			<point x="299" y="366" type="curve" smooth="yes"/>
			<point x="387" y="366"/>
			<point x="442" y="398"/>
			<point x="442" y="464" type="curve" smooth="yes"/>
			<point x="442" y="511"/>
			<point x="412" y="537"/>
			<point x="370" y="548" type="curve"/>
			<point x="409" y="558"/>
			<point x="436" y="589"/>
			<point x="436" y="629" type="curve" smooth="yes"/>
			<point x="436" y="694"/>
			<point x="383" y="724"/>
			<point x="302" y="724" type="curve" smooth="yes"/>
			<point x="218" y="724"/>
			<point x="164" y="694"/>
			<point x="164" y="629" type="curve" smooth="yes"/>
			<point x="164" y="587"/>
			<point x="193" y="557"/>
			<point x="232" y="548" type="curve"/>
			<point x="190" y="538"/>
			<point x="158" y="512"/>
			<point x="158" y="464" type="curve" smooth="yes"/>
			<point x="158" y="398"/>
			<point x="211" y="366"/>
		</contour>
		<contour>
			<point x="300" y="576" type="curve" smooth="yes"/>
			<point x="269" y="576"/>
			<point x="248" y="589"/>
			<point x="248" y="620" type="curve" smooth="yes"/>
			<point x="248" y="651"/>
			<point x="270" y="663"/>
			<point x="300" y="663" type="curve" smooth="yes"/>
			<point x="329" y="663"/>
			<point x="351" y="652"/>
			<point x="351" y="620" type="curve" smooth="yes"/>
			<point x="351" y="590"/>
			<point x="330" y="576"/>
		</contour>
		<contour>
			<point x="300" y="429" type="curve" smooth="yes"/>
			<point x="265" y="429"/>
			<point x="246" y="441"/>
			<point x="246" y="475" type="curve" smooth="yes"/>
			<point x="246" y="507"/>
			<point x="267" y="519"/>
			<point x="300" y="519" type="curve" smooth="yes"/>
			<point x="332" y="519"/>
			<point x="354" y="508"/>
			<point x="354" y="475" type="curve" smooth="yes"/>
			<point x="354" y="443"/>
			<point x="334" y="429"/>
		</contour>
	</outline>
</glyph>
<glyph name="equal_equal.cLig" format="2">
	<advance width="600"/>
	<outline>
		<contour>
			<point x="-440" y="343" type="line"/>
			<point x="440" y="343" type="line"/>
			<point x="440" y="465" type="line"/>
			<point x="-440" y="465" type="line"/>
		</contour>
		<contour>
			<point x="-440" y="120" type="line"/>
			<point x="440" y="120" type="line"/>
			<point x="440" y="242" type="line"/>
			<point x="-440" y="242" type="line"/>
		</contour>
	</outline>
</glyph>
<glyph name="equal_greater.rem" format="2">
	<advance width="600"/>
	<outline>
		<contour>
			<point x="-440" y="141" type="line"/>
			<point x="173" y="141" type="line"/>
			<point x="56" y="0" type="line"/>
			<point x="223" y="0" type="line"/>
			<point x="486" y="314" type="line"/>
			<point x="220" y="629" type="line"/>
			<point x="53" y="629" type="line"/>
			<point x="173" y="488" type="line"/>
			<point x="-440" y="488" type="line"/>
			<point x="-440" y="365" type="line"/>
			<point x="278" y="365" type="line"/>
			<point x="320" y="316" type="line"/>
			<point x="277" y="264" type="line"/>
			<point x="-440" y="264" type="line"/>
		</contour>
	</outline>
</glyph>
<glyph name="equal_less.rem" format="2">
	<advance width="600"/>
	<outline>
		<contour>
			<point x="-56" y="629" type="line"/>
			<point x="-223" y="629" type="line"/>
			<point x="-486" y="315" type="line"/>
			<point x="-220" y="0" type="line"/>
			<point x="-53" y="0" type="line"/>
			<point x="-173" y="141" type="line"/>
			<point x="440" y="141" type="line"/>
			<point x="440" y="264" type="line"/>
			<point x="-278" y="264" type="line"/>
			<point x="-320" y="313" type="line"/>
			<point x="-277" y="365" type="line"/>
			<point x="440" y="365" type="line"/>
			<point x="440" y="488" type="line"/>
			<point x="-173" y="488" type="line"/>
		</contour>
	</outline>
</glyph>
<glyph name="equal_slash_equal.rem" format="2">
	<advance width="600"/>
	<outline>
		<contour>
			<point x="-1040" y="123" type="line"/>
			<point x="-469" y="123" type="line"/>
			<point x="-595" y="-79" type="line"/>
			<point x="-464" y="-79" type="line"/>
			<point x="-337" y="123" type="line"/>
			<point x="440" y="123" type="line"/>
			<point x="440" y="245" type="line"/>
			<point x="-260" y="245" type="line"/>
			<point x="-197" y="346" type="line"/>
			<point x="440" y="346" type="line"/>
			<point x="440" y="468" type="line"/>
			<point x="-120" y="468" type="line"/>
			<point x="-8" y="645" type="line"/>
			<point x="-139" y="645" type="line"/>
			<point x="-251" y="468" type="line"/>
			<point x="-1040" y="468" type="line"/>
			<point x="-1040" y="346" type="line"/>
			<point x="-328" y="346" type="line"/>
			<point x="-392" y="245" type="line"/>
			<point x="-1040" y="245" type="line"/>
		</contour>
	</outline>
</glyph>
<glyph name="exclam_asciitilde.cLig" format="2">
	<advance width="600"/>
	<outline>
		<contour>
			<point x="-320" y="114" type="line"/>
			<point x="-176" y="114" type="line"/>
			<point x="-298" y="-79" type="line"/>
			<point x="-169" y="-79" type="line"/>
			<point x="-47" y="114" type="line"/>
			<point x="320" y="114" type="line"/>
			<point x="320" y="238" type="line"/>
			<point x="31" y="238" type="line"/>
			<point x="78" y="313" type="line"/>
			<point x="103" y="307"/>
			<point x="130" y="303"/>
			<point x="160" y="303" type="curve" smooth="yes"/>
			<point x="231" y="303"/>
			<point x="289" y="332"/>
			<point x="320" y="377" type="curve"/>
			<point x="320" y="512" type="line"/>
			<point x="268" y="444"/>
			<point x="220" y="427"/>
			<point x="153" y="428" type="curve" smooth="yes"/>
			<point x="150" y="428" type="line"/>
			<point x="287" y="645" type="line"/>
			<point x="158" y="645" type="line"/>
			<point x="41" y="459" type="line"/>
			<point x="-18" y="484"/>
			<point x="-80" y="516"/>
			<point x="-157" y="516" type="curve" smooth="yes"/>
			<point x="-224" y="516"/>
			<point x="-290" y="488"/>
			<point x="-320" y="443" type="curve"/>
			<point x="-320" y="307" type="line"/>
			<point x="-279" y="365"/>
			<point x="-218" y="391"/>
			<point x="-156" y="391" type="curve" smooth="yes"/>
			<point x="-109" y="391"/>
			<point x="-68" y="373"/>
			<point x="-26" y="354" type="curve"/>
			<point x="-98" y="238" type="line"/>
			<point x="-320" y="238" type="line"/>
		</contour>
	</outline>
</glyph>
<glyph name="exclam_equal.cLig" format="2">
	<advance width="600"/>
	<outline>
		<contour>
			<point x="-440" y="120" type="line"/>
			<point x="-169" y="120" type="line"/>
			<point x="-294" y="-79" type="line"/>
			<point x="-162" y="-79" type="line"/>
			<point x="-37" y="120" type="line"/>
			<point x="440" y="120" type="line"/>
			<point x="440" y="242" type="line"/>
			<point x="40" y="242" type="line"/>
			<point x="103" y="343" type="line"/>
			<point x="440" y="343" type="line"/>
			<point x="440" y="465" type="line"/>
			<point x="180" y="465" type="line"/>
			<point x="294" y="645" type="line"/>
			<point x="162" y="645" type="line"/>
			<point x="49" y="465" type="line"/>
			<point x="-440" y="465" type="line"/>
			<point x="-440" y="343" type="line"/>
			<point x="-28" y="343" type="line"/>
			<point x="-92" y="242" type="line"/>
			<point x="-440" y="242" type="line"/>
		</contour>
	</outline>
</glyph>
<glyph name="exclam_exclam_period.cLig" format="2">
	<advance width="600"/>
	<outline>
		<contour>
			<point x="-833" y="231" type="line"/>
			<point x="-727" y="231" type="line"/>
			<point x="-699" y="559" type="line"/>
			<point x="-699" y="684" type="line"/>
			<point x="-860" y="684" type="line"/>
			<point x="-860" y="559" type="line"/>
		</contour>
		<contour>
			<point x="-778" y="-12" type="curve" smooth="yes"/>
			<point x="-716" y="-12"/>
			<point x="-685" y="11"/>
			<point x="-685" y="73" type="curve" smooth="yes"/>
			<point x="-685" y="133"/>
			<point x="-716" y="157"/>
			<point x="-778" y="157" type="curve" smooth="yes"/>
			<point x="-842" y="157"/>
			<point x="-873" y="133"/>
			<point x="-873" y="73" type="curve" smooth="yes"/>
			<point x="-873" y="11"/>
			<point x="-842" y="-12"/>
		</contour>
		<contour>
			<point x="-353" y="231" type="line"/>
			<point x="-247" y="231" type="line"/>
			<point x="-219" y="559" type="line"/>
			<point x="-219" y="684" type="line"/>
			<point x="-380" y="684" type="line"/>
			<point x="-380" y="559" type="line"/>
		</contour>
		<contour>
			<point x="-298" y="-12" type="curve" smooth="yes"/>
			<point x="-236" y="-12"/>
			<point x="-205" y="11"/>
			<point x="-205" y="73" type="curve" smooth="yes"/>
			<point x="-205" y="133"/>
			<point x="-236" y="157"/>
			<point x="-298" y="157" type="curve" smooth="yes"/>
			<point x="-362" y="157"/>
			<point x="-393" y="133"/>
			<point x="-393" y="73" type="curve" smooth="yes"/>
			<point x="-393" y="11"/>
			<point x="-362" y="-12"/>
		</contour>
		<contour>
			<point x="182" y="-12" type="curve" smooth="yes"/>
			<point x="250" y="-12"/>
			<point x="285" y="14"/>
			<point x="285" y="82" type="curve" smooth="yes"/>
			<point x="285" y="149"/>
			<point x="250" y="174"/>
			<point x="182" y="174" type="curve" smooth="yes"/>
			<point x="114" y="174"/>
			<point x="79" y="149"/>
			<point x="79" y="82" type="curve" smooth="yes"/>
			<point x="79" y="14"/>
			<point x="114" y="-12"/>
		</contour>
	</outline>
</glyph>
<glyph name="five.den" format="2">
	<advance width="600"/>
	<outline>
		<contour>
			<point x="293" y="-8" type="curve" smooth="yes"/>
			<point x="391" y="-8"/>
			<point x="453" y="50"/>
			<point x="453" y="137" type="curve" smooth="yes"/>
			<point x="453" y="218"/>
			<point x="408" y="255"/>
			<point x="316" y="255" type="curve" smooth="yes"/>
			<point x="296" y="255"/>
			<point x="276" y="254"/>
			<point x="256" y="251" type="curve"/>
			<point x="257" y="332" type="line"/>
			<point x="443" y="332" type="line"/>
			<point x="443" y="410" type="line"/>
			<point x="166" y="410" type="line"/>
			<point x="166" y="170" type="line"/>
			<point x="208" y="181"/>
			<point x="237" y="185"/>
			<point x="271" y="185" type="curve" smooth="yes"/>
			<point x="332" y="185"/>
			<point x="353" y="165"/>
			<point x="353" y="133" type="curve" smooth="yes"/>
			<point x="353" y="96"/>
			<point x="331" y="72"/>
			<point x="282" y="72" type="curve" smooth="yes"/>
			<point x="240" y="72"/>
			<point x="193" y="85"/>
			<point x="151" y="112" type="curve"/>
			<point x="151" y="29" type="line"/>
			<point x="189" y="5"/>
			<point x="236" y="-8"/>
		</contour>
	</outline>
</glyph>
<glyph name="greater_colon.cLig.x" format="2">
	<advance width="600"/>
	<outline>
		<contour>
			<point x="-433" y="-10" type="line"/>
			<point x="16" y="233" type="line"/>
			<point x="16" y="396" type="line"/>
			<point x="-433" y="641" type="line"/>
			<point x="-433" y="494" type="line"/>
			<point x="-91" y="314" type="line"/>
			<point x="-433" y="130" type="line"/>
		</contour>
		<contour>
			<point x="304" y="392" type="curve" smooth="yes"/>
			<point x="372" y="392"/>
			<point x="407" y="418"/>
			<point x="407" y="486" type="curve" smooth="yes"/>
			<point x="407" y="553"/>
			<point x="372" y="578"/>
			<point x="304" y="578" type="curve" smooth="yes"/>
			<point x="236" y="578"/>
			<point x="201" y="553"/>
			<point x="201" y="486" type="curve" smooth="yes"/>
			<point x="201" y="418"/>
			<point x="236" y="392"/>
		</contour>
		<contour>
			<point x="304" y="37" type="curve" smooth="yes"/>
			<point x="372" y="37"/>
			<point x="407" y="63"/>
			<point x="407" y="131" type="curve" smooth="yes"/>
			<point x="407" y="198"/>
			<point x="372" y="223"/>
			<point x="304" y="223" type="curve" smooth="yes"/>
			<point x="236" y="223"/>
			<point x="201" y="198"/>
			<point x="201" y="131" type="curve" smooth="yes"/>
			<point x="201" y="63"/>
			<point x="236" y="37"/>
		</contour>
	</outline>
</glyph>
<glyph name="greater_equal.rem" format="2">
	<advance width="600"/>
	<outline>
		<contour>
			<point x="-287" y="365" type="line"/>
			<point x="450" y="365" type="line"/>
			<point x="450" y="488" type="line"/>
			<point x="-222" y="488" type="line"/>
			<point x="-339" y="629" type="line"/>
			<point x="-507" y="629" type="line"/>
		</contour>
		<contour>
			<point x="-504" y="0" type="line"/>
			<point x="-336" y="0" type="line"/>
			<point x="-221" y="141" type="line"/>
			<point x="450" y="141" type="line"/>
			<point x="450" y="264" type="line"/>
			<point x="-287" y="264" type="line"/>
		</contour>
	</outline>
</glyph>
<glyph name="greater_greater_equal.fina" format="2">
	<advance width="600"/>
	<outline>
		<contour>
			<point x="57" y="0" type="line"/>
			<point x="224" y="0" type="line"/>
			<point x="489" y="314" type="line"/>
			<point x="222" y="629" type="line"/>
			<point x="54" y="629" type="line"/>
			<point x="322" y="316" type="line"/>
		</contour>
		<contour>
			<point x="-600" y="141" type="line"/>
			<point x="-212" y="141" type="line"/>
			<point x="-329" y="0" type="line"/>
			<point x="-163" y="0" type="line"/>
			<point x="101" y="314" type="line"/>
			<point x="-166" y="629" type="line"/>
			<point x="-332" y="629" type="line"/>
			<point x="-212" y="488" type="line"/>
			<point x="-600" y="488" type="line"/>
			<point x="-600" y="365" type="line"/>
			<point x="-107" y="365" type="line"/>
			<point x="-65" y="316" type="line"/>
			<point x="-109" y="264" type="line"/>
			<point x="-600" y="264" type="line"/>
		</contour>
	</outline>
</glyph>
<glyph name="greater_greater_equal.rem" format="2">
	<advance width="600"/>
	<outline>
		<contour>
			<point x="-1113" y="0" type="line"/>
			<point x="-943" y="0" type="line"/>
			<point x="-675" y="314" type="line"/>
			<point x="-946" y="629" type="line"/>
			<point x="-1116" y="629" type="line"/>
			<point x="-843" y="314" type="line"/>
		</contour>
		<contour>
			<point x="-501" y="365" type="line"/>
			<point x="440" y="365" type="line"/>
			<point x="440" y="488" type="line"/>
			<point x="-436" y="488" type="line"/>
			<point x="-553" y="629" type="line"/>
			<point x="-721" y="629" type="line"/>
		</contour>
		<contour>
			<point x="-718" y="0" type="line"/>
			<point x="-550" y="0" type="line"/>
			<point x="-435" y="141" type="line"/>
			<point x="440" y="141" type="line"/>
			<point x="440" y="264" type="line"/>
			<point x="-501" y="264" type="line"/>
		</contour>
	</outline>
</glyph>
<glyph name="greater_hyphen.init" format="2">
	<advance width="600"/>
	<outline>
		<contour>
			<point x="86" y="0" type="line"/>
			<point x="256" y="0" type="line"/>
			<point x="467" y="248" type="line"/>
			<point x="600" y="248" type="line"/>
			<point x="600" y="380" type="line"/>
			<point x="466" y="380" type="line"/>
			<point x="253" y="629" type="line"/>
			<point x="83" y="629" type="line"/>
			<point x="350" y="314" type="line"/>
		</contour>
	</outline>
</glyph>
<glyph name="greater_hyphen.rem" format="2">
	<advance width="600"/>
	<outline>
		<contour>
			<point x="-487" y="0" type="line"/>
			<point x="-317" y="0" type="line"/>
			<point x="-106" y="248" type="line"/>
			<point x="467" y="248" type="line"/>
			<point x="467" y="380" type="line"/>
			<point x="-107" y="380" type="line"/>
			<point x="-320" y="629" type="line"/>
			<point x="-490" y="629" type="line"/>
			<point x="-223" y="314" type="line"/>
		</contour>
	</outline>
</glyph>
<glyph name="greater_hyphen_greater.rem" format="2">
	<advance width="600"/>
	<outline>
		<contour>
			<point x="-1080" y="0" type="line"/>
			<point x="-910" y="0" type="line"/>
			<point x="-699" y="248" type="line"/>
			<point x="259" y="248" type="line"/>
			<point x="37" y="0" type="line"/>
			<point x="205" y="0" type="line"/>
			<point x="476" y="314" type="line"/>
			<point x="202" y="629" type="line"/>
			<point x="34" y="629" type="line"/>
			<point x="258" y="380" type="line"/>
			<point x="-700" y="380" type="line"/>
			<point x="-913" y="629" type="line"/>
			<point x="-1083" y="629" type="line"/>
			<point x="-816" y="314" type="line"/>
		</contour>
	</outline>
</glyph>
<glyph name="hyphen_asciitilde.cLig" format="2">
	<advance width="600"/>
	<outline>
		<contour>
			<point x="-425" y="241" type="line"/>
			<point x="9" y="241" type="line"/>
			<point x="14" y="282"/>
			<point x="32" y="308"/>
			<point x="64" y="308" type="curve" smooth="yes"/>
			<point x="125" y="308"/>
			<point x="157" y="188"/>
			<point x="270" y="188" type="curve" smooth="yes"/>
			<point x="362" y="188"/>
			<point x="415" y="250"/>
			<point x="415" y="424" type="curve"/>
			<point x="303" y="424" type="line"/>
			<point x="303" y="354"/>
			<point x="289" y="322"/>
			<point x="251" y="322" type="curve"/>
			<point x="192" y="322"/>
			<point x="151" y="441"/>
			<point x="47" y="441" type="curve" smooth="yes"/>
			<point x="-5" y="441"/>
			<point x="-43" y="419"/>
			<point x="-66" y="373" type="curve"/>
			<point x="-425" y="373" type="line"/>
		</contour>
	</outline>
</glyph>
<glyph name="hyphen_braceright.rem" format="2">
	<advance width="600"/>
	<outline>
		<contour>
			<point x="-5" y="-163" type="line"/>
			<point x="178" y="-163" type="line" smooth="yes"/>
			<point x="289" y="-163"/>
			<point x="348" y="-106"/>
			<point x="348" y="-29" type="curve" smooth="yes"/>
			<point x="348" y="61"/>
			<point x="259" y="121"/>
			<point x="259" y="183" type="curve" smooth="yes"/>
			<point x="259" y="218"/>
			<point x="279" y="252"/>
			<point x="342" y="252" type="curve" smooth="yes"/>
			<point x="422" y="252" type="line"/>
			<point x="422" y="375" type="line"/>
			<point x="342" y="375" type="line" smooth="yes"/>
			<point x="279" y="375"/>
			<point x="259" y="406"/>
			<point x="259" y="437" type="curve" smooth="yes"/>
			<point x="259" y="502"/>
			<point x="348" y="564"/>
			<point x="348" y="657" type="curve" smooth="yes"/>
			<point x="348" y="734"/>
			<point x="287" y="792"/>
			<point x="178" y="792" type="curve" smooth="yes"/>
			<point x="-5" y="792" type="line"/>
			<point x="-5" y="686" type="line"/>
			<point x="127" y="686" type="line" smooth="yes"/>
			<point x="171" y="686"/>
			<point x="197" y="669"/>
			<point x="197" y="634" type="curve" smooth="yes"/>
			<point x="197" y="579"/>
			<point x="110" y="528"/>
			<point x="110" y="460" type="curve" smooth="yes"/>
			<point x="110" y="416"/>
			<point x="146" y="390"/>
			<point x="200" y="376" type="curve"/>
			<point x="-440" y="376" type="line"/>
			<point x="-440" y="252" type="line"/>
			<point x="195" y="252" type="line"/>
			<point x="144" y="235"/>
			<point x="110" y="208"/>
			<point x="110" y="164" type="curve" smooth="yes"/>
			<point x="110" y="96"/>
			<point x="197" y="51"/>
			<point x="197" y="-5" type="curve" smooth="yes"/>
			<point x="197" y="-37"/>
			<point x="173" y="-57"/>
			<point x="121" y="-57" type="curve" smooth="yes"/>
			<point x="-5" y="-57" type="line"/>
		</contour>
	</outline>
</glyph>
<glyph name="hyphen_greater_greater.rem" format="2">
	<advance width="600"/>
	<outline>
		<contour>
			<point x="42" y="0" type="line"/>
			<point x="209" y="0" type="line"/>
			<point x="473" y="314" type="line"/>
			<point x="206" y="629" type="line"/>
			<point x="39" y="629" type="line"/>
			<point x="304" y="316" type="line"/>
		</contour>
		<contour>
			<point x="-1047" y="248" type="line"/>
			<point x="-140" y="248" type="line"/>
			<point x="-361" y="0" type="line"/>
			<point x="-193" y="0" type="line"/>
			<point x="78" y="314" type="line"/>
			<point x="-196" y="629" type="line"/>
			<point x="-364" y="629" type="line"/>
			<point x="-140" y="380" type="line"/>
			<point x="-1047" y="380" type="line"/>
		</contour>
	</outline>
</glyph>
<glyph name="hyphen_less_less.rem" format="2">
	<advance width="600"/>
	<outline>
		<contour>
			<point x="487" y="629" type="line"/>
			<point x="317" y="629" type="line"/>
			<point x="49" y="315" type="line"/>
			<point x="320" y="0" type="line"/>
			<point x="490" y="0" type="line"/>
			<point x="218" y="314" type="line"/>
		</contour>
		<contour>
			<point x="96" y="629" type="line"/>
			<point x="-74" y="629" type="line"/>
			<point x="-285" y="381" type="line"/>
			<point x="-1067" y="381" type="line"/>
			<point x="-1067" y="249" type="line"/>
			<point x="-284" y="249" type="line"/>
			<point x="-71" y="0" type="line"/>
			<point x="99" y="0" type="line"/>
			<point x="-169" y="315" type="line"/>
		</contour>
	</outline>
</glyph>
<glyph name="less_asciitilde.cLig" format="2">
	<advance width="600"/>
	<outline>
		<contour>
			<point x="-78" y="-1" type="line"/>
			<point x="-302" y="248" type="line"/>
			<point x="96" y="248" type="line"/>
			<point x="101" y="289"/>
			<point x="119" y="315"/>
			<point x="151" y="315" type="curve" smooth="yes"/>
			<point x="212" y="315"/>
			<point x="244" y="195"/>
			<point x="357" y="195" type="curve" smooth="yes"/>
			<point x="449" y="195"/>
			<point x="502" y="257"/>
			<point x="502" y="431" type="curve"/>
			<point x="390" y="431" type="line"/>
			<point x="390" y="361"/>
			<point x="376" y="329"/>
			<point x="338" y="329" type="curve"/>
			<point x="279" y="329"/>
			<point x="238" y="448"/>
			<point x="134" y="448" type="curve" smooth="yes"/>
			<point x="82" y="448"/>
			<point x="44" y="426"/>
			<point x="21" y="380" type="curve"/>
			<point x="-303" y="380" type="line"/>
			<point x="-81" y="628" type="line"/>
			<point x="-249" y="628" type="line"/>
			<point x="-520" y="314" type="line"/>
			<point x="-246" y="-1" type="line"/>
		</contour>
	</outline>
</glyph>
<glyph name="less_asciitilde_asciitilde.cLig" format="2">
	<advance width="600"/>
	<outline>
		<contour>
			<point x="-677" y="0" type="line"/>
			<point x="-901" y="249" type="line"/>
			<point x="-599" y="249" type="line"/>
			<point x="-567" y="204"/>
			<point x="-526" y="185"/>
			<point x="-485" y="185" type="curve" smooth="yes"/>
			<point x="-370" y="185"/>
			<point x="-360" y="310"/>
			<point x="-285" y="310" type="curve" smooth="yes"/>
			<point x="-212" y="310"/>
			<point x="-194" y="187"/>
			<point x="-85" y="187" type="curve" smooth="yes"/>
			<point x="25" y="187"/>
			<point x="41" y="311"/>
			<point x="112" y="311" type="curve"/>
			<point x="185" y="311"/>
			<point x="203" y="187"/>
			<point x="321" y="187" type="curve" smooth="yes"/>
			<point x="420" y="187"/>
			<point x="496" y="270"/>
			<point x="517" y="430" type="curve"/>
			<point x="400" y="430" type="line"/>
			<point x="390" y="366"/>
			<point x="362" y="323"/>
			<point x="313" y="323" type="curve" smooth="yes"/>
			<point x="244" y="323"/>
			<point x="225" y="444"/>
			<point x="113" y="444" type="curve"/>
			<point x="-2" y="444"/>
			<point x="-9" y="324"/>
			<point x="-84" y="324" type="curve" smooth="yes"/>
			<point x="-158" y="324"/>
			<point x="-166" y="444"/>
			<point x="-283" y="444" type="curve" smooth="yes"/>
			<point x="-395" y="444"/>
			<point x="-401" y="318"/>
			<point x="-475" y="318" type="curve" smooth="yes"/>
			<point x="-511" y="318"/>
			<point x="-530" y="340"/>
			<point x="-550" y="381" type="curve"/>
			<point x="-902" y="381" type="line"/>
			<point x="-680" y="629" type="line"/>
			<point x="-849" y="629" type="line"/>
			<point x="-1119" y="315" type="line"/>
			<point x="-846" y="0" type="line"/>
		</contour>
	</outline>
</glyph>
<glyph name="less_asterisk.cLig" format="2">
	<advance width="600"/>
	<outline>
		<contour>
			<point x="-51" y="-10" type="line"/>
			<point x="-51" y="132" type="line"/>
			<point x="-397" y="316" type="line"/>
			<point x="-50" y="498" type="line"/>
			<point x="-51" y="641" type="line"/>
			<point x="-500" y="396" type="line"/>
			<point x="-500" y="233" type="line"/>
		</contour>
		<contour>
			<point x="429" y="137" type="line"/>
			<point x="497" y="254" type="line"/>
			<point x="313" y="319" type="line"/>
			<point x="498" y="383" type="line"/>
			<point x="431" y="500" type="line"/>
			<point x="282" y="372" type="line"/>
			<point x="319" y="565" type="line"/>
			<point x="183" y="565" type="line"/>
			<point x="220" y="372" type="line"/>
			<point x="70" y="501" type="line"/>
			<point x="2" y="384" type="line"/>
			<point x="188" y="319" type="line"/>
			<point x="4" y="255" type="line"/>
			<point x="71" y="138" type="line"/>
			<point x="220" y="265" type="line"/>
			<point x="183" y="73" type="line"/>
			<point x="319" y="73" type="line"/>
			<point x="282" y="264" type="line"/>
		</contour>
	</outline>
</glyph>
<glyph name="less_asterisk_greater.cLig" format="2">
	<advance width="600"/>
	<outline>
		<contour>
			<point x="37" y="-10" type="line"/>
			<point x="487" y="233" type="line"/>
			<point x="487" y="396" type="line"/>
			<point x="37" y="641" type="line"/>
			<point x="37" y="498" type="line"/>
			<point x="383" y="316" type="line"/>
			<point x="37" y="132" type="line"/>
		</contour>
		<contour>
			<point x="-637" y="-10" type="line"/>
			<point x="-637" y="132" type="line"/>
			<point x="-983" y="316" type="line"/>
			<point x="-637" y="498" type="line"/>
			<point x="-637" y="641" type="line"/>
			<point x="-1087" y="396" type="line"/>
			<point x="-1087" y="233" type="line"/>
		</contour>
		<contour>
			<point x="-121" y="137" type="line"/>
			<point x="-53" y="254" type="line"/>
			<point x="-237" y="319" type="line"/>
			<point x="-52" y="383" type="line"/>
			<point x="-119" y="500" type="line"/>
			<point x="-268" y="372" type="line"/>
			<point x="-231" y="565" type="line"/>
			<point x="-367" y="565" type="line"/>
			<point x="-330" y="372" type="line"/>
			<point x="-479" y="501" type="line"/>
			<point x="-547" y="384" type="line"/>
			<point x="-362" y="319" type="line"/>
			<point x="-546" y="255" type="line"/>
			<point x="-479" y="138" type="line"/>
			<point x="-330" y="265" type="line"/>
			<point x="-367" y="73" type="line"/>
			<point x="-231" y="73" type="line"/>
			<point x="-268" y="264" type="line"/>
		</contour>
	</outline>
</glyph>
<glyph name="less_bar_bar.cLig" format="2">
	<advance width="600"/>
	<outline>
		<contour>
			<point x="277" y="-79" type="line"/>
			<point x="277" y="708" type="line"/>
			<point x="139" y="708" type="line"/>
			<point x="139" y="-79" type="line"/>
		</contour>
		<contour>
			<point x="-283" y="708" type="line"/>
			<point x="-421" y="708" type="line"/>
			<point x="-943" y="396" type="line"/>
			<point x="-943" y="233" type="line"/>
			<point x="-421" y="-79" type="line"/>
			<point x="-283" y="-79" type="line"/>
		</contour>
		<contour>
			<point x="-421" y="77" type="line"/>
			<point x="-825" y="313" type="line"/>
			<point x="-421" y="553" type="line"/>
		</contour>
	</outline>
</glyph>
<glyph name="less_bar_greater.cLig" format="2">
	<advance width="600"/>
	<outline>
		<contour>
			<point x="-369" y="-163" type="line"/>
			<point x="-231" y="-163" type="line"/>
			<point x="-231" y="792" type="line"/>
			<point x="-369" y="792" type="line"/>
		</contour>
		<contour>
			<point x="-527" y="-78" type="line"/>
			<point x="-527" y="76" type="line"/>
			<point x="-923" y="317" type="line"/>
			<point x="-527" y="550" type="line"/>
			<point x="-527" y="708" type="line"/>
			<point x="-1050" y="396" type="line"/>
			<point x="-1050" y="233" type="line"/>
		</contour>
		<contour>
			<point x="-72" y="-79" type="line"/>
			<point x="450" y="234" type="line"/>
			<point x="450" y="396" type="line"/>
			<point x="-72" y="708" type="line"/>
			<point x="-72" y="554" type="line"/>
			<point x="323" y="312" type="line"/>
			<point x="-72" y="80" type="line"/>
		</contour>
	</outline>
</glyph>
<glyph name="less_colon.cLig.x" format="2">
	<advance width="600"/>
	<outline>
		<contour>
			<point x="-7" y="-10" type="line"/>
			<point x="-7" y="132" type="line"/>
			<point x="-352" y="316" type="line"/>
			<point x="-7" y="497" type="line"/>
			<point x="-7" y="641" type="line"/>
			<point x="-457" y="396" type="line"/>
			<point x="-457" y="233" type="line"/>
		</contour>
		<contour>
			<point x="304" y="392" type="curve" smooth="yes"/>
			<point x="372" y="392"/>
			<point x="407" y="418"/>
			<point x="407" y="486" type="curve" smooth="yes"/>
			<point x="407" y="553"/>
			<point x="372" y="578"/>
			<point x="304" y="578" type="curve" smooth="yes"/>
			<point x="236" y="578"/>
			<point x="201" y="553"/>
			<point x="201" y="486" type="curve" smooth="yes"/>
			<point x="201" y="418"/>
			<point x="236" y="392"/>
		</contour>
		<contour>
			<point x="304" y="37" type="curve" smooth="yes"/>
			<point x="372" y="37"/>
			<point x="407" y="63"/>
			<point x="407" y="131" type="curve" smooth="yes"/>
			<point x="407" y="198"/>
			<point x="372" y="223"/>
			<point x="304" y="223" type="curve" smooth="yes"/>
			<point x="236" y="223"/>
			<point x="201" y="198"/>
			<point x="201" y="131" type="curve" smooth="yes"/>
			<point x="201" y="63"/>
			<point x="236" y="37"/>
		</contour>
	</outline>
</glyph>
<glyph name="less_dollar.cLig" format="2">
	<advance width="600"/>
	<outline>
		<contour>
			<point x="149" y="-92" type="line"/>
			<point x="246" y="-92" type="line"/>
			<point x="259" y="-11" type="line"/>
			<point x="269" y="-11" type="line" smooth="yes"/>
			<point x="426" y="-9"/>
			<point x="531" y="66"/>
			<point x="531" y="217" type="curve" smooth="yes"/>
			<point x="531" y="345"/>
			<point x="436" y="384"/>
			<point x="319" y="407" type="curve"/>
			<point x="346" y="571" type="line"/>
			<point x="404" y="561"/>
			<point x="465" y="540"/>
			<point x="512" y="508" type="curve"/>
			<point x="512" y="636" type="line"/>
			<point x="481" y="656"/>
			<point x="433" y="674"/>
			<point x="377" y="685" type="curve"/>
			<point x="391" y="775" type="line"/>
			<point x="295" y="775" type="line"/>
			<point x="282" y="695" type="line"/>
			<point x="274" y="695" type="line" smooth="yes"/>
			<point x="120" y="695"/>
			<point x="16" y="620"/>
			<point x="16" y="477" type="curve" smooth="yes"/>
			<point x="16" y="342"/>
			<point x="102" y="305"/>
			<point x="224" y="282" type="curve"/>
			<point x="195" y="114" type="line"/>
			<point x="121" y="125"/>
			<point x="37" y="152"/>
			<point x="-79" y="196" type="curve" smooth="yes"/>
			<point x="-404" y="319" type="line"/>
			<point x="-94" y="462" type="line"/>
			<point x="-94" y="603" type="line"/>
			<point x="-527" y="396" type="line"/>
			<point x="-527" y="233" type="line"/>
			<point x="-128" y="76" type="line" smooth="yes"/>
			<point x="-18" y="34"/>
			<point x="76" y="7"/>
			<point x="163" y="-5" type="curve"/>
		</contour>
		<contour>
			<point x="161" y="495" type="curve" smooth="yes"/>
			<point x="161" y="554"/>
			<point x="208" y="578"/>
			<point x="270" y="578" type="curve" smooth="yes"/>
			<point x="274" y="578" type="line"/>
			<point x="247" y="420" type="line"/>
			<point x="193" y="431"/>
			<point x="161" y="448"/>
		</contour>
		<contour>
			<point x="385" y="193" type="curve" smooth="yes"/>
			<point x="385" y="136"/>
			<point x="341" y="109"/>
			<point x="268" y="109" type="curve"/>
			<point x="295" y="269" type="line"/>
			<point x="351" y="257"/>
			<point x="385" y="239"/>
		</contour>
	</outline>
</glyph>
<glyph name="less_equal_equal_greater.rem" format="2">
	<advance width="600"/>
	<outline>
		<contour>
			<point x="49" y="0" type="line"/>
			<point x="216" y="0" type="line"/>
			<point x="480" y="314" type="line"/>
			<point x="213" y="629" type="line"/>
			<point x="46" y="629" type="line"/>
			<point x="166" y="488" type="line"/>
			<point x="-1367" y="488" type="line"/>
			<point x="-1249" y="629" type="line"/>
			<point x="-1416" y="629" type="line"/>
			<point x="-1680" y="315" type="line"/>
			<point x="-1413" y="0" type="line"/>
			<point x="-1246" y="0" type="line"/>
			<point x="-1366" y="141" type="line"/>
			<point x="167" y="141" type="line"/>
		</contour>
		<contour>
			<point x="313" y="316" type="line"/>
			<point x="270" y="264" type="line"/>
			<point x="-1472" y="264" type="line"/>
			<point x="-1513" y="313" type="line"/>
			<point x="-1470" y="365" type="line"/>
			<point x="272" y="365" type="line"/>
		</contour>
	</outline>
</glyph>
<glyph name="less_equal_greater.rem" format="2">
	<advance width="600"/>
	<outline>
		<contour>
			<point x="-656" y="629" type="line"/>
			<point x="-823" y="629" type="line"/>
			<point x="-1087" y="316" type="line"/>
			<point x="-820" y="0" type="line"/>
			<point x="-653" y="0" type="line"/>
			<point x="-773" y="140" type="line"/>
			<point x="-160" y="140" type="line"/>
			<point x="-160" y="141" type="line"/>
			<point x="173" y="141" type="line"/>
			<point x="53" y="0" type="line"/>
			<point x="220" y="0" type="line"/>
			<point x="487" y="315" type="line"/>
			<point x="223" y="629" type="line"/>
			<point x="56" y="629" type="line"/>
			<point x="173" y="488" type="line"/>
			<point x="-160" y="488" type="line"/>
			<point x="-160" y="489" type="line"/>
			<point x="-774" y="489" type="line"/>
		</contour>
		<contour>
			<point x="-160" y="265" type="line"/>
			<point x="-879" y="265" type="line"/>
			<point x="-920" y="313" type="line"/>
			<point x="-877" y="364" type="line"/>
			<point x="-160" y="364" type="line"/>
			<point x="-160" y="365" type="line"/>
			<point x="277" y="365" type="line"/>
			<point x="320" y="313" type="line"/>
			<point x="279" y="264" type="line"/>
			<point x="-160" y="264" type="line"/>
		</contour>
	</outline>
</glyph>
<glyph name="less_equal_less.rem" format="2">
	<advance width="600"/>
	<outline>
		<contour>
			<point x="279" y="264" type="line"/>
			<point x="-876" y="264" type="line"/>
			<point x="-918" y="313" type="line"/>
			<point x="-875" y="365" type="line"/>
			<point x="279" y="365" type="line"/>
			<point x="496" y="629" type="line"/>
			<point x="328" y="629" type="line"/>
			<point x="213" y="488" type="line"/>
			<point x="-771" y="488" type="line"/>
			<point x="-654" y="629" type="line"/>
			<point x="-821" y="629" type="line"/>
			<point x="-1084" y="315" type="line"/>
			<point x="-818" y="0" type="line"/>
			<point x="-651" y="0" type="line"/>
			<point x="-771" y="141" type="line"/>
			<point x="214" y="141" type="line"/>
			<point x="331" y="0" type="line"/>
			<point x="499" y="0" type="line"/>
		</contour>
	</outline>
</glyph>
<glyph name="less_exclam_hyphen_hyphen.cLig" format="2">
	<advance width="600"/>
	<outline>
		<contour>
			<point x="-1013" y="231" type="line"/>
			<point x="-907" y="231" type="line"/>
			<point x="-879" y="559" type="line"/>
			<point x="-879" y="684" type="line"/>
			<point x="-1040" y="684" type="line"/>
			<point x="-1040" y="559" type="line"/>
		</contour>
		<contour>
			<point x="-1233" y="0" type="line"/>
			<point x="-1457" y="249" type="line"/>
			<point x="-1145" y="249" type="line"/>
			<point x="-1145" y="381" type="line"/>
			<point x="-1458" y="381" type="line"/>
			<point x="-1236" y="629" type="line"/>
			<point x="-1404" y="629" type="line"/>
			<point x="-1675" y="315" type="line"/>
			<point x="-1401" y="0" type="line"/>
		</contour>
		<contour>
			<point x="440" y="380" type="line"/>
			<point x="-758" y="380" type="line"/>
			<point x="-758" y="248" type="line"/>
			<point x="440" y="248" type="line"/>
		</contour>
		<contour>
			<point x="-958" y="-12" type="curve" smooth="yes"/>
			<point x="-896" y="-12"/>
			<point x="-865" y="11"/>
			<point x="-865" y="73" type="curve" smooth="yes"/>
			<point x="-865" y="133"/>
			<point x="-896" y="157"/>
			<point x="-958" y="157" type="curve" smooth="yes"/>
			<point x="-1022" y="157"/>
			<point x="-1053" y="133"/>
			<point x="-1053" y="73" type="curve" smooth="yes"/>
			<point x="-1053" y="11"/>
			<point x="-1022" y="-12"/>
		</contour>
	</outline>
</glyph>
<glyph name="less_greater.cLig" format="2">
	<advance width="600"/>
	<outline>
		<contour>
			<point x="0" y="-86" type="line"/>
			<point x="453" y="232" type="line"/>
			<point x="453" y="395" type="line"/>
			<point x="0" y="707" type="line"/>
			<point x="-453" y="396" type="line"/>
			<point x="-453" y="233" type="line"/>
		</contour>
		<contour>
			<point x="0" y="555" type="line"/>
			<point x="349" y="313" type="line"/>
			<point x="0" y="68" type="line"/>
			<point x="-349" y="315" type="line"/>
		</contour>
	</outline>
</glyph>
<glyph name="less_hyphen.rem" format="2">
	<advance width="600"/>
	<outline>
		<contour>
			<point x="-21" y="0" type="line"/>
			<point x="-245" y="249" type="line"/>
			<point x="440" y="249" type="line"/>
			<point x="440" y="381" type="line"/>
			<point x="-246" y="381" type="line"/>
			<point x="-24" y="629" type="line"/>
			<point x="-192" y="629" type="line"/>
			<point x="-463" y="315" type="line"/>
			<point x="-189" y="0" type="line"/>
		</contour>
	</outline>
</glyph>
<glyph name="less_hyphen_greater.rem" format="2">
	<advance width="600"/>
	<outline>
		<contour>
			<point x="-638" y="0" type="line"/>
			<point x="-862" y="249" type="line"/>
			<point x="-423" y="249" type="line"/>
			<point x="-423" y="248" type="line"/>
			<point x="263" y="248" type="line"/>
			<point x="41" y="0" type="line"/>
			<point x="209" y="0" type="line"/>
			<point x="480" y="314" type="line"/>
			<point x="206" y="629" type="line"/>
			<point x="38" y="629" type="line"/>
			<point x="262" y="380" type="line"/>
			<point x="-177" y="380" type="line"/>
			<point x="-177" y="381" type="line"/>
			<point x="-863" y="381" type="line"/>
			<point x="-641" y="629" type="line"/>
			<point x="-809" y="629" type="line"/>
			<point x="-1080" y="315" type="line"/>
			<point x="-806" y="0" type="line"/>
		</contour>
	</outline>
</glyph>
<glyph name="less_hyphen_hyphen.rem" format="2">
	<advance width="600"/>
	<outline>
		<contour>
			<point x="-621" y="0" type="line"/>
			<point x="-845" y="249" type="line"/>
			<point x="440" y="249" type="line"/>
			<point x="440" y="381" type="line"/>
			<point x="-846" y="381" type="line"/>
			<point x="-625" y="629" type="line"/>
			<point x="-793" y="629" type="line"/>
			<point x="-1063" y="315" type="line"/>
			<point x="-790" y="0" type="line"/>
		</contour>
	</outline>
</glyph>
<glyph name="less_less_equal.fina" format="2">
	<advance width="600"/>
	<outline>
		<contour>
			<point x="533" y="629" type="line"/>
			<point x="363" y="629" type="line"/>
			<point x="95" y="315" type="line"/>
			<point x="366" y="0" type="line"/>
			<point x="536" y="0" type="line"/>
			<point x="263" y="315" type="line"/>
		</contour>
		<contour>
			<point x="-79" y="264" type="line"/>
			<point x="-600" y="264" type="line"/>
			<point x="-600" y="141" type="line"/>
			<point x="-144" y="141" type="line"/>
			<point x="-27" y="0" type="line"/>
			<point x="141" y="0" type="line"/>
		</contour>
		<contour>
			<point x="138" y="629" type="line"/>
			<point x="-30" y="629" type="line"/>
			<point x="-145" y="488" type="line"/>
			<point x="-600" y="488" type="line"/>
			<point x="-600" y="365" type="line"/>
			<point x="-79" y="365" type="line"/>
		</contour>
	</outline>
</glyph>
<glyph name="less_less_equal.init" format="2">
	<advance width="600"/>
	<outline>
		<contour>
			<point x="-57" y="629" type="line"/>
			<point x="-224" y="629" type="line"/>
			<point x="-489" y="315" type="line"/>
			<point x="-222" y="0" type="line"/>
			<point x="-54" y="0" type="line"/>
			<point x="-322" y="313" type="line"/>
		</contour>
		<contour>
			<point x="600" y="488" type="line"/>
			<point x="212" y="488" type="line"/>
			<point x="329" y="629" type="line"/>
			<point x="163" y="629" type="line"/>
			<point x="-101" y="315" type="line"/>
			<point x="166" y="0" type="line"/>
			<point x="332" y="0" type="line"/>
			<point x="212" y="141" type="line"/>
			<point x="600" y="141" type="line"/>
			<point x="600" y="264" type="line"/>
			<point x="107" y="264" type="line"/>
			<point x="65" y="313" type="line"/>
			<point x="109" y="365" type="line"/>
			<point x="600" y="365" type="line"/>
		</contour>
	</outline>
</glyph>
<glyph name="less_less_hyphen.init" format="2">
	<advance width="600"/>
	<outline>
		<contour>
			<point x="-57" y="629" type="line"/>
			<point x="-224" y="629" type="line"/>
			<point x="-490" y="315" type="line"/>
			<point x="-221" y="0" type="line"/>
			<point x="-54" y="0" type="line"/>
			<point x="-319" y="313" type="line"/>
		</contour>
		<contour>
			<point x="600" y="381" type="line"/>
			<point x="109" y="381" type="line"/>
			<point x="331" y="629" type="line"/>
			<point x="162" y="629" type="line"/>
			<point x="-108" y="315" type="line"/>
			<point x="165" y="0" type="line"/>
			<point x="334" y="0" type="line"/>
			<point x="110" y="249" type="line"/>
			<point x="600" y="249" type="line"/>
		</contour>
	</outline>
</glyph>
<glyph name="less_less_hyphen_greater_greater.rem" format="2">
	<advance width="600"/>
	<outline>
		<contour>
			<point x="-1249" y="0" type="line"/>
			<point x="-1512" y="316" type="line"/>
			<point x="-1246" y="629" type="line"/>
			<point x="-1413" y="629" type="line"/>
			<point x="-1680" y="313" type="line"/>
			<point x="-1416" y="0" type="line"/>
		</contour>
		<contour>
			<point x="-1066" y="248" type="line"/>
			<point x="-133" y="248" type="line"/>
			<point x="-354" y="0" type="line"/>
			<point x="-186" y="0" type="line"/>
			<point x="85" y="314" type="line"/>
			<point x="-189" y="629" type="line"/>
			<point x="-357" y="629" type="line"/>
			<point x="-133" y="380" type="line"/>
			<point x="-1065" y="380" type="line"/>
			<point x="-842" y="629" type="line"/>
			<point x="-1011" y="629" type="line"/>
			<point x="-1285" y="314" type="line"/>
			<point x="-1014" y="0" type="line"/>
			<point x="-846" y="0" type="line"/>
		</contour>
		<contour>
			<point x="49" y="0" type="line"/>
			<point x="216" y="0" type="line"/>
			<point x="480" y="314" type="line"/>
			<point x="213" y="629" type="line"/>
			<point x="46" y="629" type="line"/>
			<point x="311" y="316" type="line"/>
		</contour>
	</outline>
</glyph>
<glyph name="less_question.cLig" format="2">
	<advance width="600"/>
	<outline>
		<contour>
			<point x="-65" y="469" type="line" smooth="yes"/>
			<point x="98" y="544"/>
			<point x="186" y="570"/>
			<point x="252" y="570" type="curve"/>
			<point x="316" y="570"/>
			<point x="344" y="543"/>
			<point x="344" y="504" type="curve" smooth="yes"/>
			<point x="344" y="411"/>
			<point x="169" y="405"/>
			<point x="169" y="269" type="curve" smooth="yes"/>
			<point x="169" y="255"/>
			<point x="171" y="244"/>
			<point x="174" y="231" type="curve"/>
			<point x="306" y="231" type="line"/>
			<point x="306" y="258" type="line" smooth="yes"/>
			<point x="307" y="345"/>
			<point x="492" y="368"/>
			<point x="492" y="527" type="curve" smooth="yes"/>
			<point x="492" y="627"/>
			<point x="418" y="698"/>
			<point x="271" y="698" type="curve"/>
			<point x="162" y="698"/>
			<point x="52" y="662"/>
			<point x="-99" y="591" type="curve" smooth="yes"/>
			<point x="-516" y="396" type="line"/>
			<point x="-516" y="233" type="line"/>
			<point x="-51" y="16" type="line"/>
			<point x="-51" y="157" type="line"/>
			<point x="-403" y="315" type="line"/>
		</contour>
		<contour>
			<point x="240" y="-12" type="curve" smooth="yes"/>
			<point x="302" y="-12"/>
			<point x="334" y="11"/>
			<point x="334" y="73" type="curve" smooth="yes"/>
			<point x="334" y="134"/>
			<point x="303" y="158"/>
			<point x="240" y="158" type="curve" smooth="yes"/>
			<point x="175" y="158"/>
			<point x="144" y="134"/>
			<point x="144" y="73" type="curve" smooth="yes"/>
			<point x="144" y="11"/>
			<point x="176" y="-12"/>
		</contour>
	</outline>
</glyph>
<glyph name="nine.den" format="2">
	<advance width="600"/>
	<outline>
		<contour>
			<point x="272" y="-8" type="curve" smooth="yes"/>
			<point x="421" y="-8"/>
			<point x="465" y="90"/>
			<point x="465" y="224" type="curve" smooth="yes"/>
			<point x="465" y="347"/>
			<point x="425" y="418"/>
			<point x="300" y="418" type="curve" smooth="yes"/>
			<point x="193" y="418"/>
			<point x="137" y="350"/>
			<point x="137" y="265" type="curve" smooth="yes"/>
			<point x="137" y="191"/>
			<point x="174" y="138"/>
			<point x="253" y="138" type="curve" smooth="yes"/>
			<point x="304" y="138"/>
			<point x="340" y="161"/>
			<point x="362" y="208" type="curve"/>
			<point x="360" y="114"/>
			<point x="338" y="71"/>
			<point x="258" y="71" type="curve" smooth="yes"/>
			<point x="223" y="71"/>
			<point x="178" y="86"/>
			<point x="147" y="107" type="curve"/>
			<point x="147" y="22" type="line"/>
			<point x="175" y="6"/>
			<point x="226" y="-8"/>
		</contour>
		<contour>
			<point x="297" y="205" type="curve" smooth="yes"/>
			<point x="257" y="205"/>
			<point x="236" y="226"/>
			<point x="236" y="271" type="curve" smooth="yes"/>
			<point x="236" y="321"/>
			<point x="261" y="344"/>
			<point x="300" y="344" type="curve" smooth="yes"/>
			<point x="340" y="344"/>
			<point x="364" y="319"/>
			<point x="364" y="272" type="curve" smooth="yes"/>
			<point x="364" y="226"/>
			<point x="336" y="205"/>
		</contour>
	</outline>
</glyph>
<glyph name="numbersign.init" format="2">
	<advance width="600"/>
	<outline>
		<contour>
			<point x="25" y="267" type="line"/>
			<point x="25" y="157" type="line"/>
			<point x="118" y="157" type="line"/>
			<point x="103" y="0" type="line"/>
			<point x="216" y="0" type="line"/>
			<point x="231" y="157" type="line"/>
			<point x="342" y="157" type="line"/>
			<point x="328" y="0" type="line"/>
			<point x="439" y="0" type="line"/>
			<point x="454" y="157" type="line"/>
			<point x="600" y="157" type="line"/>
			<point x="600" y="267" type="line"/>
			<point x="465" y="267" type="line"/>
			<point x="480" y="424" type="line"/>
			<point x="600" y="424" type="line"/>
			<point x="600" y="535" type="line"/>
			<point x="490" y="535" type="line"/>
			<point x="504" y="684" type="line"/>
			<point x="392" y="684" type="line"/>
			<point x="378" y="535" type="line"/>
			<point x="266" y="535" type="line"/>
			<point x="280" y="684" type="line"/>
			<point x="168" y="684" type="line"/>
			<point x="154" y="535" type="line"/>
			<point x="50" y="535" type="line"/>
			<point x="50" y="424" type="line"/>
			<point x="143" y="424" type="line"/>
			<point x="128" y="267" type="line"/>
		</contour>
		<contour>
			<point x="241" y="267" type="line"/>
			<point x="256" y="424" type="line"/>
			<point x="368" y="424" type="line"/>
			<point x="353" y="267" type="line"/>
		</contour>
	</outline>
</glyph>
<glyph name="numbersign.med" format="2">
	<advance width="600"/>
	<outline>
		<contour>
			<point x="0" y="267" type="line"/>
			<point x="0" y="157" type="line"/>
			<point x="114" y="157" type="line"/>
			<point x="100" y="0" type="line"/>
			<point x="213" y="0" type="line"/>
			<point x="227" y="157" type="line"/>
			<point x="339" y="157" type="line"/>
			<point x="324" y="0" type="line"/>
			<point x="436" y="0" type="line"/>
			<point x="451" y="157" type="line"/>
			<point x="600" y="157" type="line"/>
			<point x="600" y="267" type="line"/>
			<point x="461" y="267" type="line"/>
			<point x="476" y="424" type="line"/>
			<point x="600" y="424" type="line"/>
			<point x="600" y="535" type="line"/>
			<point x="487" y="535" type="line"/>
			<point x="501" y="684" type="line"/>
			<point x="389" y="684" type="line"/>
			<point x="375" y="535" type="line"/>
			<point x="263" y="535" type="line"/>
			<point x="277" y="684" type="line"/>
			<point x="165" y="684" type="line"/>
			<point x="151" y="535" type="line"/>
			<point x="0" y="535" type="line"/>
			<point x="0" y="424" type="line"/>
			<point x="140" y="424" type="line"/>
			<point x="125" y="267" type="line"/>
		</contour>
		<contour>
			<point x="238" y="267" type="line"/>
			<point x="252" y="424" type="line"/>
			<point x="364" y="424" type="line"/>
			<point x="349" y="267" type="line"/>
		</contour>
	</outline>
</glyph>
<glyph name="numbersign_bracketright_bracketright.cLig" format="2">
	<advance width="600"/>
	<outline>
		<contour>
			<point x="423" y="792" type="line"/>
			<point x="18" y="792" type="line"/>
			<point x="18" y="686" type="line"/>
			<point x="284" y="686" type="line"/>
			<point x="284" y="-57" type="line"/>
			<point x="18" y="-57" type="line"/>
			<point x="18" y="-163" type="line"/>
			<point x="423" y="-163" type="line"/>
		</contour>
		<contour>
			<point x="-62" y="792" type="line"/>
			<point x="-412" y="792" type="line"/>
			<point x="-412" y="686" type="line"/>
			<point x="-200" y="686" type="line"/>
			<point x="-200" y="-57" type="line"/>
			<point x="-412" y="-57" type="line"/>
			<point x="-412" y="-163" type="line"/>
			<point x="-62" y="-163" type="line"/>
		</contour>
		<contour>
			<point x="-1036" y="267" type="line"/>
			<point x="-1036" y="157" type="line"/>
			<point x="-943" y="157" type="line"/>
			<point x="-958" y="0" type="line"/>
			<point x="-845" y="0" type="line"/>
			<point x="-830" y="157" type="line"/>
			<point x="-719" y="157" type="line"/>
			<point x="-733" y="0" type="line"/>
			<point x="-622" y="0" type="line"/>
			<point x="-607" y="157" type="line"/>
			<point x="-461" y="157" type="line"/>
			<point x="-461" y="267" type="line"/>
			<point x="-596" y="267" type="line"/>
			<point x="-581" y="424" type="line"/>
			<point x="-461" y="424" type="line"/>
			<point x="-461" y="535" type="line"/>
			<point x="-571" y="535" type="line"/>
			<point x="-557" y="684" type="line"/>
			<point x="-669" y="684" type="line"/>
			<point x="-683" y="535" type="line"/>
			<point x="-795" y="535" type="line"/>
			<point x="-781" y="684" type="line"/>
			<point x="-893" y="684" type="line"/>
			<point x="-907" y="535" type="line"/>
			<point x="-1011" y="535" type="line"/>
			<point x="-1011" y="424" type="line"/>
			<point x="-918" y="424" type="line"/>
			<point x="-933" y="267" type="line"/>
		</contour>
		<contour>
			<point x="-820" y="267" type="line"/>
			<point x="-805" y="424" type="line"/>
			<point x="-693" y="424" type="line"/>
			<point x="-708" y="267" type="line"/>
		</contour>
	</outline>
</glyph>
<glyph name="numbersign_colon.cLig_rem" format="2">
	<advance width="600"/>
	<outline>
		<contour>
			<point x="356" y="78" type="curve" smooth="yes"/>
			<point x="424" y="78"/>
			<point x="459" y="104"/>
			<point x="459" y="172" type="curve" smooth="yes"/>
			<point x="459" y="239"/>
			<point x="424" y="264"/>
			<point x="356" y="264" type="curve" smooth="yes"/>
			<point x="288" y="264"/>
			<point x="253" y="239"/>
			<point x="253" y="172" type="curve" smooth="yes"/>
			<point x="253" y="104"/>
			<point x="288" y="78"/>
		</contour>
		<contour>
			<point x="-470" y="267" type="line"/>
			<point x="-470" y="157" type="line"/>
			<point x="-377" y="157" type="line"/>
			<point x="-392" y="0" type="line"/>
			<point x="-279" y="0" type="line"/>
			<point x="-264" y="157" type="line"/>
			<point x="-153" y="157" type="line"/>
			<point x="-167" y="0" type="line"/>
			<point x="-56" y="0" type="line"/>
			<point x="-41" y="157" type="line"/>
			<point x="105" y="157" type="line"/>
			<point x="105" y="267" type="line"/>
			<point x="-30" y="267" type="line"/>
			<point x="-15" y="424" type="line"/>
			<point x="105" y="424" type="line"/>
			<point x="105" y="535" type="line"/>
			<point x="-5" y="535" type="line"/>
			<point x="9" y="684" type="line"/>
			<point x="-103" y="684" type="line"/>
			<point x="-117" y="535" type="line"/>
			<point x="-229" y="535" type="line"/>
			<point x="-215" y="684" type="line"/>
			<point x="-327" y="684" type="line"/>
			<point x="-341" y="535" type="line"/>
			<point x="-445" y="535" type="line"/>
			<point x="-445" y="424" type="line"/>
			<point x="-352" y="424" type="line"/>
			<point x="-367" y="267" type="line"/>
		</contour>
		<contour>
			<point x="-254" y="267" type="line"/>
			<point x="-239" y="424" type="line"/>
			<point x="-127" y="424" type="line"/>
			<point x="-142" y="267" type="line"/>
		</contour>
		<contour>
			<point x="356" y="418" type="curve" smooth="yes"/>
			<point x="424" y="418"/>
			<point x="459" y="444"/>
			<point x="459" y="512" type="curve" smooth="yes"/>
			<point x="459" y="579"/>
			<point x="424" y="604"/>
			<point x="356" y="604" type="curve" smooth="yes"/>
			<point x="288" y="604"/>
			<point x="253" y="579"/>
			<point x="253" y="512" type="curve" smooth="yes"/>
			<point x="253" y="444"/>
			<point x="288" y="418"/>
		</contour>
	</outline>
</glyph>
<glyph name="numbersign_exclam.cLig" format="2">
	<advance width="600"/>
	<outline>
		<contour>
			<point x="294" y="231" type="line"/>
			<point x="400" y="231" type="line"/>
			<point x="428" y="559" type="line"/>
			<point x="428" y="684" type="line"/>
			<point x="267" y="684" type="line"/>
			<point x="267" y="559" type="line"/>
		</contour>
		<contour>
			<point x="349" y="-12" type="curve" smooth="yes"/>
			<point x="411" y="-12"/>
			<point x="442" y="11"/>
			<point x="442" y="73" type="curve" smooth="yes"/>
			<point x="442" y="133"/>
			<point x="411" y="157"/>
			<point x="349" y="157" type="curve" smooth="yes"/>
			<point x="285" y="157"/>
			<point x="254" y="133"/>
			<point x="254" y="73" type="curve" smooth="yes"/>
			<point x="254" y="11"/>
			<point x="285" y="-12"/>
		</contour>
		<contour>
			<point x="-470" y="267" type="line"/>
			<point x="-470" y="157" type="line"/>
			<point x="-377" y="157" type="line"/>
			<point x="-392" y="0" type="line"/>
			<point x="-279" y="0" type="line"/>
			<point x="-264" y="157" type="line"/>
			<point x="-153" y="157" type="line"/>
			<point x="-167" y="0" type="line"/>
			<point x="-56" y="0" type="line"/>
			<point x="-41" y="157" type="line"/>
			<point x="105" y="157" type="line"/>
			<point x="105" y="267" type="line"/>
			<point x="-30" y="267" type="line"/>
			<point x="-15" y="424" type="line"/>
			<point x="105" y="424" type="line"/>
			<point x="105" y="535" type="line"/>
			<point x="-5" y="535" type="line"/>
			<point x="9" y="684" type="line"/>
			<point x="-103" y="684" type="line"/>
			<point x="-117" y="535" type="line"/>
			<point x="-229" y="535" type="line"/>
			<point x="-215" y="684" type="line"/>
			<point x="-327" y="684" type="line"/>
			<point x="-341" y="535" type="line"/>
			<point x="-445" y="535" type="line"/>
			<point x="-445" y="424" type="line"/>
			<point x="-352" y="424" type="line"/>
			<point x="-367" y="267" type="line"/>
		</contour>
		<contour>
			<point x="-254" y="267" type="line"/>
			<point x="-239" y="424" type="line"/>
			<point x="-127" y="424" type="line"/>
			<point x="-142" y="267" type="line"/>
		</contour>
	</outline>
</glyph>
